<svg width="17" height="17" viewBox="0 0 17 17" fill="none" xmlns="http://www.w3.org/2000/svg">
<path d="M16.394 10.0051C16.5875 9.80323 16.7393 9.56522 16.8405 9.30469C17.0532 8.78798 17.0532 8.2084 16.8405 7.69169C16.7393 7.43116 16.5875 7.19315 16.394 6.9913L10.015 0.624173C9.6146 0.224522 9.07155 0 8.5053 0C7.93906 0 7.396 0.224522 6.99561 0.624173C6.59522 1.02382 6.37028 1.56587 6.37028 2.13106C6.37028 2.69625 6.59522 3.2383 6.99561 3.63795L9.75983 6.37581H2.12632C1.56239 6.37581 1.02155 6.59942 0.622787 6.99744C0.224023 7.39547 0 7.9353 0 8.49819C0 9.06108 0.224023 9.60091 0.622787 9.99894C1.02155 10.397 1.56239 10.6206 2.12632 10.6206H9.75983L6.99561 13.3584C6.79631 13.5557 6.63813 13.7905 6.53018 14.0491C6.42223 14.3077 6.36665 14.5851 6.36665 14.8653C6.36665 15.1455 6.42223 15.4229 6.53018 15.6815C6.63813 15.9402 6.79631 16.1749 6.99561 16.3722C7.19328 16.5711 7.42845 16.729 7.68757 16.8368C7.94668 16.9445 8.2246 17 8.5053 17C8.786 17 9.06392 16.9445 9.32304 16.8368C9.58215 16.729 9.81732 16.5711 10.015 16.3722L16.394 10.0051Z" fill="#FE3FA0"/>
</svg>
