<svg width="17" height="17" viewBox="0 0 17 17" fill="none" xmlns="http://www.w3.org/2000/svg">
<path d="M0.606033 6.99492C0.412451 7.19677 0.260705 7.43478 0.159503 7.69531C-0.0531674 8.21202 -0.0531674 8.7916 0.159503 9.30831C0.260705 9.56884 0.412451 9.80685 0.606033 10.0087L6.98501 16.3758C7.3854 16.7755 7.92845 17 8.4947 17C9.06094 17 9.604 16.7755 10.0044 16.3758C10.4048 15.9762 10.6297 15.4341 10.6297 14.8689C10.6297 14.3037 10.4048 13.7617 10.0044 13.3621L7.24017 10.6242H14.8737C15.4376 10.6242 15.9785 10.4006 16.3772 10.0026C16.776 9.60453 17 9.0647 17 8.50181C17 7.93892 16.776 7.39909 16.3772 7.00106C15.9785 6.60304 15.4376 6.37943 14.8737 6.37943L7.24017 6.37943L10.0044 3.64157C10.2037 3.44427 10.3619 3.20953 10.4698 2.9509C10.5778 2.69227 10.6334 2.41486 10.6334 2.13468C10.6334 1.8545 10.5778 1.5771 10.4698 1.31847C10.3619 1.05983 10.2037 0.825098 10.0044 0.627795C9.80672 0.428868 9.57155 0.270976 9.31243 0.163226C9.05332 0.0554753 8.7754 -7.98373e-07 8.4947 -7.98373e-07C8.214 -7.98373e-07 7.93608 0.0554753 7.67696 0.163226C7.41785 0.270976 7.18268 0.428868 6.98501 0.627795L0.606033 6.99492Z" fill="#FE3FA0"/>
</svg>
