<svg width="31" height="31" viewBox="0 0 31 31" fill="none" xmlns="http://www.w3.org/2000/svg">
<path d="M29.4125 18.1622C29.7539 17.8056 30.0215 17.385 30.2 16.9247C30.5751 16.0117 30.5751 14.9877 30.2 14.0747C30.0215 13.6144 29.7539 13.1939 29.4125 12.8372L18.1625 1.58722C17.4564 0.88108 16.4986 0.484375 15.5 0.484375C14.5014 0.484375 13.5436 0.88108 12.8375 1.58722C12.1314 2.29336 11.7347 3.25109 11.7347 4.24972C11.7347 5.24835 12.1314 6.20608 12.8375 6.91222L17.7125 11.7497H4.25C3.25544 11.7497 2.30161 12.1448 1.59835 12.8481C0.895089 13.5513 0.5 14.5052 0.5 15.4997C0.5 16.4943 0.895089 17.4481 1.59835 18.1514C2.30161 18.8546 3.25544 19.2497 4.25 19.2497H17.7125L12.8375 24.0872C12.486 24.4358 12.207 24.8506 12.0167 25.3076C11.8263 25.7645 11.7283 26.2547 11.7283 26.7497C11.7283 27.2448 11.8263 27.7349 12.0167 28.1919C12.207 28.6489 12.486 29.0636 12.8375 29.4122C13.1861 29.7637 13.6009 30.0427 14.0578 30.2331C14.5148 30.4234 15.005 30.5215 15.5 30.5215C15.995 30.5215 16.4852 30.4234 16.9422 30.2331C17.3991 30.0427 17.8139 29.7637 18.1625 29.4122L29.4125 18.1622Z" fill="#FE3FA0"/>
</svg>
