<svg width="19" height="19" viewBox="0 0 19 19" fill="none" xmlns="http://www.w3.org/2000/svg">
<path d="M18.3227 11.1821C18.539 10.9566 18.7086 10.6905 18.8217 10.3994C19.0594 9.82186 19.0594 9.1741 18.8217 8.59659C18.7086 8.30542 18.539 8.0394 18.3227 7.81381L11.1932 0.697606C10.7457 0.250936 10.1388 0 9.50593 0C8.87306 0 8.26612 0.250936 7.81862 0.697606C7.37112 1.14427 7.11972 1.75009 7.11972 2.38177C7.11972 3.01346 7.37112 3.61927 7.81862 4.06594L10.908 7.12591H2.37648C1.7462 7.12591 1.14173 7.37582 0.696056 7.82067C0.250379 8.26552 0 8.86887 0 9.49798C0 10.1271 0.250379 10.7304 0.696056 11.1753C1.14173 11.6201 1.7462 11.87 2.37648 11.87H10.908L7.81862 14.93C7.59588 15.1505 7.41908 15.4129 7.29843 15.7019C7.17778 15.991 7.11567 16.301 7.11567 16.6142C7.11567 16.9273 7.17778 17.2374 7.29843 17.5264C7.41908 17.8155 7.59588 18.0778 7.81862 18.2983C8.03955 18.5207 8.30239 18.6971 8.59198 18.8176C8.88158 18.938 9.1922 19 9.50593 19C9.81965 19 10.1303 18.938 10.4199 18.8176C10.7095 18.6971 10.9723 18.5207 11.1932 18.2983L18.3227 11.1821Z" fill="#FE3FA0"/>
</svg>
