<svg width="31" height="31" viewBox="0 0 31 31" fill="none" xmlns="http://www.w3.org/2000/svg">
<path d="M1.56894 12.8436C1.22754 13.2003 0.95992 13.6208 0.781441 14.0811C0.406373 14.9941 0.406373 16.0182 0.781441 16.9311C0.95992 17.3915 1.22754 17.812 1.56894 18.1686L12.8189 29.4186C13.5251 30.1248 14.4828 30.5215 15.4814 30.5215C16.4801 30.5215 17.4378 30.1248 18.1439 29.4186C18.8501 28.7125 19.2468 27.7548 19.2468 26.7561C19.2468 25.7575 18.8501 24.7998 18.1439 24.0936L13.2689 19.2561H26.7314C27.726 19.2561 28.6798 18.861 29.3831 18.1578C30.0864 17.4545 30.4814 16.5007 30.4814 15.5061C30.4814 14.5116 30.0864 13.5577 29.3831 12.8545C28.6798 12.1512 27.726 11.7561 26.7314 11.7561L13.2689 11.7561L18.1439 6.91864C18.4954 6.57003 18.7744 6.15528 18.9648 5.6983C19.1552 5.24133 19.2532 4.75118 19.2532 4.25614C19.2532 3.76109 19.1552 3.27095 18.9648 2.81398C18.7744 2.357 18.4954 1.94225 18.1439 1.59364C17.7953 1.24216 17.3806 0.963179 16.9236 0.772797C16.4666 0.582414 15.9765 0.484394 15.4814 0.484394C14.9864 0.484394 14.4963 0.582414 14.0393 0.772797C13.5823 0.963179 13.1676 1.24216 12.8189 1.59364L1.56894 12.8436Z" fill="#FE3FA0"/>
</svg>
