<svg width="19" height="19" viewBox="0 0 19 19" fill="none" xmlns="http://www.w3.org/2000/svg">
<path d="M0.677332 7.81786C0.460975 8.04345 0.291377 8.30946 0.178269 8.60064C-0.0594215 9.17814 -0.0594215 9.8259 0.178269 10.4034C0.291377 10.6946 0.460975 10.9606 0.677332 11.1862L7.80677 18.3024C8.25427 18.7491 8.86121 19 9.49407 19C10.1269 19 10.7339 18.7491 11.1814 18.3024C11.6289 17.8557 11.8803 17.2499 11.8803 16.6182C11.8803 15.9865 11.6289 15.3807 11.1814 14.9341L8.09195 11.8741L16.6235 11.8741C17.2538 11.8741 17.8583 11.6242 18.3039 11.1793C18.7496 10.7345 19 10.1311 19 9.50202C19 8.87291 18.7496 8.26957 18.3039 7.82472C17.8583 7.37987 17.2538 7.12996 16.6235 7.12996L8.09195 7.12996L11.1814 4.06999C11.4041 3.84948 11.5809 3.58712 11.7016 3.29806C11.8222 3.00901 11.8843 2.69896 11.8843 2.38582C11.8843 2.07268 11.8222 1.76264 11.7016 1.47358C11.5809 1.18452 11.4041 0.922168 11.1814 0.701654C10.9605 0.479324 10.6976 0.302855 10.408 0.182429C10.1184 0.0620018 9.8078 -8.92299e-07 9.49407 -8.92299e-07C9.18035 -8.92299e-07 8.86973 0.0620018 8.58014 0.182429C8.29054 0.302855 8.0277 0.479324 7.80677 0.701654L0.677332 7.81786Z" fill="#FE3FA0"/>
</svg>
