<svg aria-hidden="true" style="position: absolute; width: 0; height: 0; overflow: hidden;" version="1.1" xmlns="http://www.w3.org/2000/svg" xmlns:xlink="http://www.w3.org/1999/xlink">
<defs>
<symbol id="icon-hero-image" viewBox="0 0 21 32">
<path fill="#fff" style="fill: var(--color1, #fff)" d="M1.902 0.189c-0.377 0.204-0.566 0.532-0.568 0.987-0.001 0.365 0.087 0.576 0.354 0.838s0.54 0.404 0.997 0.519l0.355 0.089 0.032 0.262c0.017 0.144 0.046 0.319 0.063 0.389s0.024 0.127 0.016 0.127-0.382-0.126-0.83-0.281c-0.997-0.344-1.328-0.389-1.654-0.227-0.347 0.172-0.492 0.429-0.513 0.91-0.016 0.365-0.009 0.397 0.148 0.636 0.117 0.177 0.246 0.295 0.437 0.397 0.265 0.142 0.289 0.145 0.901 0.129l0.629-0.017 0.109 0.203c0.338 0.631 0.928 1.149 1.505 1.321 0.286 0.085 0.908 0.082 1.198-0.006 0.111-0.034 0.111-0.030 0.111 0.503 0 1.282 0.209 2.165 1.186 5.002 0.168 0.488 0.386 1.195 0.485 1.572 0.176 0.671 0.179 0.704 0.182 1.648 0.002 0.902-0.006 0.996-0.135 1.466-0.24 0.882-0.487 1.308-1.745 3.021-0.728 0.991-1.025 1.304-1.532 1.611-0.815 0.495-1.573 0.491-2.818-0.014-0.545-0.221-0.683-0.214-0.765 0.041-0.183 0.569 0.446 1.634 1.209 2.047 0.505 0.273 0.796 0.334 1.476 0.31 0.776-0.028 1.070-0.136 1.466-0.541 0.153-0.156 0.313-0.341 0.355-0.409l0.076-0.125 0.105 0.288c0.455 1.246 0.435 3.076-0.047 4.359l-0.15 0.398 0.076 0.67c0.042 0.369 0.155 1.337 0.252 2.153s0.175 1.494 0.175 1.509c0 0.045 2.664 0.028 2.692-0.017 0.050-0.082-0.303-0.745-0.482-0.906-0.227-0.205-0.504-0.285-0.77-0.224-0.202 0.047-0.618 0.27-0.673 0.362-0.077 0.128-0.135 0.038-0.108-0.168 0.016-0.12 0.065-0.536 0.108-0.925 0.102-0.914 0.283-1.67 0.52-2.178 0.363-0.776 0.318-0.808 0.733 0.519 0.199 0.635 0.531 1.696 0.738 2.359l0.377 1.204h1.323c0.728 0 1.335-0.020 1.35-0.045 0.048-0.080-0.315-0.753-0.492-0.912-0.375-0.338-0.839-0.312-1.344 0.076l-0.158 0.121-0.028-0.216c-0.036-0.273-0.15-1.475-0.249-2.624-0.042-0.488-0.087-0.937-0.1-0.997-0.019-0.087 0.020-0.136 0.186-0.236 0.546-0.33 1.003-1.019 1.15-1.733 0.14-0.683 0.073-1.629-0.181-2.561-0.138-0.505-0.105-1.137 0.097-1.851 0.28-0.99 0.697-1.637 1.722-2.671 0.35-0.353 0.707-0.701 0.792-0.773 0.206-0.174 0.8-0.898 1.023-1.247 0.606-0.951 0.731-2.284 0.347-3.713-0.070-0.259-0.137-0.519-0.15-0.578-0.027-0.124 0.188-0.254 1.705-1.030 1.236-0.633 2.216-1.071 3.077-1.377l0.418-0.149 0.218 0.105c0.514 0.248 0.982 0.167 1.339-0.23 0.187-0.208 0.3-0.451 0.238-0.514-0.041-0.043-1.261-0.315-1.568-0.35-0.215-0.025-0.471 0.013-1.212 0.176-0.517 0.114-1.207 0.265-1.534 0.336s-1.087 0.237-1.689 0.37c-0.602 0.132-1.087 0.217-1.077 0.187s0.309-1.009 0.664-2.177c0.355-1.168 0.667-2.163 0.692-2.211s0.179-0.137 0.343-0.198c0.642-0.24 0.835-0.84 0.549-1.704-0.046-0.139-0.112-0.254-0.146-0.254s-0.356 0.262-0.716 0.583c-0.632 0.563-0.665 0.603-0.96 1.147-0.744 1.375-1.909 3.168-2.415 3.718l-0.303 0.33-0.364-0.35c-0.384-0.369-0.933-0.99-0.933-1.056-0-0.021-0.052-0.124-0.115-0.228-0.521-0.86-0.416-1.414 0.341-1.812 0.53-0.278 1.502-0.936 1.95-1.319 0.672-0.575 1.039-1.129 1.039-1.571 0-0.392-0.341-1.273-0.635-1.639l-0.135-0.168-0.32 0.185c-0.176 0.102-0.342 0.204-0.37 0.226-0.087 0.072-1.616 0.922-1.628 0.905-0.006-0.009-0.077-0.125-0.156-0.257-0.139-0.231-0.154-0.241-0.374-0.241-0.288-0-1.029 0.129-1.355 0.236-0.423 0.139-0.941 0.42-1.26 0.683l-0.306 0.252-0.388-0.101c-0.867-0.225-1.411-0.586-2.353-1.563-0.685-0.711-0.953-0.877-1.408-0.875-0.15 0.001-0.339 0.038-0.421 0.082zM9.937 6.099c-0.177 0.066-0.29 0.244-0.291 0.461-0.002 0.424 0.495 0.61 0.761 0.285 0.162-0.197 0.164-0.401 0.005-0.595-0.137-0.167-0.296-0.218-0.475-0.151z"></path>
<path fill="#472179" style="fill: var(--color2, #472179)" d="M17.748 8.607c-1.122 0.301-4.066 0.879-4.282 0.927-0.1 0.022-0.11 0.060-0.143 0.083s-0.339 0.786-0.56 1.634c-0.254 0.98-0.478 1.718-0.612 2.026-0.417 0.952-0.967 1.623-2.314 2.826-1.030 0.919-1.389 1.341-1.647 1.934-0.169 0.39-0.193 0.496-0.199 0.912-0.008 0.538 0.073 0.985 0.287 1.567 0.19 0.518 0.646 1.391 1.087 2.080l0.345 0.539 0.044-0.582c0.056-0.738 0.166-1.228 0.406-1.804 0.315-0.758 0.621-1.166 2.003-2.674 1.122-1.224 1.452-1.768 1.641-2.705 0.085-0.421 0.090-0.568 0.040-1.215-0.046-0.6 0.007-0.851-0.147-1.361-0.104-0.344-0.201-0.672-0.217-0.729-0.019-0.071 0.009-0.125 0.088-0.17 0.064-0.036 0.567-0.294 1.292-0.71 1.452-0.624 2.354-1.093 3.211-1.439l0.608-0.245 0.288 0.138c0.47 0.257 0.91 0.081 1.216-0.239 0.189-0.198 0.375-0.514 0.328-0.558-0.050-0.047-1.646-0.465-1.819-0.455-0.085 0.005-0.509 0.104-0.943 0.22z"></path>
<path fill="#472179" style="fill: var(--color2, #472179)" d="M5.75 7.985c1.114-0.1 2.597-0.644 3.361-1.232 0.283-0.218 0.322-0.231 0.325-0.112 0.001 0.047 0.088 0.236 0.192 0.42l0.19 0.333-0.134 0.115c-0.229 0.197-0.876 0.595-1.251 0.77-0.804 0.374-2.201 0.722-2.786 0.694l-0.213-0.010-0.069-0.334c-0.131-0.631-0.151-0.597 0.385-0.645z"></path>
<path fill="#472179" style="fill: var(--color2, #472179)" d="M9.724 6.886c-0.154-0.158-0.142-0.513 0.024-0.694 0.287-0.313 0.807-0.085 0.807 0.353 0 0.284-0.288 0.54-0.547 0.487-0.098-0.020-0.226-0.086-0.285-0.147z"></path>
<path fill="#472179" style="fill: var(--color2, #472179)" d="M1.218 1.51c-0.184-0.494 0.059-1.143 0.517-1.381 0.155-0.080 0.336-0.124 0.513-0.124 0.433 0 0.755 0.201 1.387 0.865 0.302 0.317 0.726 0.724 0.943 0.905 0.455 0.378 1.179 0.681 1.673 0.798 0.188 0.045 0.204 0.042 0.217 0.055 0.021 0.021 0.064 0.37-0.274 0.819-0.103 0.137-0.255 0.391-1.159 0.391-0.976 0-1.757-0.265-1.881-0.435-0.035-0.049-0.044-0.12-0.079-0.344-0.059-0.373-0.076-0.411-0.205-0.438-0.874-0.188-1.456-0.578-1.654-1.111z"></path>
<path fill="#472179" style="fill: var(--color2, #472179)" d="M11.593 1c0.009-0.008 0.164-0.099 0.344-0.201s0.332-0.186 0.336-0.187c0.005-0 0.101 0.144 0.214 0.321 0.239 0.375 0.215 0.448-0.162 0.491-0.174 0.020-0.273-0-0.424-0.087-0.174-0.1-0.353-0.296-0.308-0.337z"></path>
</symbol>
<symbol id="icon-paw" viewBox="0 0 28 32">
<path d="M12.52 1.132c-0.967 0.991-0.974 1.257-0.137 4.836 0.765 3.271 1.552 4.735 3.060 5.69 1.52 0.963 2.369 0.858 3.646-0.451 0.959-0.983 1.108-1.355 1.102-2.757-0.013-2.933-2.020-6.13-4.675-7.447-1.771-0.879-2.022-0.868-2.995 0.129zM7.069 2.346c-0.316 0.188-0.971 1.124-1.456 2.079-1.804 3.552-0.843 8.303 1.963 9.709 1.067 0.534 1.375 0.561 2.242 0.193 1.121-0.476 2.208-2.498 2.22-4.132 0.010-1.402-1.23-5.916-1.967-7.158-0.662-1.116-1.837-1.386-3.003-0.69zM21.327 6.233c-0.937 2.023-1.018 5.351-0.179 7.296 0.896 2.077 1.465 2.709 2.858 3.181 3.355 1.135 4.835-2.543 3.022-7.509-0.941-2.577-2.483-4.209-3.979-4.209-1.003 0-1.219 0.156-1.722 1.242zM0.606 11.759c-0.585 0.949-0.644 1.425-0.47 3.76 0.263 3.537 1.312 5.955 2.926 6.744 1.493 0.729 2.657 0.35 3.675-1.199 1.506-2.291 0.555-6.114-2.26-9.088-1.622-1.713-2.904-1.785-3.87-0.217zM13.839 15.113c-2.564 0.876-5.898 4.261-6.936 7.041-1.225 3.282-0.791 5.789 1.409 8.143 1.147 1.227 1.529 1.432 2.664 1.432 1.065 0 1.634-0.262 2.901-1.335 2.303-1.951 4.088-2.461 7.608-2.176 3.464 0.281 4.065 0.029 4.978-2.088 1.195-2.77 0.207-6.362-2.313-8.407-2.916-2.368-7.574-3.547-10.311-2.611z"></path>
</symbol>
<symbol id="icon-home-hero-btn-text" viewBox="0 0 32 32">
<path fill="#ffdfe5" style="fill: var(--color1, #ffdfe5)" d="M25.502 17.154c0.025-0.292 0.099-0.512 0.223-0.658s0.307-0.209 0.549-0.188l0.001 0.428-0.001 0.178-0.082-0.007c-0.070-0.006-0.133 0.014-0.188 0.059s-0.087 0.115-0.095 0.21c-0.005 0.064-0.001 0.117 0.012 0.161 0.015 0.022 0.043 0.034 0.081 0.037 0.084 0.007 0.156-0.010 0.216-0.052 0.060-0.040 0.096-0.112 0.11-0.214l0.052-0.332 0.182 0.016-0.007 0.335c-0.004 0.101 0.021 0.177 0.075 0.227s0.12 0.078 0.2 0.085c0.025 0.002 0.048-0.003 0.069-0.015 0.023-0.051 0.037-0.103 0.041-0.156 0.009-0.103-0.011-0.179-0.061-0.228-0.049-0.048-0.106-0.075-0.169-0.080l-0.082-0.007 0.029-0.176 0.073-0.421c0.239 0.020 0.408 0.111 0.505 0.273 0.097 0.163 0.134 0.39 0.109 0.681-0.009 0.107-0.035 0.217-0.077 0.329s-0.104 0.205-0.183 0.278c-0.080 0.073-0.176 0.105-0.288 0.095-0.107-0.009-0.188-0.036-0.242-0.082s-0.089-0.102-0.105-0.171c-0.015-0.069-0.019-0.151-0.014-0.248l-0.051-0.004c-0.011 0.098-0.031 0.179-0.058 0.244-0.028 0.067-0.073 0.117-0.135 0.153-0.061 0.037-0.145 0.051-0.253 0.042-0.115-0.010-0.207-0.058-0.277-0.146-0.068-0.087-0.114-0.191-0.138-0.31-0.023-0.118-0.030-0.23-0.021-0.338z"></path>
<path fill="#ffdfe5" style="fill: var(--color1, #ffdfe5)" d="M26.758 19.856c-0.125-0.039-0.412-0.119-0.861-0.241s-0.736-0.197-0.863-0.227l0.151-0.558c0.205 0.062 0.446 0.131 0.725 0.206l0.131-0.483c-0.223-0.060-0.466-0.125-0.729-0.193l0.151-0.558c0.317 0.094 0.603 0.176 0.858 0.245s0.543 0.143 0.866 0.223l-0.151 0.558c-0.264-0.075-0.494-0.139-0.688-0.191l-0.131 0.484c0.25 0.068 0.481 0.127 0.692 0.178l-0.151 0.558z"></path>
<path fill="#ffdfe5" style="fill: var(--color1, #ffdfe5)" d="M24.571 20.36c0.103 0.023 0.172 0.039 0.208 0.047 0.018 0.005 0.039 0.009 0.061 0.013 0.023 0.006 0.049 0.012 0.077 0.018l0.1-0.217 0.099-0.215-0.281-0.218 0.248-0.535 0.405 0.317c0.524 0.411 0.871 0.68 1.042 0.808l-0.417 0.901c-0.33-0.074-0.929-0.198-1.796-0.372l0.253-0.546zM25.207 20.502c0.416 0.093 0.729 0.179 0.939 0.257l0.013-0.028c-0.217-0.13-0.485-0.312-0.804-0.548l-0.148 0.319z"></path>
<path fill="#ffdfe5" style="fill: var(--color1, #ffdfe5)" d="M23.631 21.863c0.223 0.161 0.479 0.341 0.768 0.54 0.175 0.12 0.272 0.188 0.292 0.204l0.020-0.029c-0.12-0.12-0.23-0.245-0.331-0.373l-0.505-0.695 0.433-0.628c0.233 0.168 0.479 0.341 0.739 0.52 0.258 0.178 0.502 0.342 0.732 0.493l-0.301 0.438c-0.384-0.276-0.658-0.47-0.821-0.583-0.111-0.076-0.187-0.13-0.23-0.161l-0.017 0.025c0.056 0.059 0.132 0.147 0.228 0.263l0.597 0.809-0.432 0.627c-0.24-0.175-0.459-0.331-0.658-0.468-0.278-0.191-0.548-0.373-0.812-0.545l0.3-0.436zM25.531 23.302c-0.201-0.146-0.227-0.327-0.078-0.543 0.141-0.204 0.318-0.243 0.531-0.115l-0.078 0.146c-0.036-0.025-0.076-0.027-0.119-0.005-0.042 0.022-0.083 0.062-0.123 0.12-0.043 0.062-0.067 0.116-0.073 0.163-0.005 0.049 0.010 0.086 0.046 0.111l-0.107 0.122z"></path>
<path fill="#ffdfe5" style="fill: var(--color1, #ffdfe5)" d="M23.202 22.369c0.23 0.227 0.438 0.429 0.624 0.605 0.12 0.114 0.239 0.224 0.357 0.331 0.082-0.087 0.183-0.198 0.3-0.332l0.32 0.302-1.014 1.074-0.32-0.302c0.116-0.114 0.222-0.222 0.318-0.324-0.075-0.075-0.205-0.199-0.388-0.373-0.2-0.189-0.399-0.374-0.599-0.556l0.402-0.426z"></path>
<path fill="#ffdfe5" style="fill: var(--color1, #ffdfe5)" d="M21.475 23.913c0.163 0.221 0.352 0.471 0.567 0.748 0.13 0.168 0.202 0.262 0.216 0.283l0.028-0.021c-0.077-0.151-0.145-0.303-0.202-0.456l-0.269-0.816 0.604-0.467c0.171 0.231 0.352 0.471 0.545 0.721 0.192 0.248 0.374 0.479 0.547 0.692l-0.42 0.325c-0.282-0.38-0.483-0.648-0.605-0.805-0.082-0.106-0.139-0.181-0.17-0.224l-0.024 0.019c0.035 0.073 0.081 0.18 0.138 0.32l0.322 0.952-0.602 0.465c-0.175-0.239-0.337-0.455-0.485-0.646-0.206-0.267-0.409-0.522-0.608-0.767l0.418-0.324z"></path>
<path fill="#ffdfe5" style="fill: var(--color1, #ffdfe5)" d="M19.067 25.581c-0.071-0.173-0.159-0.378-0.265-0.612l0.397-0.179 0.114 0.254 0.995-0.447c-0.021-0.050-0.058-0.136-0.112-0.255l0.397-0.179c0.050 0.111 0.096 0.212 0.139 0.304 0.044 0.093 0.092 0.193 0.145 0.299l-0.184 0.083c-0.027 0.096-0.030 0.194-0.009 0.294s0.062 0.218 0.124 0.355c0.126 0.28 0.233 0.509 0.322 0.687l-1.311 0.589c-0.070-0.172-0.19-0.444-0.357-0.817-0.092-0.204-0.161-0.357-0.209-0.46l-0.186 0.084zM19.765 25.267c0.045 0.105 0.114 0.259 0.206 0.464 0.091 0.202 0.16 0.354 0.208 0.456l0.476-0.214c-0.034-0.079-0.080-0.184-0.139-0.315-0.063-0.14-0.104-0.266-0.125-0.38-0.020-0.113-0.011-0.214 0.027-0.305l-0.653 0.294z"></path>
<path fill="#ffdfe5" style="fill: var(--color1, #ffdfe5)" d="M18.833 25.193c0.084 0.359 0.153 0.649 0.206 0.87 0.053 0.22 0.125 0.508 0.215 0.866l-0.876 0.213c-0.241 0.059-0.434 0.050-0.58-0.026-0.147-0.075-0.247-0.225-0.302-0.449-0.039-0.162-0.052-0.298-0.039-0.407 0.014-0.108 0.057-0.195 0.129-0.263s0.176-0.117 0.313-0.151c0.074-0.018 0.134-0.030 0.179-0.036 0.044-0.006 0.080-0.006 0.108 0 0.055 0.003 0.101 0.020 0.138 0.053 0.036 0.035 0.072 0.084 0.11 0.147l0.030-0.015c-0.037-0.073-0.064-0.144-0.081-0.214-0.054-0.221-0.093-0.372-0.117-0.451l0.564-0.137zM18.245 26.126c-0.083 0.020-0.142 0.059-0.176 0.117-0.034 0.060-0.037 0.145-0.010 0.258 0.027 0.109 0.068 0.181 0.125 0.215s0.129 0.041 0.217 0.020l0.207-0.050-0.148-0.612-0.214 0.052z"></path>
<path fill="#ffdfe5" style="fill: var(--color1, #ffdfe5)" d="M15.931 27.42l0.226-1.386c0.017-0.15 0.053-0.261 0.108-0.332 0.054-0.070 0.141-0.11 0.261-0.119l0.819-0.063 0.031 0.397-0.602 0.047-0.076 0.386 0.054-0.004c0.014-0.078 0.044-0.134 0.088-0.169s0.112-0.056 0.204-0.063c0.065-0.005 0.125 0.011 0.177 0.047s0.088 0.086 0.105 0.149l0.324 0.978-0.602 0.047-0.303-0.913-0.051 0.004-0.157 0.949-0.607 0.047z"></path>
<path fill="#ffdfe5" style="fill: var(--color1, #ffdfe5)" d="M15.954 25.604c-0.018 0.197-0.040 0.493-0.064 0.887-0.025 0.397-0.040 0.696-0.046 0.895l-1.206-0.075 0.026-0.428c0.14 0.015 0.349 0.031 0.628 0.048 0.013-0.141 0.029-0.363 0.048-0.663 0.019-0.312 0.031-0.545 0.036-0.701l0.577 0.036z"></path>
<path fill="#ffdfe5" style="fill: var(--color1, #ffdfe5)" d="M13.727 25.314c0 0.105 0 0.176 0.001 0.213-0.001 0.019-0 0.040 0.001 0.062-0 0.024-0 0.050 0 0.079l0.465 0.098 0.149-0.323 0.577 0.122-0.218 0.466c-0.283 0.602-0.468 1.001-0.553 1.197l-0.971-0.205c-0.002-0.339-0.015-0.95-0.040-1.834l0.589 0.124zM13.731 25.966c0.003 0.426-0.011 0.751-0.040 0.972l0.030 0.006c0.078-0.24 0.196-0.543 0.354-0.906l-0.344-0.072z"></path>
<path fill="#ffdfe5" style="fill: var(--color1, #ffdfe5)" d="M12.658 25.634c0.006 0.050-0 0.097-0.019 0.142-0.025 0.061-0.066 0.105-0.122 0.134-0.058 0.030-0.115 0.033-0.171 0.009-0.040-0.017-0.082-0.045-0.124-0.085-0.043-0.038-0.098-0.098-0.164-0.178-0.034-0.036-0.065-0.060-0.094-0.072-0.024-0.010-0.050-0.006-0.076 0.011-0.027 0.019-0.046 0.041-0.059 0.067l-0.337-0.068c-0.006-0.051 0.002-0.101 0.021-0.148 0.025-0.059 0.064-0.102 0.117-0.129 0.052-0.027 0.106-0.029 0.162-0.006 0.076 0.032 0.177 0.119 0.302 0.261 0.019 0.020 0.038 0.036 0.058 0.050 0.019 0.015 0.035 0.024 0.047 0.027 0.025 0.009 0.050 0.002 0.074-0.020s0.043-0.046 0.055-0.071l0.329 0.074z"></path>
<path fill="#ffdfe5" style="fill: var(--color1, #ffdfe5)" d="M10.447 23.746c0.243 0.165 0.398 0.337 0.465 0.516s0.032 0.37-0.105 0.571l-0.374-0.208-0.155-0.088 0.046-0.068c0.039-0.058 0.053-0.123 0.040-0.193s-0.058-0.133-0.137-0.186c-0.053-0.036-0.102-0.059-0.146-0.068-0.026 0.003-0.051 0.020-0.072 0.053-0.047 0.070-0.067 0.141-0.060 0.214 0.006 0.072 0.050 0.139 0.133 0.2l0.264 0.207-0.102 0.151-0.289-0.171c-0.087-0.053-0.165-0.068-0.235-0.046s-0.127 0.067-0.172 0.132c-0.014 0.021-0.021 0.043-0.021 0.068 0.033 0.045 0.072 0.083 0.116 0.113 0.085 0.058 0.162 0.077 0.229 0.059 0.066-0.019 0.117-0.055 0.153-0.108l0.046-0.068 0.139 0.111 0.332 0.27c-0.135 0.199-0.297 0.301-0.486 0.307-0.19 0.005-0.406-0.075-0.647-0.238-0.089-0.060-0.172-0.137-0.249-0.229s-0.128-0.191-0.153-0.296c-0.025-0.105-0.005-0.205 0.058-0.298 0.060-0.089 0.124-0.146 0.19-0.171s0.133-0.028 0.201-0.008c0.067 0.021 0.141 0.057 0.223 0.109l0.029-0.043c-0.080-0.058-0.141-0.115-0.184-0.17-0.045-0.057-0.067-0.121-0.067-0.193-0.002-0.072 0.027-0.152 0.087-0.241 0.065-0.096 0.152-0.152 0.262-0.17 0.109-0.016 0.222-0.006 0.338 0.031 0.114 0.038 0.216 0.087 0.305 0.147z"></path>
<path fill="#ffdfe5" style="fill: var(--color1, #ffdfe5)" d="M7.49 23.532c0.095-0.090 0.305-0.302 0.63-0.634s0.531-0.547 0.619-0.642l0.413 0.404c-0.154 0.148-0.332 0.326-0.534 0.532l0.358 0.35c0.162-0.165 0.336-0.346 0.524-0.542l0.413 0.404c-0.237 0.231-0.448 0.441-0.632 0.629s-0.39 0.404-0.617 0.647l-0.413-0.404c0.194-0.194 0.362-0.363 0.503-0.507l-0.358-0.35c-0.181 0.185-0.345 0.357-0.493 0.517l-0.413-0.404z"></path>
<path fill="#ffdfe5" style="fill: var(--color1, #ffdfe5)" d="M8.113 21.375c-0.070 0.078-0.118 0.131-0.142 0.159-0.013 0.014-0.027 0.029-0.041 0.047-0.016 0.018-0.034 0.037-0.053 0.059l0.28 0.384 0.327-0.139 0.347 0.477-0.474 0.2c-0.614 0.257-1.018 0.43-1.213 0.517l-0.584-0.803c0.225-0.253 0.625-0.715 1.199-1.388l0.354 0.486zM7.679 21.861c-0.284 0.318-0.511 0.55-0.681 0.695l0.018 0.025c0.219-0.126 0.509-0.272 0.87-0.436l-0.207-0.284z"></path>
<path fill="#ffdfe5" style="fill: var(--color1, #ffdfe5)" d="M7.258 19.827c-0.249 0.116-0.531 0.252-0.845 0.408-0.19 0.094-0.297 0.146-0.32 0.156l0.016 0.032c0.163-0.046 0.326-0.082 0.487-0.108l0.853-0.103 0.339 0.684c-0.26 0.122-0.531 0.253-0.814 0.392-0.281 0.139-0.543 0.272-0.787 0.4l-0.236-0.476c0.428-0.201 0.731-0.346 0.908-0.434 0.12-0.060 0.205-0.1 0.253-0.123l-0.013-0.027c-0.079 0.020-0.192 0.044-0.341 0.072l-0.997 0.128-0.338-0.682c0.269-0.125 0.512-0.241 0.729-0.348 0.302-0.149 0.593-0.298 0.872-0.445l0.235 0.474zM5.077 20.787c0.225-0.105 0.396-0.039 0.512 0.196 0.11 0.222 0.057 0.396-0.158 0.52l-0.090-0.139c0.039-0.019 0.060-0.053 0.062-0.101 0.001-0.047-0.014-0.103-0.045-0.166-0.033-0.067-0.069-0.115-0.107-0.143-0.040-0.029-0.080-0.033-0.119-0.014l-0.055-0.153z"></path>
<path fill="#ffdfe5" style="fill: var(--color1, #ffdfe5)" d="M7.022 19.203c-0.311 0.089-0.588 0.171-0.833 0.248-0.158 0.049-0.312 0.099-0.463 0.149 0.036 0.115 0.083 0.256 0.142 0.424l-0.42 0.131-0.44-1.41 0.42-0.131c0.042 0.157 0.085 0.302 0.126 0.436 0.102-0.029 0.274-0.081 0.515-0.156 0.262-0.082 0.521-0.165 0.778-0.25l0.174 0.559z"></path>
<path fill="#ffdfe5" style="fill: var(--color1, #ffdfe5)" d="M6.522 16.955c-0.273 0.034-0.583 0.076-0.93 0.128-0.21 0.031-0.327 0.047-0.352 0.050l0.005 0.035c0.17 0.006 0.335 0.022 0.497 0.047l0.843 0.164 0.111 0.755c-0.285 0.036-0.583 0.077-0.895 0.123-0.31 0.046-0.601 0.092-0.872 0.138l-0.077-0.526c0.469-0.060 0.802-0.104 0.998-0.133 0.133-0.020 0.226-0.032 0.278-0.039l-0.004-0.030c-0.081-0.005-0.197-0.017-0.346-0.036l-0.988-0.186-0.111-0.753c0.295-0.036 0.561-0.071 0.801-0.106 0.333-0.049 0.656-0.101 0.966-0.154l0.077 0.523z"></path>
<path fill="#ffdfe5" style="fill: var(--color1, #ffdfe5)" d="M6.242 14.033c0.186 0.023 0.407 0.046 0.664 0.068l-0.039 0.434-0.277-0.025-0.097 1.087c0.054 0.006 0.147 0.015 0.277 0.027l-0.039 0.434c-0.121-0.011-0.232-0.020-0.334-0.027-0.103-0.008-0.213-0.014-0.332-0.020l0.018-0.2c-0.071-0.071-0.155-0.121-0.252-0.152s-0.221-0.053-0.37-0.066c-0.306-0.027-0.558-0.046-0.757-0.056l0.127-1.432c0.184 0.023 0.48 0.052 0.888 0.088 0.222 0.020 0.39 0.034 0.504 0.043l0.018-0.203zM6.174 14.795c-0.113-0.012-0.282-0.027-0.506-0.047-0.221-0.020-0.387-0.034-0.499-0.042l-0.046 0.52c0.085 0.009 0.2 0.020 0.343 0.033 0.152 0.014 0.283 0.039 0.393 0.077 0.108 0.038 0.192 0.095 0.253 0.173l0.063-0.713z"></path>
<path fill="#ffdfe5" style="fill: var(--color1, #ffdfe5)" d="M6.691 14.007c-0.354-0.102-0.641-0.184-0.86-0.245-0.218-0.061-0.505-0.139-0.86-0.235l0.242-0.868c0.067-0.239 0.168-0.403 0.305-0.493 0.137-0.091 0.317-0.106 0.54-0.044 0.161 0.045 0.286 0.1 0.374 0.165 0.087 0.065 0.143 0.145 0.166 0.241s0.016 0.211-0.021 0.346c-0.021 0.074-0.039 0.132-0.056 0.174-0.016 0.041-0.034 0.072-0.053 0.095-0.029 0.047-0.067 0.078-0.114 0.095-0.048 0.014-0.108 0.022-0.182 0.024l-0.002 0.033c0.082 0.003 0.157 0.015 0.226 0.034 0.219 0.061 0.37 0.101 0.451 0.118l-0.156 0.559zM6.164 13.038c0.023-0.083 0.018-0.153-0.016-0.211-0.035-0.059-0.109-0.103-0.22-0.134-0.108-0.030-0.191-0.029-0.249 0.003s-0.099 0.092-0.123 0.18l-0.057 0.205 0.607 0.169 0.059-0.212z"></path>
<path fill="#ffdfe5" style="fill: var(--color1, #ffdfe5)" d="M6.162 10.39l1.099 0.875c0.123 0.088 0.202 0.173 0.237 0.257 0.035 0.081 0.027 0.176-0.024 0.286l-0.345 0.746-0.361-0.167 0.254-0.548-0.3-0.255-0.023 0.049c0.061 0.051 0.096 0.104 0.104 0.159s-0.006 0.125-0.045 0.209c-0.028 0.059-0.070 0.103-0.128 0.132s-0.118 0.035-0.182 0.019l-1.011-0.195 0.254-0.548 0.945 0.182 0.022-0.047-0.751-0.601 0.256-0.552z"></path>
<path fill="#ffdfe5" style="fill: var(--color1, #ffdfe5)" d="M7.716 11.325c-0.163-0.113-0.41-0.276-0.742-0.491-0.334-0.216-0.587-0.376-0.758-0.479l0.656-1.014 0.36 0.233c-0.082 0.115-0.198 0.289-0.35 0.524 0.117 0.081 0.302 0.203 0.554 0.367 0.262 0.169 0.46 0.295 0.594 0.375l-0.314 0.486z"></path>
<path fill="#ffdfe5" style="fill: var(--color1, #ffdfe5)" d="M9.048 9.527c-0.092-0.051-0.154-0.086-0.186-0.103-0.016-0.010-0.035-0.020-0.055-0.029-0.021-0.012-0.044-0.025-0.069-0.038l-0.312 0.358 0.209 0.288-0.387 0.445-0.301-0.417c-0.388-0.541-0.647-0.896-0.776-1.066l0.652-0.749c0.297 0.163 0.837 0.449 1.621 0.859l-0.395 0.454zM8.478 9.213c-0.374-0.205-0.65-0.375-0.83-0.508l-0.020 0.023c0.172 0.185 0.379 0.435 0.619 0.75l0.231-0.265z"></path>
<path fill="#ffdfe5" style="fill: var(--color1, #ffdfe5)" d="M9.289 8.43c-0.047-0.019-0.085-0.047-0.115-0.086-0.040-0.052-0.060-0.109-0.058-0.172 0.002-0.065 0.027-0.117 0.075-0.154 0.034-0.027 0.079-0.049 0.135-0.067 0.055-0.019 0.133-0.038 0.235-0.057 0.048-0.012 0.084-0.028 0.109-0.047 0.021-0.016 0.030-0.040 0.027-0.072-0.004-0.033-0.014-0.061-0.030-0.084l0.223-0.262c0.048 0.020 0.087 0.051 0.119 0.091 0.040 0.050 0.058 0.105 0.055 0.165-0.002 0.059-0.026 0.107-0.074 0.144-0.065 0.051-0.19 0.097-0.375 0.136-0.026 0.007-0.050 0.016-0.072 0.026-0.022 0.010-0.038 0.019-0.047 0.028-0.020 0.018-0.026 0.042-0.019 0.074s0.019 0.060 0.035 0.083l-0.225 0.251z"></path>
<path fill="#ffdfe5" style="fill: var(--color1, #ffdfe5)" d="M12.013 7.409c-0.262 0.132-0.488 0.184-0.677 0.155s-0.339-0.152-0.448-0.369l0.364-0.225 0.152-0.093 0.037 0.073c0.032 0.063 0.081 0.106 0.149 0.129s0.144 0.014 0.229-0.029c0.057-0.029 0.101-0.060 0.131-0.095 0.010-0.024 0.007-0.054-0.011-0.089-0.038-0.075-0.091-0.127-0.158-0.157-0.066-0.030-0.146-0.024-0.24 0.019l-0.309 0.13-0.082-0.163 0.289-0.17c0.088-0.050 0.14-0.111 0.154-0.183s0.004-0.143-0.032-0.215c-0.011-0.022-0.028-0.039-0.049-0.051-0.056 0.007-0.107 0.023-0.155 0.047-0.092 0.046-0.146 0.103-0.163 0.171-0.015 0.067-0.008 0.129 0.021 0.186l0.037 0.073-0.165 0.068-0.397 0.158c-0.108-0.215-0.119-0.406-0.032-0.574 0.088-0.168 0.262-0.318 0.523-0.45 0.096-0.048 0.203-0.084 0.321-0.107s0.229-0.019 0.333 0.010c0.104 0.030 0.181 0.095 0.232 0.195 0.048 0.096 0.068 0.179 0.057 0.249s-0.040 0.13-0.090 0.179c-0.051 0.048-0.119 0.096-0.204 0.142l0.023 0.046c0.089-0.042 0.169-0.068 0.238-0.078 0.071-0.011 0.138 0 0.201 0.035 0.064 0.033 0.12 0.097 0.168 0.193 0.052 0.103 0.059 0.207 0.021 0.312-0.039 0.103-0.103 0.197-0.192 0.28-0.088 0.081-0.181 0.146-0.277 0.195z"></path>
<path fill="#ffdfe5" style="fill: var(--color1, #ffdfe5)" d="M13.658 4.919c0.033 0.127 0.115 0.414 0.247 0.86s0.218 0.73 0.259 0.853l-0.555 0.164c-0.055-0.207-0.123-0.449-0.205-0.726l-0.48 0.142c0.065 0.221 0.138 0.462 0.218 0.722l-0.555 0.164c-0.086-0.319-0.167-0.606-0.242-0.859s-0.163-0.538-0.265-0.854l0.555-0.164c0.075 0.264 0.141 0.493 0.198 0.686l0.48-0.142c-0.073-0.248-0.144-0.476-0.211-0.682l0.554-0.164z"></path>
<path fill="#ffdfe5" style="fill: var(--color1, #ffdfe5)" d="M15.205 6.519c-0.034-0.1-0.057-0.167-0.069-0.202-0.005-0.018-0.012-0.038-0.021-0.059-0.007-0.023-0.016-0.048-0.025-0.075l-0.472 0.057-0.038 0.353-0.586 0.070 0.056-0.511c0.075-0.661 0.121-1.098 0.14-1.311l0.986-0.118c0.111 0.32 0.32 0.895 0.627 1.724l-0.597 0.072zM14.993 5.903c-0.14-0.403-0.231-0.714-0.275-0.934l-0.030 0.004c0.004 0.253-0.011 0.577-0.044 0.972l0.349-0.042z"></path>
<path fill="#ffdfe5" style="fill: var(--color1, #ffdfe5)" d="M16.992 6.523c0.020-0.274 0.039-0.586 0.056-0.937 0.011-0.212 0.017-0.33 0.020-0.355l-0.035-0.002c-0.040 0.165-0.087 0.325-0.144 0.478l-0.326 0.795-0.762-0.038c0.021-0.286 0.039-0.587 0.055-0.902 0.016-0.313 0.027-0.607 0.035-0.882l0.531 0.027c-0.033 0.472-0.055 0.807-0.064 1.005-0.007 0.134-0.012 0.228-0.016 0.28l0.030 0.002c0.021-0.079 0.056-0.189 0.103-0.332l0.375-0.933 0.76 0.038c-0.023 0.296-0.040 0.564-0.052 0.806-0.017 0.337-0.029 0.663-0.037 0.978l-0.528-0.027zM17.219 4.151c-0.019 0.247-0.159 0.365-0.421 0.352-0.248-0.012-0.373-0.143-0.377-0.392l0.165-0.010c-0.002 0.044 0.017 0.078 0.058 0.104 0.041 0.024 0.097 0.038 0.167 0.041 0.075 0.004 0.134-0.004 0.177-0.024 0.045-0.021 0.068-0.054 0.070-0.097l0.16 0.027z"></path>
<path fill="#ffdfe5" style="fill: var(--color1, #ffdfe5)" d="M17.683 6.622c0.074-0.314 0.138-0.597 0.19-0.847 0.034-0.162 0.066-0.321 0.096-0.477-0.118-0.025-0.264-0.052-0.439-0.083l0.091-0.431 1.445 0.304-0.091 0.431c-0.158-0.040-0.305-0.074-0.442-0.103-0.025 0.103-0.063 0.279-0.116 0.526-0.057 0.269-0.11 0.536-0.161 0.801l-0.573-0.121z"></path>
<path fill="#ffdfe5" style="fill: var(--color1, #ffdfe5)" d="M19.86 7.269c0.103-0.255 0.217-0.546 0.342-0.874 0.075-0.198 0.118-0.309 0.128-0.332l-0.033-0.012c-0.088 0.145-0.183 0.282-0.284 0.411l-0.554 0.656-0.713-0.271c0.108-0.266 0.218-0.547 0.329-0.841 0.111-0.293 0.213-0.569 0.304-0.828l0.497 0.189c-0.177 0.439-0.3 0.751-0.37 0.936-0.048 0.125-0.082 0.213-0.102 0.262l0.029 0.011c0.044-0.068 0.111-0.163 0.201-0.284l0.644-0.772 0.711 0.27c-0.112 0.274-0.212 0.525-0.297 0.751-0.12 0.315-0.232 0.622-0.336 0.919l-0.495-0.188z"></path>
<path fill="#ffdfe5" style="fill: var(--color1, #ffdfe5)" d="M22.599 8.484c-0.111 0.151-0.24 0.332-0.386 0.544l-0.359-0.247 0.158-0.229-0.898-0.619c-0.032 0.044-0.086 0.12-0.16 0.228l-0.359-0.247c0.069-0.1 0.132-0.193 0.188-0.277 0.057-0.086 0.117-0.179 0.181-0.279l0.166 0.114c0.096-0.027 0.181-0.075 0.256-0.145s0.154-0.166 0.239-0.29c0.174-0.253 0.315-0.464 0.421-0.631l1.184 0.816c-0.11 0.149-0.282 0.392-0.514 0.729-0.127 0.184-0.222 0.323-0.285 0.418l0.168 0.116zM21.969 8.050c0.066-0.093 0.163-0.232 0.29-0.417 0.126-0.183 0.22-0.32 0.282-0.414l-0.43-0.296c-0.050 0.070-0.116 0.164-0.197 0.282-0.087 0.126-0.174 0.227-0.26 0.304-0.086 0.075-0.178 0.12-0.275 0.135l0.59 0.406z"></path>
<path fill="#ffdfe5" style="fill: var(--color1, #ffdfe5)" d="M22.366 8.858c0.262-0.259 0.473-0.47 0.633-0.631 0.159-0.161 0.368-0.373 0.625-0.636l0.64 0.635c0.176 0.175 0.27 0.344 0.282 0.507 0.013 0.164-0.062 0.329-0.225 0.492-0.118 0.118-0.227 0.201-0.327 0.246-0.099 0.044-0.196 0.054-0.291 0.028s-0.192-0.089-0.292-0.188c-0.054-0.054-0.096-0.098-0.125-0.134-0.028-0.034-0.047-0.065-0.057-0.092-0.027-0.048-0.036-0.097-0.027-0.146 0.011-0.049 0.033-0.105 0.067-0.171l-0.028-0.018c-0.043 0.070-0.090 0.13-0.14 0.181-0.161 0.162-0.268 0.274-0.323 0.336l-0.412-0.409zM23.469 8.87c0.061 0.060 0.125 0.090 0.192 0.089 0.068-0.002 0.143-0.045 0.225-0.127 0.079-0.080 0.119-0.153 0.118-0.219s-0.032-0.131-0.097-0.195l-0.151-0.15-0.444 0.447 0.156 0.155z"></path>
<path fill="#ffdfe5" style="fill: var(--color1, #ffdfe5)" d="M25.795 10.171l-1.299 0.534c-0.136 0.065-0.25 0.092-0.34 0.082-0.088-0.009-0.167-0.063-0.238-0.16l-0.483-0.664 0.322-0.234 0.355 0.488 0.369-0.138-0.032-0.044c-0.074 0.029-0.137 0.033-0.19 0.014s-0.106-0.066-0.16-0.141c-0.039-0.053-0.056-0.112-0.053-0.176s0.027-0.12 0.072-0.168l0.662-0.789 0.355 0.488-0.619 0.737 0.030 0.042 0.89-0.364 0.358 0.492z"></path>
<path fill="#ffdfe5" style="fill: var(--color1, #ffdfe5)" d="M24.222 11.072c0.178-0.088 0.441-0.224 0.79-0.41 0.351-0.187 0.614-0.33 0.787-0.43l0.568 1.066-0.378 0.201c-0.061-0.127-0.156-0.314-0.288-0.56-0.128 0.063-0.324 0.165-0.59 0.306-0.275 0.147-0.481 0.259-0.617 0.336l-0.272-0.51z"></path>
<path fill="#ffdfe5" style="fill: var(--color1, #ffdfe5)" d="M25.136 13.089c0.089-0.056 0.15-0.093 0.181-0.113 0.017-0.009 0.034-0.021 0.052-0.034 0.020-0.012 0.043-0.026 0.067-0.042l-0.162-0.447-0.353 0.043-0.201-0.555 0.511-0.061c0.661-0.077 1.097-0.13 1.309-0.161l0.338 0.933c-0.287 0.18-0.799 0.514-1.537 1l-0.205-0.566zM25.688 12.743c0.361-0.227 0.643-0.387 0.847-0.479l-0.010-0.029c-0.245 0.061-0.564 0.12-0.957 0.177l0.12 0.33z"></path>
<path fill="#ffdfe5" style="fill: var(--color1, #ffdfe5)" d="M25.984 13.866c0.039-0.031 0.083-0.051 0.131-0.058 0.065-0.010 0.124 0.001 0.178 0.034 0.056 0.034 0.088 0.081 0.098 0.141 0.007 0.043 0.004 0.093-0.008 0.15-0.010 0.057-0.032 0.134-0.066 0.233-0.013 0.048-0.017 0.087-0.012 0.118 0.004 0.026 0.020 0.046 0.049 0.059 0.030 0.013 0.060 0.018 0.088 0.015l0.119 0.323c-0.041 0.032-0.087 0.051-0.138 0.059-0.063 0.010-0.12-0.001-0.171-0.033-0.050-0.030-0.080-0.075-0.090-0.135-0.013-0.082 0.009-0.213 0.064-0.394 0.007-0.026 0.011-0.051 0.012-0.075 0.003-0.024 0.002-0.042-0.001-0.054-0.006-0.026-0.024-0.044-0.056-0.053s-0.061-0.013-0.089-0.010l-0.109-0.32z"></path>
</symbol>
<symbol id="icon-cat" viewBox="0 0 29 32">
<path fill="#472179" style="fill: var(--color1, #472179)" d="M1.48 0.358c0.208-0.264 0.233-0.269 0.536-0.113 0.57 0.294 2.207 1.735 3.181 2.8l0.953 1.041 0.408-0.095c0.836-0.194 2.67-0.23 3.561-0.070 0.848 0.152 0.87 0.15 1.089-0.084 1.429-1.525 2.728-2.754 3.403-3.221l0.825-0.57 0.202 0.262c0.454 0.587 1.003 2.505 1.243 4.343 0.618 4.729 0.019 8.294-1.71 10.186-0.289 0.316-0.526 0.646-0.526 0.732 0 0.225 1.193 2.003 1.814 2.703 0.291 0.328 1.092 1.209 1.781 1.959 2.356 2.563 3.37 3.958 4.309 5.923 0.941 1.969 1.311 3.358 1.425 5.357 0.082 1.424-0.083 2.94-0.459 4.221-0.144 0.489-0.262 0.926-0.263 0.971s0.289 0.082 0.646 0.082c1.009 0 3.043 0.299 4.081 0.599 2.060 0.597 3.677 1.739 4.43 3.128 0.352 0.648 0.371 0.741 0.371 1.773 0 0.977-0.032 1.154-0.311 1.722-0.597 1.215-1.896 1.938-3.611 2.008-0.858 0.035-1.040 0.009-1.465-0.211-0.977-0.507-0.836-1.318 0.336-1.932 0.972-0.509 1.51-1.043 1.51-1.5 0-0.212-0.088-0.447-0.214-0.573-0.3-0.3-1.126-0.701-1.998-0.97-1.673-0.516-5.258-0.579-7.041-0.124-1.216 0.31-2.684 0.43-3.939 0.321-1.008-0.087-2.27-0.42-2.591-0.684-0.117-0.096-0.164-0.095-0.198 0.004-0.092 0.272-0.497 0.697-0.828 0.868-0.454 0.235-2.142 0.323-2.796 0.146-0.311-0.084-0.63-0.28-0.873-0.535l-0.383-0.402-0.265 0.32c-0.435 0.526-1.115 0.76-2.192 0.755-1.032-0.005-1.837-0.266-2.051-0.667-0.204-0.381-0.133-1.101 0.176-1.79l0.294-0.656-0.18-1.373c-0.099-0.755-0.329-2.365-0.512-3.577-0.687-4.558-0.812-6.216-0.815-10.811-0.002-2.548 0.049-4.679 0.129-5.431l0.132-1.237-0.686-0.669c-1.683-1.641-2.361-3.743-2.357-7.313 0.002-2.427 0.322-4.654 0.932-6.502 0.152-0.461 0.375-0.963 0.495-1.116zM3.409 8.888c-1.101 0.698-1.405 2.291-0.602 3.154 0.913 0.981 3.091 0.92 3.619-0.101 0.211-0.408 0.15-1.393-0.127-2.056-0.504-1.207-1.835-1.666-2.89-0.997zM11.758 8.728c-0.751 0.335-1.22 1.147-1.327 2.3-0.052 0.553-0.027 0.754 0.123 0.982 0.281 0.428 1.077 0.741 1.875 0.735 1.956-0.014 2.862-1.925 1.607-3.39-0.625-0.73-1.504-0.972-2.278-0.627zM4.238 9.713c-0.221 0.221-0.267 0.375-0.267 0.882 0 0.554 0.037 0.651 0.37 0.985 0.543 0.543 1.039 0.456 1.327-0.234 0.199-0.477 0.195-0.856-0.014-1.297-0.295-0.621-0.971-0.781-1.416-0.336zM11.645 9.694c-0.537 0.462-0.468 1.836 0.108 2.145 0.546 0.292 1.201-0.212 1.332-1.025 0.175-1.079-0.698-1.758-1.441-1.12zM7.723 12.571c-0.173 0.173-0.164 0.203 0.157 0.49 0.451 0.403 0.883 0.4 1.341-0.009 0.304-0.272 0.332-0.339 0.206-0.49-0.21-0.253-1.449-0.246-1.704 0.009z"></path>
</symbol>
<symbol id="icon-dog" viewBox="0 0 35 32">
<path fill="#632ca6" style="fill: var(--color1, #632ca6)" d="M4.836 11.144c-3.435-0.636-3.513-6.166 0.050-6.124 2.788 0.033 2.507 2.737 2.884 2.205 0.733-1.033 0.969-3.691-1.823-4.793-2.41-0.951-5.725 0.975-5.937 4.496-0.136 2.254 1.27 6.418 6.319 5.725 7.072-0.97 1.942-0.874-1.492-1.509z"></path>
<path fill="#472179" style="fill: var(--color2, #472179)" d="M25.119 18.548c0 0-0.995 2.303-0.662 8.071 0.060 1.035 0.205 2.092 0.237 2.959 1.774 0 1.618 2.021 1.242 2.021h-2.842c-0.669 0-1.854-3.367-2.166-8.039-0.312-4.673 4.191-5.013 4.191-5.013zM13.476 18.224c0 0-0.563 3.455-3.575 6.28-0.252 1.139-0.753 4.144-0.929 5.087 1.85 0 1.255 2.005 0.716 2.005h-2.591c-0.931 0-1.069-3.371-0.202-7.534s6.582-5.837 6.582-5.837z"></path>
<path fill="#632ca6" style="fill: var(--color1, #632ca6)" d="M3.692 12.397c1.227-3.674 7.064-3.553 13.707-2.708 2.992 0.381 3.564-4.361 3.564-5.176 0-3.551 3.177-5.342 6.361-4.141 0.763 0.287 1.373 1.302 1.718 1.833 1.936 2.974 4.561 0.015 4.815 2.763 0.306 3.325-1.685 4.44-4.946 4.721-1.853 0.16-3.387 1.072-3.791 4.939-0.151 1.442 0.289 5.527-2.338 6.929-0.764 2.898-1.798 6.478-2.203 8.299 2.205 0.466 1.313 2.134 1.313 2.134s-3.086-0.042-3.756-0.042c-0.797 0-0.187-5.852 0.916-9.584-4.665 0.042-7.666-1.309-8.617-1.726-1.007 2.899-4.066 3.558-4.75 4.791-0.424 0.764-1.839 3.313-1.96 4.403 1.569 0.509 1.068 1.696 0.89 2.078-1.061-0.042-3.153-0.042-3.425-0.042-1.087 0 1.113-6.761 2.040-8.532 1.060-2.028-0.765-7.265 0.463-10.939z"></path>
<path fill="#472179" style="fill: var(--color2, #472179)" d="M19.21 21.025c-0.043 0.363-0.138 0.873-0.248 1.341-4.665 0.042-7.666-1.309-8.617-1.726 0.21-0.764 0.225-1.244 0.167-1.506 3.324 0.546 4.454 2.159 8.697 1.891zM28.823 9.69c-1.853 0.16-2.375 1.047-2.779 4.914-0.151 1.441-0.724 5.552-3.35 6.955 0.705-2.73 1.918-12.131 6.129-11.869z"></path>
<path fill="#472179" style="fill: var(--color2, #472179)" d="M32.139 3.595c2.735 0 1.87 0.515 1.961 1.657s0.072 2.914-0.76 3.848c-1.104 1.236-3.778 1.24-5.107 0.271s0.415-5.776 3.906-5.776z"></path>
<path fill="#250c46" style="fill: var(--color3, #250c46)" d="M32.775 5.221c0.107 0.746 0.484 1.167 0.861 1.109 0.744-0.115 1.363-1.064 1.363-1.818s-0.611-0.943-1.363-0.909c-1.021 0.047-0.981 0.772-0.861 1.617z"></path>
<path fill="#472179" style="fill: var(--color2, #472179)" d="M20.374 5.907c-0.341 2.463 1.133 2.838 2.334 2.838s2.991-1.224 2.691-3.692c-0.131-1.084-0.543-2.148-0.792-3.109-0.329-1.276-1.174-1.696-1.855-1.339-1.63 0.856-2.157 3.718-2.378 5.302z"></path>
<path fill="#250c46" style="fill: var(--color3, #250c46)" d="M27.325 4.513c-0.502 0-0.909-0.407-0.909-0.909s0.407-0.909 0.909-0.909c0.502 0 0.909 0.407 0.909 0.909s-0.407 0.909-0.909 0.909z"></path>
<path fill="#472179" style="fill: var(--color2, #472179)" d="M16.586 9.592c-0.071 1.5-0.887 3.112-2.676 3.587-1.862 0.495-4.035 0.124-4.573-2.424-0.089-0.421-0.127-1.199-0.071-1.483 2.106-0.175 4.632 0 7.321 0.319z"></path>
</symbol>
<symbol id="icon-line-first" viewBox="0 0 50 32">
<path fill="none" stroke-linejoin="miter" stroke-linecap="butt" stroke-miterlimit="4" stroke-width="1.6473" d="M0.72 5.294l3.869 6.36c6.397 10.514 24.241 11.674 17.443 1.414v0c-7.635-11.522-6.923-14.365-0.924-10.803 2.315 1.374 4.288 3.791 5.83 6.296 1.572 2.555 5.736 2.84 7.173 0.207v0c1.281-2.348 4.641-2.378 5.964-0.053l3.277 5.759c0.586 1.030 2.007 1.189 2.806 0.314v0c1.308-1.431 3.625 0.016 2.913 1.819l-5.958 15.083"></path>
</symbol>
<symbol id="icon-instagram" viewBox="0 0 30 32">
<path fill="#fff" style="fill: var(--color1, #fff)" d="M6.446 0.948c-1.709 0-3.348 0.679-4.557 1.887s-1.888 2.847-1.889 4.557v17.19c0 1.71 0.679 3.349 1.888 4.558s2.849 1.888 4.558 1.888h17.19c1.709-0.001 3.348-0.68 4.557-1.889s1.887-2.848 1.887-4.557v-17.19c-0.001-1.709-0.68-3.347-1.888-4.556s-2.847-1.887-4.556-1.888h-17.19zM25.49 7.402c0 0.492-0.196 0.965-0.544 1.313s-0.82 0.544-1.313 0.544-0.965-0.196-1.313-0.544c-0.348-0.348-0.544-0.82-0.544-1.313s0.196-0.965 0.544-1.313c0.348-0.348 0.82-0.544 1.313-0.544s0.965 0.196 1.313 0.544c0.348 0.348 0.544 0.82 0.544 1.313zM15.044 10.838c-1.366 0-2.675 0.543-3.641 1.508s-1.508 2.275-1.508 3.641c0 1.366 0.543 2.675 1.508 3.641s2.275 1.508 3.641 1.508 2.675-0.543 3.641-1.508c0.966-0.965 1.508-2.275 1.508-3.641s-0.542-2.675-1.508-3.641c-0.966-0.966-2.275-1.508-3.641-1.508zM7.417 15.987c0-2.022 0.803-3.961 2.233-5.391s3.369-2.233 5.391-2.233c2.022 0 3.961 0.803 5.391 2.233s2.233 3.369 2.233 5.391c0 2.022-0.803 3.962-2.233 5.391s-3.369 2.233-5.391 2.233-3.961-0.803-5.391-2.233c-1.43-1.43-2.233-3.369-2.233-5.391z"></path>
</symbol>
<symbol id="icon-facebook" viewBox="0 0 18 32">
<path fill="#fff" style="fill: var(--color1, #fff)" d="M12.458 18.863h3.79l1.516-6.14h-5.306v-3.070c0-1.581 0-3.070 3.032-3.070h2.274v-5.158c-0.494-0.066-2.361-0.215-4.331-0.215-4.116 0-7.039 2.543-7.039 7.215v4.298h-4.548v6.14h4.548v13.048h6.064v-13.048z"></path>
</symbol>
<symbol id="icon-telegram" viewBox="0 0 36 32">
<path fill="#fff" style="fill: var(--color1, #fff)" d="M31.42 1.553l-29.524 12.281c-1.188 0.572-1.59 1.717-0.287 2.339l7.574 2.596 18.314-12.208c1-0.766 2.024-0.562 1.143 0.281l-15.729 15.361-0.494 6.501c0.458 1.004 1.296 1.008 1.83 0.51l4.352-4.442 7.453 6.020c1.731 1.105 2.673 0.392 3.045-1.634l4.888-24.968c0.508-2.494-0.358-3.593-2.564-2.637z"></path>
</symbol>
<symbol id="icon-viber" viewBox="0 0 29 32">
<path fill="#fff" style="fill: var(--color1, #fff)" d="M21.724 0.797l0.513 0.115c1.339 0.299 2.569 0.963 3.553 1.918s1.684 2.164 2.021 3.493c1.206 4.75 1.206 9.726 0 14.476-0.338 1.328-1.037 2.538-2.021 3.493s-2.213 1.619-3.552 1.918l-0.514 0.113c-3.032 0.677-6.144 0.925-9.245 0.736l-4.131 3.693c-0.101 0.090-0.224 0.151-0.357 0.177s-0.27 0.016-0.397-0.028c-0.128-0.045-0.241-0.123-0.328-0.226s-0.145-0.228-0.167-0.361l-0.703-4.196c-1.261-0.349-2.407-1.025-3.321-1.96s-1.566-2.094-1.888-3.361c-1.206-4.75-1.206-9.726 0-14.476 0.337-1.329 1.037-2.538 2.021-3.493s2.213-1.619 3.552-1.918l0.513-0.113c4.759-1.063 9.694-1.063 14.453 0zM8.547 6.199c-0.281-0.041-0.568 0.016-0.812 0.16h-0.021c-0.567 0.333-1.079 0.751-1.514 1.244-0.363 0.419-0.56 0.842-0.611 1.25-0.030 0.242-0.009 0.487 0.062 0.718l0.027 0.015c0.408 1.199 0.941 2.352 1.591 3.437 0.839 1.524 1.871 2.934 3.071 4.194l0.036 0.052 0.057 0.042 0.035 0.041 0.042 0.036c1.266 1.203 2.68 2.239 4.208 3.083 1.747 0.951 2.808 1.4 3.444 1.587v0.009c0.186 0.057 0.356 0.083 0.526 0.083 0.542-0.040 1.056-0.26 1.458-0.626 0.492-0.435 0.908-0.948 1.231-1.518v-0.011c0.304-0.574 0.201-1.116-0.237-1.483-0.881-0.769-1.834-1.453-2.845-2.040-0.678-0.367-1.366-0.145-1.644 0.227l-0.594 0.75c-0.306 0.372-0.859 0.32-0.859 0.32l-0.015 0.009c-4.131-1.054-5.234-5.233-5.234-5.233s-0.051-0.568 0.331-0.859l0.744-0.599c0.357-0.29 0.605-0.976 0.222-1.654-0.584-1.012-1.267-1.963-2.038-2.842-0.168-0.207-0.404-0.348-0.666-0.398l0.003 0.002zM15.527 4.383c-0.201 0-0.393 0.080-0.535 0.221s-0.222 0.334-0.222 0.534c0 0.2 0.080 0.393 0.222 0.534s0.334 0.221 0.535 0.221c1.914 0 3.502 0.624 4.759 1.821 0.646 0.654 1.15 1.43 1.479 2.279 0.331 0.851 0.483 1.759 0.443 2.669-0.004 0.099 0.011 0.198 0.045 0.292s0.086 0.179 0.154 0.252c0.136 0.148 0.325 0.235 0.525 0.244s0.396-0.063 0.544-0.199 0.236-0.325 0.244-0.525c0.047-1.119-0.139-2.236-0.546-3.28-0.409-1.049-1.029-2.003-1.821-2.802l-0.015-0.015c-1.56-1.489-3.534-2.248-5.812-2.248zM15.475 6.867c-0.201 0-0.393 0.080-0.535 0.221s-0.222 0.334-0.222 0.534c0 0.2 0.080 0.393 0.222 0.534s0.334 0.221 0.535 0.221h0.026c1.38 0.098 2.384 0.558 3.087 1.312 0.722 0.777 1.095 1.743 1.067 2.937-0.005 0.2 0.071 0.395 0.209 0.54s0.329 0.229 0.53 0.234c0.2 0.005 0.395-0.071 0.54-0.209s0.229-0.329 0.234-0.529c0.036-1.567-0.469-2.92-1.47-3.999v-0.003c-1.024-1.097-2.429-1.678-4.12-1.791l-0.026-0.003-0.076 0.002zM15.446 9.399c-0.101-0.009-0.203 0.003-0.3 0.034s-0.186 0.082-0.263 0.148c-0.077 0.067-0.139 0.148-0.184 0.239s-0.070 0.191-0.075 0.292c-0.005 0.101 0.010 0.203 0.045 0.298s0.088 0.183 0.158 0.257c0.069 0.074 0.153 0.134 0.246 0.175s0.193 0.063 0.295 0.065c0.632 0.033 1.036 0.224 1.29 0.479 0.256 0.257 0.446 0.67 0.481 1.315 0.002 0.101 0.024 0.201 0.066 0.294s0.101 0.176 0.175 0.245 0.162 0.123 0.257 0.157c0.096 0.035 0.197 0.050 0.298 0.044s0.201-0.031 0.292-0.076 0.173-0.107 0.239-0.184c0.067-0.077 0.117-0.166 0.148-0.262s0.043-0.198 0.034-0.299c-0.048-0.907-0.333-1.708-0.915-2.297-0.585-0.589-1.383-0.877-2.287-0.925z"></path>
</symbol>
<symbol id="icon-cross" viewBox="0 0 32 32">
<path fill="#250c46" style="fill: var(--color1, #250c46)" d="M16 12.445l12.445-12.445 3.555 3.555-12.445 12.445 12.445 12.445-3.558 3.555-12.445-12.445-12.442 12.445-3.555-3.558 12.445-12.445-12.445-12.445 3.555-3.55 12.445 12.442z"></path>
</symbol>
<symbol id="icon-check-list-cat" viewBox="0 0 30 32">
<path fill="#ab7ce9" style="fill: var(--color1, #ab7ce9)" d="M10.716 27.117c0 1.267 0.014 2.479 0.023 3.231 0.002 0.182 0.060 0.359 0.168 0.506s0.258 0.257 0.432 0.314c2.953 0.97 6.134 1.015 9.114 0.129l0.415-0.123c0.195-0.058 0.367-0.177 0.489-0.34s0.189-0.36 0.19-0.563c0.007-1.036 0.024-2.852 0.024-4.991 0-1.94-0.678-3.181-1.465-3.828 4.83-0.517 9.904-2.276 9.904-10.218 0-2.276-0.841-4.114-2.225-5.562 0.217-0.518 0.978-2.638-0.217-5.483 0 0-1.819-0.57-5.969 2.121-1.771-0.468-3.596-0.703-5.428-0.698-1.844 0-3.69 0.233-5.427 0.698-4.151-2.667-5.97-2.121-5.97-2.121-1.194 2.845-0.435 4.966-0.217 5.483-1.449 1.49-2.249 3.489-2.225 5.562 0 7.915 5.047 9.699 9.877 10.218-0.624 0.518-1.194 1.423-1.383 2.767-1.249 0.543-4.37 1.423-6.323-1.707-0.406-0.622-1.628-2.148-3.338-2.121-1.819 0.025-0.733 0.983 0.028 1.372 0.921 0.491 1.979 2.327 2.224 2.923 0.435 1.164 1.846 3.388 7.3 2.432z"></path>
</symbol>
<symbol id="icon-helpThings" viewBox="0 0 218 32">
<path fill="#632ca6" style="fill: var(--color1, #632ca6)" d="M84.458 26.455c-0.362-0.010-0.716-0.116-1.024-0.306s-0.561-0.459-0.733-0.778c-0.172-0.319-0.256-0.678-0.245-1.041s0.118-0.715 0.31-1.023l3.013-4.847 3.5 2.176-3.013 4.847c-0.19 0.306-0.458 0.556-0.775 0.727s-0.673 0.255-1.034 0.245z"></path>
<path fill="#632ca6" style="fill: var(--color1, #632ca6)" d="M96.071 15.503c1.4 0.037 2.566-1.068 2.602-2.469s-1.068-2.566-2.469-2.603c-1.4-0.037-2.566 1.068-2.602 2.469s1.068 2.566 2.469 2.603z"></path>
<path fill="#632ca6" style="fill: var(--color1, #632ca6)" d="M73.303 26.16c-0.362-0.010-0.716-0.116-1.025-0.306s-0.561-0.459-0.733-0.778c-0.172-0.319-0.256-0.678-0.245-1.041s0.118-0.715 0.31-1.023l3.013-4.846 3.5 2.176-3.013 4.847c-0.19 0.306-0.457 0.556-0.775 0.727s-0.673 0.255-1.033 0.245z"></path>
<path fill="#fff" style="fill: var(--color2, #fff)" d="M89.99 23.309l-12.776-0.338c-1.738-0.048-3.387-0.784-4.584-2.045s-1.844-2.947-1.8-4.686l0.051-1.941c0.017-0.604 0.272-1.176 0.71-1.592s1.023-0.641 1.627-0.625l17.056 0.451c1.429 0.038 2.785 0.642 3.768 1.679s1.515 2.423 1.478 3.852-0.642 2.784-1.679 3.768c-1.037 0.984-2.422 1.515-3.852 1.477z"></path>
<path fill="#fff" style="fill: var(--color2, #fff)" d="M89.254 28.259c-0.546-0.015-1.064-0.246-1.44-0.643s-0.579-0.926-0.566-1.472l0.151-5.705 4.12 0.109-0.151 5.705c-0.015 0.546-0.246 1.064-0.643 1.44s-0.926 0.579-1.472 0.566z"></path>
<path fill="#fff" style="fill: var(--color2, #fff)" d="M77.298 27.943c-0.546-0.015-1.064-0.246-1.44-0.643s-0.579-0.926-0.566-1.472l0.151-5.705 4.12 0.109-0.151 5.705c-0.015 0.546-0.246 1.064-0.642 1.44s-0.926 0.579-1.472 0.566z"></path>
<path fill="#632ca6" style="fill: var(--color1, #632ca6)" d="M67.276 8.223l-4.038 3.071-4.031-5.299c-0.405-0.536-0.581-1.21-0.49-1.875s0.443-1.267 0.977-1.674c0.535-0.407 1.208-0.585 1.874-0.495s1.268 0.44 1.676 0.973l4.031 5.3z"></path>
<path fill="#fff" style="fill: var(--color2, #fff)" d="M72.666 15.974l-6.678 5.079c-0.386 0.293-0.873 0.421-1.353 0.356s-0.916-0.319-1.21-0.704l-2.66-3.498c-0.934-1.23-1.341-2.78-1.133-4.311s1.015-2.915 2.243-3.851l1.066-0.81c1.032-0.783 2.332-1.125 3.615-0.95s2.445 0.851 3.23 1.881l3.229 4.246c0.293 0.386 0.421 0.873 0.356 1.354s-0.319 0.915-0.704 1.209z"></path>
<path fill="#fff" style="fill: var(--color2, #fff)" d="M67.276 8.223l-2.776 2.111-4.511-5.93c-0.28-0.368-0.402-0.832-0.34-1.291s0.304-0.873 0.672-1.153c0.368-0.28 0.832-0.402 1.29-0.34s0.873 0.304 1.153 0.672l4.511 5.93z"></path>
<path fill="#fff" style="fill: var(--color2, #fff)" d="M72.261 16.213l-7.318 5.566c-0.536 0.405-1.21 0.582-1.875 0.49s-1.267-0.443-1.674-0.977c-0.406-0.535-0.584-1.209-0.495-1.874s0.44-1.268 0.973-1.676l7.318-5.566 3.071 4.038z"></path>
<path fill="#632ca6" style="fill: var(--color1, #632ca6)" d="M62.198 21.968c0.261-0.199 0.183-0.741-0.175-1.212s-0.86-0.691-1.121-0.492c-0.261 0.199-0.183 0.741 0.175 1.212s0.859 0.691 1.121 0.492z"></path>
<path fill="#fe3fa0" style="fill: var(--color3, #fe3fa0)" d="M41.804 23.64c-0.022 0.81-0.364 1.578-0.952 2.136s-1.373 0.859-2.183 0.837c-1.686-0.045-1.704-1.573-0.355-3.065-1.286-0.907-1.169-3.087 0.517-3.042 0.81 0.021 1.578 0.364 2.136 0.951s0.858 1.373 0.837 2.183z"></path>
<path fill="#fe3fa0" style="fill: var(--color3, #fe3fa0)" d="M50.528 23.871c-0.021 0.81 0.28 1.595 0.838 2.183s1.326 0.93 2.135 0.951c1.686 0.045 1.785-1.481 0.517-3.042 1.332-0.838 1.331-3.020-0.355-3.065-0.81-0.021-1.595 0.28-2.183 0.837s-0.93 1.326-0.952 2.136z"></path>
<path fill="#fe3fa0" style="fill: var(--color3, #fe3fa0)" d="M52.314 22.39l-12.214-0.323-0.081 3.053 12.214 0.323 0.081-3.053z"></path>
<path fill="#632ca6" style="fill: var(--color1, #632ca6)" d="M217.233 31.914l-216.942-5.733c-0.077-0.002-0.15-0.035-0.203-0.091s-0.082-0.131-0.080-0.208c0.002-0.077 0.035-0.15 0.091-0.203s0.131-0.082 0.208-0.080l216.942 5.733c0.077 0.002 0.15 0.035 0.203 0.091s0.082 0.131 0.080 0.208-0.035 0.15-0.090 0.204c-0.056 0.053-0.131 0.082-0.208 0.080z"></path>
</symbol>
<symbol id="icon-dog-walking" viewBox="0 0 57 32">
<path fill="#ffb8b8" style="fill: var(--color1, #ffb8b8)" d="M29.699 19.953c0.015-0.091 0.011-0.185-0.014-0.274s-0.069-0.172-0.129-0.242c-0.060-0.071-0.135-0.127-0.219-0.165s-0.176-0.058-0.269-0.057l-3.971-4.188-0.825 1.104 4.163 3.77c0.012 0.156 0.080 0.301 0.192 0.41s0.26 0.172 0.416 0.179 0.309-0.044 0.429-0.143c0.121-0.099 0.201-0.238 0.226-0.392z"></path>
<path fill="#632ca6" style="fill: var(--color2, #632ca6)" d="M27.827 17.544l-1.057 1.013c-0.051 0.048-0.118 0.075-0.188 0.073s-0.137-0.030-0.185-0.080l-2.771-2.842c-0.096-0.098-0.171-0.214-0.222-0.342s-0.075-0.264-0.073-0.401c0.002-0.137 0.032-0.273 0.087-0.398s0.134-0.239 0.234-0.334c0.099-0.095 0.216-0.169 0.344-0.219s0.265-0.073 0.402-0.069c0.137 0.004 0.272 0.035 0.397 0.091s0.238 0.137 0.332 0.237l2.711 2.897c0.048 0.051 0.073 0.119 0.071 0.189s-0.031 0.136-0.081 0.184z"></path>
<path fill="#ffb8b8" style="fill: var(--color1, #ffb8b8)" d="M24.302 12.389c0.8 0.017 1.461-0.619 1.478-1.419s-0.618-1.462-1.418-1.479c-0.8-0.017-1.461 0.619-1.478 1.419s0.618 1.462 1.418 1.479z"></path>
<path fill="#ffb8b8" style="fill: var(--color1, #ffb8b8)" d="M19.079 28.201l0.354 0.631 2.6-1.065-0.522-0.931-2.432 1.365z"></path>
<path fill="#2f2e41" style="fill: var(--color3, #2f2e41)" d="M19.194 27.925l0.696 1.242c0.058 0.104 0.096 0.219 0.11 0.337s0.005 0.238-0.028 0.353c-0.032 0.115-0.087 0.222-0.16 0.316s-0.165 0.172-0.269 0.23l-0.026 0.014-1.14-2.034 0.817-0.459z"></path>
<path fill="#ffb8b8" style="fill: var(--color1, #ffb8b8)" d="M23.28 30.535l0.723 0.015 0.402-2.783-1.067-0.022-0.058 2.79z"></path>
<path fill="#2f2e41" style="fill: var(--color3, #2f2e41)" d="M23.1 30.295l1.423 0.029c0.119 0.003 0.237 0.028 0.346 0.076s0.208 0.117 0.29 0.203c0.082 0.086 0.147 0.188 0.19 0.299s0.064 0.23 0.062 0.349l-0.001 0.030-2.33-0.048 0.019-0.937z"></path>
<path fill="#2f2e41" style="fill: var(--color3, #2f2e41)" d="M20.409 28.784c-0.042-0.001-0.082-0.012-0.119-0.031s-0.068-0.048-0.092-0.082l-0.677-0.962c-0.021-0.029-0.035-0.063-0.043-0.098s-0.008-0.071-0.001-0.107c0.007-0.035 0.021-0.069 0.041-0.098s0.046-0.055 0.076-0.074l3.145-2.009-1.769-4.963 3.995 0.414 0.047 4.235c0.005 0.386-0.096 0.765-0.29 1.098s-0.476 0.607-0.814 0.792l-3.366 1.851c-0.041 0.023-0.087 0.034-0.133 0.033z"></path>
<path fill="#2f2e41" style="fill: var(--color3, #2f2e41)" d="M23.314 29.969c-0.069-0.002-0.134-0.030-0.182-0.078s-0.076-0.114-0.077-0.183l-0.061-4.126 1.818-0.058-0.231 4.149c-0.003 0.066-0.031 0.128-0.078 0.174s-0.109 0.073-0.175 0.076l-0.996 0.045c-0.006 0-0.012 0-0.018 0z"></path>
<path fill="#632ca6" style="fill: var(--color2, #632ca6)" d="M25.412 21.603c-0.462-0.010-2.065-0.563-2.622-0.76-0.085 0.065-0.553 0.4-1.089 0.326-0.331-0.046-0.619-0.24-0.856-0.576-0.524-0.744 0.207-3.87 0.913-6.363 0.142-0.504 0.473-0.933 0.924-1.197s0.987-0.344 1.496-0.221c0.368 0.089 0.705 0.28 0.971 0.55s0.452 0.609 0.536 0.979c0.113 0.504-0.005 1.091-0.092 1.52-0.041 0.202-0.073 0.361-0.064 0.44 0.032 0.305 0.143 5.072 0.004 5.273-0.015 0.021-0.057 0.030-0.12 0.029z"></path>
<path fill="#ffb8b8" style="fill: var(--color1, #ffb8b8)" d="M23.721 21.576c0.075-0.054 0.138-0.123 0.184-0.204s0.073-0.17 0.080-0.263c0.007-0.092-0.006-0.185-0.038-0.272s-0.084-0.165-0.15-0.23l0.149-5.771-1.363 0.198 0.283 5.611c-0.102 0.118-0.156 0.27-0.153 0.426s0.063 0.306 0.168 0.42c0.106 0.115 0.25 0.187 0.405 0.203s0.311-0.026 0.437-0.117z"></path>
<path fill="#632ca6" style="fill: var(--color2, #632ca6)" d="M24.098 18.547l-1.463-0.030c-0.070-0.002-0.136-0.031-0.185-0.081s-0.076-0.118-0.075-0.188l0.047-3.97c0.002-0.137 0.030-0.273 0.085-0.399s0.133-0.24 0.232-0.336 0.215-0.17 0.343-0.22c0.128-0.050 0.264-0.074 0.401-0.071s0.272 0.033 0.398 0.089c0.125 0.056 0.239 0.136 0.333 0.235s0.168 0.217 0.217 0.346c0.049 0.128 0.072 0.265 0.067 0.402l-0.128 3.967c-0.003 0.070-0.032 0.136-0.083 0.184s-0.118 0.074-0.188 0.073z"></path>
<path fill="#2f2e41" style="fill: var(--color3, #2f2e41)" d="M23.933 12.375c-0.663-0.013-1.277-0.55-1.379-1.206-0.036-0.257-0.012-0.52 0.070-0.767 0.089-0.281 0.238-0.54 0.435-0.758s0.44-0.393 0.71-0.51c0.27-0.117 0.563-0.175 0.857-0.17s0.585 0.074 0.85 0.201c0.176 0.084 0.348 0.203 0.425 0.382s0.022 0.425-0.158 0.501c-0.117 0.050-0.262 0.021-0.367 0.094-0.15 0.104-0.117 0.334-0.054 0.505s0.133 0.38 0.019 0.523c-0.106 0.133-0.312 0.125-0.474 0.070s-0.32-0.143-0.49-0.129c-0.248 0.020-0.43 0.262-0.468 0.508s0.034 0.493 0.106 0.732l-0.084 0.023z"></path>
<path fill="#632ca6" style="fill: var(--color2, #632ca6)" d="M41.975 14.385c-0.004-3.963 3.199-13.37 7.159-13.374s7.179 9.398 7.182 13.361c0.002 1.903-0.752 3.729-2.096 5.076s-3.167 2.104-5.069 2.106c-1.902 0.002-3.726-0.753-5.072-2.097s-2.103-3.169-2.105-5.072z"></path>
<path fill="#3f3d56" style="fill: var(--color4, #3f3d56)" d="M49.161 31.837c-0.016 0-0.031-0.006-0.042-0.017s-0.017-0.026-0.017-0.042l-0.021-24.74c0-0.016 0.006-0.031 0.017-0.042s0.026-0.017 0.042-0.017c0.016 0 0.031 0.006 0.042 0.017s0.017 0.026 0.017 0.042l0.021 24.74c0 0.016-0.006 0.031-0.017 0.042s-0.026 0.017-0.042 0.017z"></path>
<path fill="#3f3d56" style="fill: var(--color4, #3f3d56)" d="M49.144 11.814c-0.008 0-0.015-0.001-0.023-0.004s-0.014-0.007-0.019-0.013l-2.841-2.838c-0.011-0.011-0.017-0.026-0.017-0.042s0.006-0.030 0.017-0.042c0.011-0.011 0.026-0.017 0.041-0.017s0.031 0.006 0.042 0.017l2.841 2.838c0.008 0.008 0.014 0.019 0.016 0.030s0.001 0.023-0.003 0.034c-0.005 0.011-0.012 0.020-0.022 0.027s-0.021 0.010-0.033 0.010z"></path>
<path fill="#3f3d56" style="fill: var(--color4, #3f3d56)" d="M49.148 16.731c-0.012 0-0.023-0.003-0.033-0.010s-0.017-0.016-0.022-0.027c-0.004-0.011-0.006-0.023-0.003-0.034s0.008-0.022 0.016-0.030l4.749-4.761c0.011-0.011 0.026-0.017 0.042-0.017s0.031 0.006 0.041 0.017c0.011 0.011 0.017 0.026 0.017 0.041s-0.006 0.031-0.017 0.042l-4.749 4.761c-0.005 0.005-0.012 0.010-0.019 0.013s-0.015 0.005-0.023 0.005z"></path>
<path fill="#fe3fa0" style="fill: var(--color5, #fe3fa0)" d="M29.226 19.91c0.945-0.193 1.995 0.565 2.008 1.554 0.004 0.278-0.084 0.568-0.302 0.753-0.18 0.152-0.444 0.226-0.671 0.145-0.436-0.156-0.447-0.769-0.204-1.091 0.328-0.436 0.961-0.499 1.462-0.436 0.612 0.077 1.188 0.358 1.67 0.737 0.963 0.758 1.563 1.902 2.044 3.005 0.493 1.132 0.844 2.32 1.045 3.538 0.025 0.153 0.048 0.306 0.069 0.46 0.006 0.023 0.021 0.042 0.041 0.053s0.044 0.015 0.067 0.009c0.022-0.007 0.041-0.022 0.053-0.042s0.015-0.044 0.010-0.067c-0.179-1.328-0.533-2.627-1.054-3.862-0.504-1.195-1.144-2.437-2.186-3.25-0.52-0.405-1.138-0.692-1.796-0.764-0.554-0.061-1.215 0.043-1.57 0.519-0.28 0.376-0.266 1.010 0.15 1.285 0.229 0.151 0.524 0.14 0.767 0.031 0.129-0.060 0.243-0.148 0.335-0.257s0.159-0.237 0.196-0.374c0.161-0.546-0.054-1.144-0.435-1.545-0.358-0.377-0.851-0.596-1.371-0.611-0.125-0.001-0.25 0.011-0.373 0.037-0.112 0.023-0.065 0.194 0.046 0.171z"></path>
<path fill="#632ca6" style="fill: var(--color2, #632ca6)" d="M33.536 30.874l-0.564-1.011 0.73-0.407 0.564 1.011c0.054 0.097 0.067 0.211 0.037 0.318s-0.102 0.197-0.198 0.251c-0.097 0.054-0.211 0.067-0.318 0.037s-0.197-0.102-0.251-0.198z"></path>
<path fill="#632ca6" style="fill: var(--color2, #632ca6)" d="M31.647 28.758c0.284 0.006 0.519-0.22 0.525-0.504s-0.22-0.519-0.503-0.525-0.519 0.22-0.525 0.504c-0.006 0.284 0.219 0.519 0.503 0.525z"></path>
<path fill="#632ca6" style="fill: var(--color2, #632ca6)" d="M35.798 30.921l-0.564-1.011 0.729-0.407 0.564 1.011c0.054 0.097 0.067 0.211 0.037 0.318s-0.102 0.197-0.198 0.251c-0.097 0.054-0.211 0.067-0.317 0.037s-0.197-0.101-0.251-0.198z"></path>
<path fill="#fff" style="fill: var(--color6, #fff)" d="M31.734 29.282c0.006-0.29 0.127-0.565 0.336-0.766s0.489-0.31 0.779-0.305l3.458 0.072c0.122 0.003 0.239 0.054 0.324 0.142s0.131 0.207 0.129 0.329l-0.008 0.394c-0.008 0.353-0.155 0.688-0.409 0.932s-0.595 0.377-0.948 0.371l-2.59-0.054c-0.29-0.006-0.565-0.127-0.765-0.337s-0.31-0.489-0.304-0.779z"></path>
<path fill="#fff" style="fill: var(--color6, #fff)" d="M32.496 30.981l0.024-1.157 0.835 0.017-0.024 1.157c-0.002 0.111-0.049 0.216-0.129 0.293s-0.187 0.119-0.298 0.116c-0.111-0.002-0.216-0.049-0.293-0.128s-0.118-0.187-0.116-0.298z"></path>
<path fill="#fff" style="fill: var(--color6, #fff)" d="M34.92 31.032l0.024-1.157 0.835 0.017-0.024 1.157c-0.001 0.055-0.013 0.109-0.035 0.159s-0.054 0.096-0.093 0.134c-0.040 0.038-0.086 0.068-0.137 0.088s-0.106 0.030-0.161 0.029c-0.055-0.001-0.109-0.013-0.159-0.035s-0.096-0.054-0.134-0.094c-0.038-0.040-0.068-0.086-0.088-0.138s-0.030-0.106-0.028-0.161z"></path>
<path fill="#632ca6" style="fill: var(--color2, #632ca6)" d="M38.413 26.523c0.088-0.104 0.213-0.169 0.349-0.181s0.27 0.031 0.375 0.118c0.104 0.087 0.17 0.213 0.182 0.349s-0.030 0.271-0.117 0.375l-0.867 1.035-0.788-0.661 0.867-1.035z"></path>
<path fill="#fff" style="fill: var(--color6, #fff)" d="M36.335 28.555l0.694-0.829c0.169-0.201 0.41-0.327 0.672-0.35s0.522 0.059 0.723 0.227l0.208 0.174c0.24 0.201 0.39 0.49 0.417 0.802s-0.070 0.622-0.271 0.862l-0.572 0.683c-0.063 0.075-0.154 0.123-0.252 0.131s-0.195-0.022-0.271-0.085l-1.304-1.093c-0.075-0.063-0.122-0.154-0.131-0.252s0.022-0.195 0.085-0.271z"></path>
<path fill="#fff" style="fill: var(--color6, #fff)" d="M38.516 26.4c0.030-0.036 0.066-0.065 0.107-0.086s0.086-0.035 0.132-0.039c0.046-0.004 0.093 0.001 0.137 0.015s0.085 0.037 0.121 0.066c0.036 0.030 0.065 0.066 0.086 0.108s0.035 0.086 0.039 0.133c0.004 0.046-0.001 0.093-0.015 0.137s-0.036 0.085-0.066 0.121l-0.97 1.158-0.542-0.454 0.97-1.158z"></path>
<path fill="#fff" style="fill: var(--color6, #fff)" d="M37.121 28.341l1.428 1.198c0.104 0.088 0.169 0.213 0.181 0.349s-0.031 0.271-0.118 0.375c-0.087 0.104-0.213 0.17-0.348 0.182s-0.27-0.030-0.375-0.117l-1.428-1.198 0.66-0.789z"></path>
<path fill="#632ca6" style="fill: var(--color2, #632ca6)" d="M38.675 30.303c0.077-0.092 0.098-0.201 0.047-0.244s-0.155-0.003-0.232 0.089c-0.077 0.092-0.098 0.201-0.047 0.244s0.155 0.003 0.232-0.089z"></path>
<path fill="#632ca6" style="fill: var(--color2, #632ca6)" d="M55.925 32.051l-52.961-1.1c-0.020-0-0.040-0.009-0.054-0.023s-0.022-0.034-0.021-0.054c0-0.020 0.009-0.039 0.024-0.053s0.034-0.021 0.055-0.021l52.961 1.1c0.020 0 0.040 0.009 0.054 0.023s0.022 0.034 0.021 0.054c-0 0.020-0.009 0.039-0.024 0.053s-0.034 0.021-0.055 0.021z"></path>
</symbol>
<symbol id="icon-spread-love" viewBox="0 0 49 32">
<path fill="#fe3fa0" style="fill: var(--color1, #fe3fa0)" d="M31.831 5.572c-0.018-0.023-0.035-0.046-0.055-0.068-0.283-0.341-0.679-0.559-1.12-0.621-0.45-0.062-0.898 0.046-1.267 0.305-0.601-0.738-1.688-0.874-2.454-0.295-0.053 0.039-0.102 0.081-0.149 0.125-0.033 0.031-0.064 0.063-0.093 0.096 0.003 0.005 0.007 0.010 0.011 0.015l2.086 2.801 0.053-0.039c0.11-0.081 2.693-1.999 2.775-2.060 0.089-0.067 0.17-0.141 0.242-0.221-0.009-0.012-0.018-0.025-0.027-0.037z"></path>
<path fill="#3f3d56" style="fill: var(--color2, #3f3d56)" d="M31.963 3.34c-0.287-0.379-0.704-0.624-1.175-0.689-0.45-0.062-0.897 0.046-1.267 0.305-0.601-0.738-1.688-0.874-2.454-0.295s-0.932 1.675-0.373 2.453c0.003 0.005 0.007 0.010 0.011 0.015l2.086 2.801 0.053-0.039c0.11-0.081 2.693-1.999 2.775-2.060 0.089-0.067 0.17-0.141 0.242-0.221 0.567-0.62 0.63-1.576 0.105-2.269zM31.776 5.504c-0.072 0.081-0.152 0.155-0.24 0.221-0.074 0.056-2.343 1.74-2.721 2.021l-2.007-2.696c-0.008-0.011-0.016-0.022-0.023-0.033-0.501-0.72-0.344-1.722 0.36-2.253 0.297-0.224 0.646-0.332 0.992-0.332 0.5 0 0.994 0.225 1.318 0.653l0.039 0.053 0.053-0.040c0.725-0.547 1.762-0.403 2.31 0.321 0.266 0.351 0.378 0.784 0.318 1.22-0.045 0.327-0.184 0.625-0.399 0.865z"></path>
<path fill="#2f2e41" style="fill: var(--color3, #2f2e41)" d="M46.125 6.696l-0.429-0.066c-0.059-0.301-0.147-0.597-0.26-0.882 0.049 0.277 0.030 0.565-0.050 0.834l-4.623-0.706c0.226-0.993 0.354-1.92 0.278-2.714-0.114-1.191 0.77-2.263 1.967-2.305 0.033-0.001 0.066-0.002 0.1-0.002 1.109 0 2.025 0.647 2.158 1.484 0.047 0.299 0.114 0.596 0.169 0.895 0.207 1.119 1.074 2.61 0.69 3.461z"></path>
<path fill="#ffb6b6" style="fill: var(--color4, #ffb6b6)" d="M33.974 8.477c0.149 0.062 0.272 0.152 0.355 0.252l1.458 0.499-0.258 0.686-1.451-0.58c-0.13 0.012-0.281-0.011-0.43-0.073-0.341-0.141-0.544-0.431-0.454-0.648s0.439-0.278 0.78-0.136z"></path>
<path fill="#ffb7b7" style="fill: var(--color5, #ffb7b7)" d="M38.661 30.488l-0.577 0.014-0.321-2.586 0.851-0.020 0.047 2.593z"></path>
<path fill="#2f2e41" style="fill: var(--color3, #2f2e41)" d="M36.683 31.689c0 0.097 0.069 0.176 0.154 0.176h1.144c0 0 0.113-0.452 0.572-0.647l0.032 0.647h0.59l-0.072-1.040c0 0 0.158-0.556-0.17-0.84s-0.062-0.245-0.062-0.245l-0.129-0.643-0.892 0.105-0.007 1.010-0.433 1.003-0.635 0.313c-0.056 0.028-0.093 0.091-0.093 0.162z"></path>
<path fill="#ffb7b7" style="fill: var(--color5, #ffb7b7)" d="M44.859 30.488l-0.577 0.014-0.321-2.586 0.851-0.020 0.047 2.593z"></path>
<path fill="#2f2e41" style="fill: var(--color3, #2f2e41)" d="M42.881 31.689c0 0.097 0.069 0.176 0.154 0.176h1.144c0 0 0.113-0.452 0.572-0.647l0.032 0.647h0.59l-0.072-1.040c0 0 0.158-0.556-0.17-0.84s-0.062-0.245-0.062-0.245l-0.129-0.643-0.892 0.105-0.007 1.010-0.433 1.003-0.635 0.313c-0.056 0.028-0.093 0.091-0.093 0.162z"></path>
<path fill="#632ca6" style="fill: var(--color6, #632ca6)" d="M40.208 11.685l3.55 0.591c0.465 0.768 1.381 3.676 1.381 3.676s-0.24 8.079-0.035 12.753l-1.477 0.048-1.972-10.438-2.63 10.176-1.435 0.101 0.185-7.257c0 0 1.982-9.56 2.433-9.65z"></path>
<path fill="#ffb7b7" style="fill: var(--color5, #ffb7b7)" d="M42.727 4.666c0.866 0 1.569-0.701 1.569-1.566s-0.702-1.566-1.569-1.566c-0.866 0-1.569 0.701-1.569 1.566s0.702 1.566 1.569 1.566z"></path>
<path fill="#ffb6b6" style="fill: var(--color4, #ffb6b6)" d="M44.185 17.156c0.044-0.155 0.12-0.287 0.21-0.382l0.327-1.504 0.712 0.176-0.408 1.506c0.027 0.127 0.021 0.28-0.023 0.435-0.101 0.354-0.365 0.59-0.591 0.526s-0.327-0.403-0.226-0.757z"></path>
<path fill="#632ca6" style="fill: var(--color6, #632ca6)" d="M41.883 5.238l1.808 0.056 1.864 2.482c-0.723 1.825-1.403 3.142-1.373 4.443 0.002 0.11 0.182 0.358 0.197 0.46 0.020 0.137-0.242 0.339-0.197 0.46l-4.369-0.928c0.088-0.125 0.012-0.282 0.066-0.394 0.047-0.098 0.227-0.153 0.249-0.248 0.118-0.516 0.181-1.376-0.264-2.386-0.317-0.718 1.077-2.394 1.002-3.211l1.017-0.733z"></path>
<path fill="#632ca6" style="fill: var(--color6, #632ca6)" d="M42.298 6.396l-3.326 4.482-3.898-1.072 0.169-1.015 2.968 0.561 1.656-2.542c0.541-1.044 1.607-1.254 2.43-0.414z"></path>
<path fill="#632ca6" style="fill: var(--color6, #632ca6)" d="M44.284 6.146c0 0 1.315-0.067 1.411 0.804s0.402 5.829 0.402 5.829l-0.71 3.347-1.012-0.14 0.447-4.26-0.538-5.579z"></path>
<path fill="#2f2e41" style="fill: var(--color3, #2f2e41)" d="M44.321 1.769c0 0.354-0.197 0.809-0.197 1.345l-0.596-0.155c-0.012-0.104-0.072-0.428-0.099-0.529 0.014 0.095 0.043 0.415 0.011 0.506l-0.293-0.076c-0.002-0.054-0.007-0.109-0.013-0.163-0.012-0.104-0.032-0.206-0.059-0.307 0.014 0.095 0.003 0.193-0.030 0.284-0.019 0.050-0.044 0.097-0.076 0.14l-1.444-0.376c-0.35-0.131-0.403 0.331-0.398 0.912 0 0-0.197-2.035 1.302-2.153l0.226-0.226c1.362 0.078 1.665 0.36 1.665 0.799z"></path>
<path fill="#2f2e41" style="fill: var(--color3, #2f2e41)" d="M41.107 3.695c0.054 0.547-0.012 1.096-0.090 1.641-0.025 0.175-0.053 0.354-0.146 0.51s-0.267 0.286-0.467 0.29c0.313 0.084 0.674 0.010 0.914-0.187 0.243-0.201 0.35-0.505 0.358-0.8s-0.072-0.585-0.151-0.871l-0.419-0.584z"></path>
<path fill="#2f2e41" style="fill: var(--color3, #2f2e41)" d="M43.97 1.589c0.054 0.997-0.012 1.999-0.090 2.991-0.025 0.319-0.053 0.646-0.146 0.931s-0.267 0.522-0.467 0.529c0.313 0.154 0.674 0.019 0.914-0.342 0.243-0.366 0.35-0.921 0.358-1.458s-0.072-1.066-0.151-1.587l-0.419-1.065z"></path>
<path fill="#ffb7b7" style="fill: var(--color5, #ffb7b7)" d="M10.63 31.3h0.944l0.449-3.635-1.393 0 0 3.635z"></path>
<path fill="#2f2e41" style="fill: var(--color3, #2f2e41)" d="M13.863 31.279c0.029 0.049 0.045 0.209 0.045 0.266 0 0.177-0.143 0.32-0.32 0.32h-2.923c-0.121 0-0.219-0.098-0.219-0.218v-0.122c0 0-0.145-0.365 0.153-0.815 0 0 0.37 0.352 0.923-0.2l0.163-0.295 1.18 0.862 0.654 0.080c0.143 0.018 0.27-0.003 0.344 0.121z"></path>
<path fill="#ffb7b7" style="fill: var(--color5, #ffb7b7)" d="M7.737 31.3h0.944l0.449-3.635-1.393 0 0 3.635z"></path>
<path fill="#2f2e41" style="fill: var(--color3, #2f2e41)" d="M10.97 31.279c0.029 0.049 0.045 0.209 0.045 0.266 0 0.177-0.143 0.32-0.32 0.32h-2.923c-0.121 0-0.219-0.098-0.219-0.218v-0.122c0 0-0.145-0.365 0.153-0.815 0 0 0.37 0.352 0.923-0.2l0.163-0.295 1.18 0.862 0.654 0.080c0.143 0.018 0.27-0.003 0.344 0.121z"></path>
<path fill="#9344fb" style="fill: var(--color7, #9344fb)" d="M7.892 13.097l-0.592 9.388 0.296 7.243h1.841l1.15-12.298-0.255 12.298 1.702-0.022 1.808-14.147c0 0-0.033-1.477-0.592-2.232s-5.359-0.23-5.359-0.23z"></path>
<path fill="#ffb7b7" style="fill: var(--color5, #ffb7b7)" d="M14.744 10.938l-1.482 0.058 0.173 1.653 2.906 2.188 0.395-0.591-2.087-2.399 0.095-0.909z"></path>
<path fill="#632ca6" style="fill: var(--color6, #632ca6)" d="M11.936 4.858l-2.038-0.197-1.512 0.722v5.974l-0.481 1.004c-0.155 0.323-0.171 0.696-0.045 1.031l5.391-0.066-0.132-0.722 0.263-1.379 0.197-5.055-1.644-1.313z"></path>
<path fill="#632ca6" style="fill: var(--color6, #632ca6)" d="M13.152 6.138c0 0 0.46-0.46 0.789 0.722s1.118 5.383 1.118 5.383l-1.874 0.033-0.493-4.497 0.46-1.641z"></path>
<path fill="#ffb7b7" style="fill: var(--color5, #ffb7b7)" d="M7.892 11.193l-0.197 4.848-0.723 0.075-0.263-4.792 1.183-0.131z"></path>
<path fill="#632ca6" style="fill: var(--color6, #632ca6)" d="M9.141 5.416c0 0-1.183-0.46-1.512 0.722s-1.118 5.383-1.118 5.383l1.446 0.104 1.644-4.568-0.46-1.641z"></path>
<path fill="#ffb7b7" style="fill: var(--color5, #ffb7b7)" d="M10.86 4.286c0.993 0 1.798-0.804 1.798-1.796s-0.805-1.796-1.798-1.796c-0.993 0-1.798 0.804-1.798 1.796s0.805 1.796 1.798 1.796z"></path>
<path fill="#ffb7b7" style="fill: var(--color5, #ffb7b7)" d="M7.373 17.501c0.3-0.010 0.529-0.427 0.512-0.932s-0.274-0.905-0.574-0.895-0.529 0.428-0.512 0.932c0.017 0.505 0.274 0.905 0.574 0.895z"></path>
<path fill="#ffb7b7" style="fill: var(--color5, #ffb7b7)" d="M17.751 15.561c0.202-0.222 0.062-0.677-0.312-1.016s-0.841-0.435-1.043-0.213-0.062 0.677 0.312 1.016c0.374 0.339 0.841 0.435 1.043 0.213z"></path>
<path fill="#2f2e41" style="fill: var(--color3, #2f2e41)" d="M12.254 0.945c-0.178-0.28-0.301-0.167-0.632-0.201-0.19-0.020-0.544-0.317-0.73-0.274-0.245 0.057-0.495 0.116-0.704 0.256-0.442-0.259-0.599 0.248-0.982 0.588s-0.513 0.934-0.307 1.403c0.098 0.223 0.091 0.46 0.251 0.644 0.184 0.212 0.285 0.507 0.3 0.523 0.077 0.088 0.437 0.15 0.452 0.167 0.144 0.166 0.377 0.115 0.521 0.282l0.083-0.88c-0.117-0.107-0.238-0.22-0.292-0.369s-0.018-0.344 0.122-0.418c0.11-0.059 0.258-0.032 0.354-0.112 0.146-0.122 0.056-0.376 0.163-0.534 0.063-0.093 0.18-0.131 0.288-0.162 0.175-0.051 0.351-0.102 0.526-0.152 0.163-0.047 0.331-0.095 0.5-0.082s0.344 0.102 0.411 0.258c-0.062-0.326-0.146-0.655-0.324-0.935z"></path>
<path fill="#fe3fa0" style="fill: var(--color1, #fe3fa0)" d="M18.371 12.23c-0.223-0.574-0.87-0.859-1.444-0.636-0.569 0.221-0.854 0.856-0.643 1.426l-0.017 0.007 0.808 2.078 1.915-0.742c0.063-0.012 0.126-0.030 0.189-0.054 0.575-0.223 0.86-0.868 0.637-1.442s-0.87-0.859-1.444-0.636z"></path>
<path fill="#3f3d56" style="fill: var(--color2, #3f3d56)" d="M33.962 1.116v6.959c0 0.615-0.501 1.116-1.118 1.116h-6.969c-0.616 0-1.118-0.501-1.118-1.116v-6.959c0-0.615 0.501-1.116 1.118-1.116h6.969c0.616 0 1.118 0.501 1.118 1.116zM32.844 9.060c0.545 0 0.986-0.441 0.986-0.985v-3.508c0-2.45-1.989-4.435-4.442-4.435-2.485 0-4.5 2.012-4.5 4.493v3.45c0 0.544 0.442 0.985 0.986 0.985h6.969z"></path>
<path fill="#fe3fa0" style="fill: var(--color1, #fe3fa0)" d="M32.47 2.509c-0.608-0.1-1.183 0.311-1.283 0.918-0.099 0.602 0.304 1.17 0.902 1.278l-0.003 0.018 2.203 0.363 0.335-2.024c0.021-0.061 0.038-0.124 0.049-0.19 0.1-0.607-0.311-1.181-0.919-1.281s-1.183 0.311-1.283 0.918z"></path>
<path fill="#fe3fa0" style="fill: var(--color1, #fe3fa0)" d="M25.209 7.372c-0.223-0.574-0.87-0.859-1.444-0.636-0.569 0.221-0.854 0.856-0.643 1.426l-0.017 0.006 0.808 2.078 1.915-0.742c0.063-0.012 0.126-0.030 0.189-0.054 0.575-0.223 0.86-0.868 0.637-1.442s-0.87-0.859-1.445-0.636z"></path>
<path fill="#fe3fa0" style="fill: var(--color1, #fe3fa0)" d="M42.572 14.814c-0.603-0.13-1.197 0.252-1.327 0.853-0.129 0.596 0.245 1.183 0.837 1.321l-0.004 0.017 2.182 0.472 0.435-2.005c0.025-0.060 0.044-0.122 0.059-0.187 0.131-0.602-0.252-1.195-0.854-1.325s-1.197 0.252-1.327 0.853z"></path>
<path fill="#f2f2f2" style="fill: var(--color8, #f2f2f2)" d="M5.162 30.832c-0.136 0.009-0.211-0.16-0.108-0.258l0.010-0.041c-0.001-0.003-0.003-0.006-0.004-0.010-0.137-0.327-0.603-0.325-0.739 0.003-0.121 0.291-0.275 0.582-0.313 0.889-0.017 0.136-0.009 0.274 0.021 0.407-0.283-0.618-0.432-1.292-0.432-1.971 0-0.171 0.009-0.341 0.028-0.511 0.016-0.139 0.037-0.277 0.065-0.414 0.152-0.74 0.48-1.445 0.953-2.034 0.228-0.124 0.417-0.318 0.532-0.551 0.041-0.084 0.073-0.174 0.089-0.266-0.026 0.003-0.098-0.39-0.078-0.415-0.036-0.055-0.101-0.082-0.14-0.135-0.196-0.265-0.466-0.219-0.607 0.142-0.301 0.152-0.304 0.404-0.119 0.646 0.118 0.154 0.134 0.363 0.237 0.527-0.011 0.014-0.022 0.027-0.032 0.040-0.195 0.249-0.363 0.517-0.505 0.799 0.040-0.313-0.019-0.69-0.12-0.933-0.115-0.277-0.33-0.51-0.52-0.749-0.228-0.288-0.695-0.162-0.735 0.202-0 0.004-0.001 0.007-0.001 0.011 0.028 0.016 0.056 0.033 0.083 0.050 0.154 0.102 0.101 0.34-0.082 0.368l-0.004 0.001c0.010 0.101 0.028 0.202 0.053 0.301-0.243 0.94 0.282 1.282 1.032 1.297 0.017 0.009 0.033 0.017 0.049 0.025-0.076 0.214-0.137 0.433-0.182 0.655-0.040 0.196-0.068 0.395-0.084 0.594-0.020 0.251-0.018 0.504 0.003 0.755l-0.001-0.009c-0.054-0.276-0.204-0.535-0.423-0.714-0.325-0.267-0.785-0.365-1.135-0.579-0.169-0.103-0.385 0.030-0.356 0.226l0.001 0.009c0.052 0.021 0.103 0.046 0.152 0.073 0.028 0.016 0.056 0.033 0.083 0.051 0.154 0.102 0.101 0.34-0.082 0.368l-0.004 0.001c-0.003 0-0.006 0.001-0.008 0.001 0.090 0.212 0.214 0.41 0.371 0.58 0.152 0.82 0.806 0.898 1.505 0.659h0c0.076 0.332 0.188 0.657 0.332 0.967h1.185c0.004-0.013 0.008-0.027 0.012-0.040-0.11 0.007-0.22 0-0.328-0.019 0.088-0.108 0.176-0.216 0.264-0.324 0.002-0.002 0.004-0.004 0.006-0.006 0.045-0.055 0.090-0.11 0.134-0.165l0-0c0.003-0.169-0.018-0.338-0.058-0.502z"></path>
</symbol>
<symbol id="icon-dog-walking-2" viewBox="0 0 42 32">
<path fill="#3f3d56" style="fill: var(--color1, #3f3d56)" d="M41.495 26.872c0 0.038-0.030 0.068-0.068 0.068h-41.359c-0.037 0-0.068-0.030-0.068-0.068 0-0.018 0.007-0.034 0.018-0.046h5.095c0.108 0 0.215-0.007 0.319-0.022h35.994c0.038 0 0.068 0.030 0.068 0.068z"></path>
<path fill="#3f3d56" style="fill: var(--color1, #3f3d56)" d="M11.825 20.534c0.509 0.307 0.559 0.452 0.868 0.579 0.156 0.064 0.448 0.152 1.013 0.072 0.777-0.11 1.257-0.424 2.604-1.158 0.961-0.523 1.431-0.752 2.098-0.869 0.5-0.087 0.79-0.055 1.013 0 0.776 0.193 1.2 0.793 1.302 0.941 0.351 0.512 0.395 1.012 0.434 1.448 0.049 0.549 0.119 1.341-0.289 1.954-0.512 0.768-1.225 0.428-2.459 1.158-1.365 0.807-1.136 1.603-2.242 2.027-1.415 0.542-2.955-0.315-3.038-0.362-1.465-0.841-1.765-2.367-2.532-2.244-0.458 0.073-0.504 0.643-1.23 0.796-0.136 0.029-0.695 0.147-1.085-0.217-0.24-0.224-0.232 0.277-0.109-0.036 0.159-0.402 0.48-1.188 0.687-1.629 0.111-0.235-0.014-0.308 0.072-0.941 0.042-0.309 0.063-0.465 0.145-0.651 0.201-0.462 0.591-0.7 0.868-0.869 0.336-0.205 0.667-0.407 1.085-0.362 0.239 0.026 0.425 0.138 0.796 0.362z"></path>
<path fill="#3f3d56" style="fill: var(--color1, #3f3d56)" d="M20.649 22.272c0.128 0.105 0.159 0.318 0.217 0.724 0.054 0.375 0.021 0.605 0 1.013-0.032 0.613 0.018 0.556 0 1.375-0.015 0.674-0.023 1.012-0.072 1.303-0.090 0.524-0.137 0.323-0.579 1.665-0.090 0.272-0.161 0.503-0.362 0.579-0.252 0.095-0.541-0.117-0.579-0.145-0.061-0.046-0.276-0.207-0.289-0.434-0.017-0.289 0.309-0.362 0.579-0.796 0.168-0.271 0.209-0.543 0.289-1.086 0.077-0.516 0.115-0.775 0-1.013-0.21-0.436-0.692-0.571-0.723-0.579-0.288-0.076-0.381 0.032-0.723 0-0.32-0.030-0.847-0.18-0.94-0.434-0.255-0.696 2.57-2.674 3.183-2.172z"></path>
<path fill="#3f3d56" style="fill: var(--color1, #3f3d56)" d="M19.492 21.258c0.128 0.105 0.159 0.318 0.217 0.724 0.054 0.375 0.021 0.605 0 1.013-0.032 0.613 0.018 0.556 0 1.375-0.015 0.674-0.023 1.012-0.072 1.303-0.090 0.524-0.137 0.323-0.579 1.665-0.090 0.272-0.161 0.503-0.362 0.579-0.252 0.095-0.541-0.117-0.579-0.145-0.061-0.046-0.276-0.207-0.289-0.434-0.017-0.289 0.309-0.362 0.579-0.796 0.168-0.271 0.209-0.543 0.289-1.086 0.077-0.516 0.115-0.775 0-1.013-0.21-0.436-0.692-0.571-0.723-0.579-0.288-0.076-0.381 0.032-0.723 0-0.32-0.030-0.847-0.18-0.94-0.434-0.255-0.696 2.57-2.674 3.183-2.172z"></path>
<path fill="#3f3d56" style="fill: var(--color1, #3f3d56)" d="M17.322 24.805c0.081 0.124 0.175 0.445 0.362 1.086 0.083 0.286 0.623 2.167 0.796 2.751 0.050 0.168 0.114 0.377 0.289 0.579 0.147 0.17 0.226 0.164 0.289 0.29 0.164 0.326-0.156 0.785-0.217 0.869-0.071 0.097-0.4 0.548-0.868 0.507-0.049-0.004-0.365-0.032-0.434-0.217-0.105-0.283 0.514-0.549 0.506-1.013-0.005-0.274-0.224-0.388-0.506-0.724-0.605-0.72-0.347-1.094-0.796-1.665-0.671-0.853-1.919-0.869-2.098-0.869-0.462 0.001-1.105 0.002-1.519 0.434-0.577 0.603-0.339 1.659-0.579 3.257 0 0-0.039 0.259-0.145 0.652-0.175 0.647-0.314 0.814-0.362 0.869-0.065 0.074-0.256 0.283-0.579 0.362-0.045 0.011-0.25 0.058-0.506 0-0.17-0.038-0.325-0.074-0.434-0.217-0.105-0.138-0.144-0.345-0.072-0.507 0.087-0.195 0.266-0.164 0.506-0.362 0.169-0.14 0.257-0.335 0.434-0.724 0.078-0.172 0.195-0.434 0.289-0.796 0.109-0.42 0.122-0.744 0.145-1.375 0.019-0.532 0.010-0.974 0-1.448-0.011-0.551-0.027-0.732 0-1.086 0.028-0.372 0.055-0.734 0.145-0.941 0.48-1.116 4.292-1.329 5.352 0.29z"></path>
<path fill="#3f3d56" style="fill: var(--color1, #3f3d56)" d="M20.36 19.883c0.309-0.171 0.353-0.572 0.434-1.303 0.059-0.533 0.094-0.85-0.072-1.231-0.224-0.514-0.645-0.753-0.723-0.796-0.086-0.047-0.647-0.345-1.23-0.145-0.081 0.028-0.296 0.188-0.723 0.507-0.509 0.38-0.584 0.453-0.651 0.579-0.179 0.337-0.16 0.794 0 0.869 0.121 0.057 0.331-0.103 0.434-0.217 0.123-0.137 0.105-0.22 0.217-0.362 0.089-0.113 0.173-0.152 0.434-0.29 0.648-0.34 0.68-0.385 0.796-0.362 0.287 0.058 0.424 0.407 0.434 0.434 0.088 0.233 0.027 0.444-0.072 0.796-0.053 0.186-0.113 0.33-0.217 0.579-0.189 0.451-0.238 0.485-0.217 0.579 0.070 0.308 0.749 0.588 1.157 0.362z"></path>
<path fill="#9344fb" style="fill: var(--color2, #9344fb)" d="M12.946 21.15c0.12 0.020 0.178 0.704 0 1.303-0.121 0.41-0.367 0.824-0.41 0.897-0.034 0.058-0.068 0.11-0.168 0.261-0.493 0.737-0.743 1.105-0.868 1.086-0.167-0.026 0.29-0.422 0.325-0.8 0.065-0.703 0.381-0.79 0.94-1.81 0.303-0.552 0.088-0.953 0.181-0.937z"></path>
<path fill="#2f2e41" style="fill: var(--color3, #2f2e41)" d="M10.414 20.932c-0.060-0.308 0.283-0.736 0.651-0.796 0.536-0.088 1.002 0.625 1.157 1.086 0.214 0.634-0.026 1.18-0.145 1.448-0.148 0.336-0.259 0.358-0.289 0.362-0.219 0.027-0.478-0.374-0.579-0.724-0.088-0.308 0.011-0.35-0.072-0.579-0.172-0.471-0.659-0.468-0.723-0.796z"></path>
<path fill="#9344fb" style="fill: var(--color2, #9344fb)" d="M12.839 22.477l14.353-9.374-0.212-0.048-14.353 9.374 0.212 0.048z"></path>
<path fill="#ffb8b8" style="fill: var(--color4, #ffb8b8)" d="M30.655 4.55l-0.314-1.154 1.415-0.524 0.157 1.049-1.257 0.629z"></path>
<path fill="#000" style="fill: var(--color5, #000)" opacity="0.1" d="M30.655 4.55l-0.314-1.154 0.833-0.352-0.259 1.36-0.26 0.145z"></path>
<path fill="#ffb8b8" style="fill: var(--color4, #ffb8b8)" d="M26.514 14.436c-0.27-0.161-0.284-0.636-0.032-1.061 0.111-0.186 0.254-0.332 0.403-0.423l0.148-0.243 1.877-3.367c0 0 0.821-3.175 1.156-3.559s0.818-0.293 0.818-0.293l0.429 0.381-1.531 4.498-1.889 2.662-0.253 0.37c-0.009 0.175-0.069 0.37-0.179 0.556-0.253 0.425-0.676 0.639-0.947 0.478z"></path>
<path fill="#9344fb" style="fill: var(--color2, #9344fb)" d="M30.577 4.22c0 0 0.597-0.023 0.974 0.441s-1.596 5.694-1.596 5.694l-1.607-0.057 2.23-6.078z"></path>
<path fill="#ffb8b8" style="fill: var(--color4, #ffb8b8)" d="M30.733 3.58c0.81 0 1.467-0.657 1.467-1.468s-0.657-1.468-1.467-1.468c-0.81 0-1.467 0.657-1.467 1.468s0.657 1.468 1.467 1.468z"></path>
<path fill="#ffb8b8" style="fill: var(--color4, #ffb8b8)" d="M27.302 23.425l-0.995 2.464-0.576-0.577-0.21-1.101 0.838-1.049 0.943 0.262z"></path>
<path fill="#ffb8b8" style="fill: var(--color4, #ffb8b8)" d="M36.627 22.534l0.995 1.154-0.471 0.944-1.048-0.157-0.524-1.468 1.048-0.472z"></path>
<path fill="#ffb8b8" style="fill: var(--color4, #ffb8b8)" d="M30 8.771l-0.131 2.124 3.248-0.577-0.209-1.311-2.908-0.236z"></path>
<path fill="#2f2e41" style="fill: var(--color3, #2f2e41)" d="M29.843 10.92l3.274-1.075c0 0 1.205 2.412-0.105 3.932s-5.658 10.172-5.658 10.172l-1.31-0.629 1.886-5.505 2.096-5.086-0.183-1.809z"></path>
<path fill="#2f2e41" style="fill: var(--color3, #2f2e41)" d="M33.012 12.886l1.257 5.505 2.62 4.247-1.362 0.787-3.667-5.034-1.205-3.88 2.358-1.625z"></path>
<path fill="#2f2e41" style="fill: var(--color3, #2f2e41)" d="M25.049 24.002h-0.907c0 0-1.059-0.42-1.307 0s1.107 1.609 1.107 1.609 1.893 1.065 2.155 1.013c0.262-0.052 0.367-0.682 0.367-0.682l0.314-0.734-0.472 0.157c0 0-0.629-0.367-0.471-0.996l-0.786-0.367z"></path>
<path fill="#2f2e41" style="fill: var(--color3, #2f2e41)" d="M37.413 23.845v-0.524l0.609 0.524c0 0 1.015 0.367 0.229 1.154s-1.781 1.625-1.781 1.625-1.572 0.419-1.677-0.052c-0.105-0.472 0-0.663 0-0.663l0.576-0.281 0.524-1.363 0.838 0.105 0.681-0.524z"></path>
<path fill="#2f2e41" style="fill: var(--color3, #2f2e41)" d="M31.179 2.4l-0.472-0.052-0.864-0.865c0 0-0.786 0.419-0.786 0.105 0-1.468 0.891-1.416 1.624-1.521s0.655-0.131 0.891 0.262c0.108 0.18 0.498 0.288 0.498 0.288s0.733-0.996 1.1 0.21c0.367 1.206-0.105 4.929 0.262 5.243s-1.506 0.629-1.303-0.603 0.57-3.119 0.36-3.539c-0.209-0.419-0.262-0.315-0.262-0.315 0.26-0.106 0.429 1.763-0.55 1.855l-0.026-0.911c0 0-0.157-0.472-0.471-0.157z"></path>
<path fill="#9344fb" style="fill: var(--color2, #9344fb)" d="M30.524 4.209l1.572-0.629 2.096 6.292-4.312-0.157-0.388-1.878c0 0-0.379-0.977-0.065-1.554s1.097-2.073 1.097-2.073z"></path>
<path fill="#ffb8b8" style="fill: var(--color4, #ffb8b8)" d="M34.614 14.749c-0.313 0.027-0.601-0.351-0.644-0.843-0.019-0.216 0.013-0.418 0.081-0.579l-0.021-0.284-0.437-3.831c0 0-0.813-3.133-0.765-3.64s0.124-0.642 0.124-0.642l0.571 0.060 1.376 4.547 0.016 3.265 0.010 0.449c0.094 0.147 0.16 0.341 0.178 0.556 0.042 0.493-0.177 0.914-0.491 0.941z"></path>
<path fill="#9344fb" style="fill: var(--color2, #9344fb)" d="M31.965 4.078c0 0 0.471-0.367 1.048-0.21s2.020 5.558 2.020 5.558l-1.339 0.891-1.729-6.239z"></path>
</symbol>
<symbol id="icon-friends" viewBox="0 0 34 32">
<path fill="#632ca6" style="fill: var(--color1, #632ca6)" d="M18.26 30.364c8.43 0 15.263-0.765 15.263-1.709s-6.834-1.709-15.263-1.709c-8.43 0-15.263 0.765-15.263 1.709s6.834 1.709 15.263 1.709z"></path>
<path fill="#ffb8b8" style="fill: var(--color2, #ffb8b8)" d="M25.83 26.765l0.263 0.813c0 0 1.268 1.312 0.809 1.668s-1.487-1.519-1.487-1.519l-0.19-0.917 0.604-0.044z"></path>
<path fill="#fe3fa0" style="fill: var(--color3, #fe3fa0)" d="M23.398 20.476l0.384-0.128c0 0 0.597 0.171 0.682 0.769s0.725 3.631 0.725 3.631 0.256 0.128 0.085 0.342c-0.171 0.214 0.853 2.136 0.853 2.136l-0.81 0.384c0 0-1.62-1.709-1.62-1.879s0.043-0.342 0.043-0.513-0.043-0.171 0-0.299c0.028-0.112 0.043-0.227 0.043-0.342l-0.299-0.683-0.085-3.417z"></path>
<path fill="#632ca6" style="fill: var(--color1, #632ca6)" d="M3.855 23.406c2.129 0 3.855-3.528 3.855-7.88s-1.726-7.88-3.855-7.88c-2.129 0-3.855 3.528-3.855 7.88s1.726 7.88 3.855 7.88z"></path>
<path fill="#3f3d56" style="fill: var(--color4, #3f3d56)" d="M3.82 15.608c0.192-3.43 0.58-5.747 0.584-5.77l-0.084-0.014c-0.004 0.023-0.392 2.344-0.585 5.778-0.178 3.17-0.221 7.964 0.585 12.805l0.084-0.014c-0.804-4.832-0.761-9.619-0.584-12.784z"></path>
<path fill="#3f3d56" style="fill: var(--color4, #3f3d56)" d="M7.3 13.928l-3.486 1.869 0.040 0.075 3.485-1.869-0.040-0.075z"></path>
<path fill="#3f3d56" style="fill: var(--color4, #3f3d56)" d="M0.176 14.865l-0.040 0.075 3.486 1.868 0.040-0.075-3.486-1.868z"></path>
<path fill="#632ca6" style="fill: var(--color1, #632ca6)" d="M12.985 21.566c2.913 0 5.275-4.828 5.275-10.783s-2.362-10.783-5.275-10.783-5.275 4.828-5.275 10.783c0 5.955 2.362 10.783 5.275 10.783z"></path>
<path fill="#3f3d56" style="fill: var(--color4, #3f3d56)" d="M12.921 10.894c0.263-4.695 0.793-7.866 0.799-7.897l-0.084-0.014c-0.005 0.032-0.536 3.206-0.8 7.905-0.243 4.337-0.302 10.897 0.8 17.519l0.084-0.014c-1.1-6.614-1.042-13.166-0.799-17.498z"></path>
<path fill="#3f3d56" style="fill: var(--color4, #3f3d56)" d="M17.707 8.61l-4.77 2.558 0.040 0.075 4.77-2.557-0.040-0.075z"></path>
<path fill="#3f3d56" style="fill: var(--color4, #3f3d56)" d="M7.943 9.892l-0.040 0.075 4.77 2.556 0.040-0.075-4.77-2.556z"></path>
<path fill="#632ca6" style="fill: var(--color1, #632ca6)" d="M8.591 25.768c1.088 0 1.971-1.804 1.971-4.029s-0.882-4.029-1.971-4.029c-1.089 0-1.971 1.804-1.971 4.029s0.882 4.029 1.971 4.029z"></path>
<path fill="#3f3d56" style="fill: var(--color4, #3f3d56)" d="M8.589 21.913l0.012 0.022 1.782-0.956-0.040-0.075-1.75 0.938c0.097-1.785 0.295-2.984 0.299-3.008l-0.084-0.014c-0.004 0.026-0.24 1.449-0.323 3.509l-1.765-0.946-0.040 0.075 1.782 0.956 0.021-0.040c-0.067 1.7-0.029 3.825 0.325 5.955l0.084-0.014c-0.386-2.322-0.395-4.639-0.303-6.401z"></path>
<path fill="#2f2e41" style="fill: var(--color5, #2f2e41)" d="M23.92 16.421c-0.685-1.17-2.041-1.225-2.041-1.225s-1.321-0.171-2.169 1.611c-0.79 1.661-1.88 3.265-0.175 3.654l0.308-0.968 0.191 1.041c0.243 0.018 0.486 0.022 0.729 0.013 1.826-0.059 3.564 0.017 3.508-0.645-0.074-0.88 0.309-2.355-0.351-3.481z"></path>
<path fill="#2f2e41" style="fill: var(--color5, #2f2e41)" d="M19.143 25.794c-0.019 0.122-0.047 0.243-0.083 0.361-0.041 0.116-0.104 0.223-0.141 0.34-0.119 0.373 0.046 0.789 0.309 1.077 0.227 0.248 0.522 0.425 0.848 0.509 0.237 0.060 0.484 0.069 0.729 0.077 0.677 0.023 1.372 0.044 2.014-0.176 0.203-0.071 0.399-0.161 0.585-0.269 0.059-0.028 0.111-0.070 0.152-0.121 0.049-0.070 0.055-0.162 0.055-0.248-0.001-0.29-0.060-0.579-0.046-0.869 0.008-0.161 0.037-0.321 0.023-0.481-0.020-0.181-0.095-0.352-0.215-0.488s-0.279-0.233-0.456-0.276c-0.182-0.040-0.371-0.018-0.556 0-0.481 0.047-0.964 0.069-1.448 0.065-0.494-0.003-0.985-0.079-1.476-0.087-0.145-0.002-0.142 0.043-0.189 0.185-0.043 0.131-0.077 0.264-0.104 0.399z"></path>
<path fill="#2f2e41" style="fill: var(--color5, #2f2e41)" d="M17.212 25.558c-0.133-0.034-0.27-0.048-0.406-0.044-0.144 0.009-0.284 0.048-0.412 0.116s-0.24 0.16-0.329 0.274c-0.088 0.115-0.152 0.247-0.186 0.388s-0.039 0.288-0.014 0.431c0.033 0.155 0.087 0.305 0.161 0.445 0.108 0.221 0.237 0.442 0.437 0.583 0.12 0.078 0.25 0.14 0.385 0.185l1.051 0.4c0.155 0.059 0.309 0.118 0.465 0.172 0.784 0.274 1.602 0.438 2.431 0.488 0.252 0.015 0.509 0.019 0.755-0.039 0.060-0.008 0.115-0.038 0.155-0.084 0.020-0.035 0.032-0.075 0.035-0.115l0.065-0.457c0.014-0.064 0.013-0.13-0.006-0.193-0.030-0.077-0.104-0.125-0.175-0.166-0.691-0.401-1.498-0.622-2.079-1.173-0.137-0.13-0.252-0.335-0.418-0.423-0.189-0.1-0.411-0.157-0.606-0.249-0.426-0.201-0.845-0.432-1.307-0.539z"></path>
<path fill="#000" style="fill: var(--color6, #000)" opacity="0.1" d="M18.261 26.175c0.372 0.118 1.94 0.933 2.209 1.217-0.036 0.013-1.259-0.679-1.295-0.69-0.333-0.101-0.669-0.203-0.985-0.351-0.064-0.030-0.414-0.17-0.398-0.251 0.018-0.092 0.404 0.054 0.47 0.075z"></path>
<path fill="#ffb8b8" style="fill: var(--color2, #ffb8b8)" d="M22.895 29.234c0.021 0.002 0.042-0.005 0.059-0.018 0.007-0.010 0.013-0.021 0.016-0.032s0.004-0.024 0.002-0.036l-0.002-0.623c-0.177-0.085-0.376-0.113-0.57-0.139l-0.909-0.123c0.021 0.003-0.142 0.395-0.117 0.448 0.044 0.092 0.381 0.174 0.476 0.218 0.33 0.152 0.673 0.318 1.045 0.305z"></path>
<path fill="#ffb8b8" style="fill: var(--color2, #ffb8b8)" d="M20.045 28.523c-0.172 0.028-0.363 0.052-0.474 0.187-0.141 0.171-0.081 0.426-0.014 0.638 0.010 0.043 0.030 0.083 0.058 0.116 0.046 0.046 0.116 0.052 0.18 0.057 0.156 0.010 0.323 0.018 0.46-0.060 0.062-0.041 0.122-0.086 0.179-0.134 0.101-0.068 0.212-0.119 0.328-0.152 0.214-0.068 0.435-0.114 0.659-0.137 0.088-0.004 0.175-0.020 0.26-0.046 0.042-0.014 0.081-0.037 0.112-0.068s0.056-0.069 0.070-0.111c0.032-0.113-0.033-0.229-0.096-0.328-0.078-0.124-0.16-0.254-0.276-0.345-0.169-0.133-0.253-0.031-0.424 0.054-0.323 0.161-0.667 0.272-1.023 0.329z"></path>
<path fill="#2f2e41" style="fill: var(--color5, #2f2e41)" d="M19.596 28.679l-1.089-0.325c-0.131-0.046-0.267-0.073-0.405-0.079-0.138 0-0.283 0.046-0.372 0.152-0.084 0.1-0.109 0.237-0.13 0.367l-0.045 0.278c-0.030 0.14-0.038 0.284-0.025 0.427 0.021 0.142 0.092 0.283 0.216 0.351 0.151 0.083 0.335 0.043 0.504 0.008 0.34-0.070 0.685-0.108 1.032-0.112 0.13-0.002 0.267 0 0.382-0.062 0.137-0.073 0.219-0.228 0.233-0.384 0.021-0.237-0.057-0.547-0.301-0.62z"></path>
<path fill="#2f2e41" style="fill: var(--color5, #2f2e41)" d="M23.324 28.395c0.141-0.025 0.266-0.106 0.401-0.154 0.19-0.067 0.397-0.067 0.599-0.067 0.074 0 0.153 0.002 0.215 0.043 0.089 0.060 0.112 0.18 0.127 0.286l0.091 0.645c0.017 0.121 0.034 0.246 0.007 0.365s-0.107 0.235-0.225 0.265c-0.142 0.037-0.282-0.055-0.417-0.115-0.336-0.151-0.727-0.112-1.077-0.225-0.065-0.021-0.135-0.053-0.161-0.116-0.012-0.036-0.016-0.074-0.013-0.111 0.006-0.207-0.037-0.49 0.025-0.688 0.055-0.178 0.27-0.128 0.428-0.128z"></path>
<path fill="#2f2e41" style="fill: var(--color5, #2f2e41)" d="M25.629 25.299c0.218-0.055 0.443-0.071 0.666-0.046 0.178 0.020 0.362 0.070 0.492 0.195 0.158 0.152 0.209 0.386 0.213 0.607 0.007 0.438-0.137 0.866-0.408 1.21-0.066 0.087-0.145 0.163-0.233 0.227-0.095 0.060-0.197 0.11-0.303 0.148l-2.354 0.938c-0.619 0.247-1.241 0.494-1.886 0.657-0.018 0.009-0.037 0.013-0.057 0.015s-0.039-0.002-0.058-0.009c-0.018-0.007-0.035-0.017-0.050-0.031s-0.026-0.030-0.034-0.048c-0.206-0.298-0.379-0.618-0.516-0.954-0.006-0.011-0.010-0.023-0.011-0.035s0-0.025 0.004-0.036c0.009-0.013 0.021-0.023 0.035-0.030l1.665-0.966c0.122-0.064 0.236-0.144 0.339-0.236 0.072-0.071 0.131-0.153 0.174-0.245 0.035-0.073 0.038-0.245 0.082-0.299 0.043-0.053 0.191-0.057 0.259-0.078 0.096-0.030 0.19-0.066 0.282-0.108 0.372-0.168 0.704-0.413 1.061-0.61 0.2-0.116 0.414-0.205 0.637-0.266z"></path>
<path fill="#000" style="fill: var(--color6, #000)" opacity="0.1" d="M24.685 26.021c-0.286 0.217-0.656 0.417-0.94 0.639-0.097 0.076-1.709 0.992-1.732 1.114 0.265 0.045 1.949-1.146 2.19-1.265s0.455-0.286 0.666-0.453c0.054-0.042 0.283-0.17 0.128-0.217-0.087-0.027-0.248 0.138-0.312 0.181z"></path>
<path fill="#ffb8b8" style="fill: var(--color2, #ffb8b8)" d="M21.82 19.365c0.895 0 1.62-0.727 1.62-1.623s-0.725-1.623-1.62-1.623c-0.895 0-1.62 0.727-1.62 1.623s0.725 1.623 1.62 1.623z"></path>
<path fill="#ffb8b8" style="fill: var(--color2, #ffb8b8)" d="M22.503 19.109c0 0-0.256 0.641 0.213 0.897s-1.45 2.306-1.45 2.306l-0.853-2.477c0 0 0.725-0.256 0.597-0.94l1.492 0.213z"></path>
<path fill="#fe3fa0" style="fill: var(--color3, #fe3fa0)" d="M21.437 20.86l1.033-1.142 1.398 0.715-0.213 5.040-0.341 0.384c0 0-1.45 1.281-3.667 0.214 0 0-0.767-0.641-0.725-1.623s-0.085-1.111-0.085-1.111l-0.043-3.46 2.105-0.414 0.538 1.396z"></path>
<path fill="#ffb8b8" style="fill: var(--color2, #ffb8b8)" d="M16.702 26.295l-0.263 0.813c0 0-1.268 1.312-0.809 1.668s1.487-1.519 1.487-1.519l0.19-0.917-0.604-0.044z"></path>
<path fill="#fe3fa0" style="fill: var(--color3, #fe3fa0)" d="M19.134 20.006l-0.384-0.128c0 0-0.597 0.171-0.682 0.769s-0.725 3.631-0.725 3.631c0 0-0.256 0.128-0.085 0.342s-0.853 2.136-0.853 2.136l0.81 0.384c0 0 1.62-1.708 1.62-1.879s-0.043-0.342-0.043-0.512c0-0.171 0.043-0.171 0-0.299-0.028-0.112-0.043-0.227-0.043-0.342l0.298-0.683 0.085-3.417z"></path>
<path fill="#2f2e41" style="fill: var(--color5, #2f2e41)" d="M23.617 16.309l-1.34-0.709-1.85 0.29-0.383 1.708 0.953-0.037 0.266-0.628v0.617l0.44-0.017 0.255-0.999 0.159 1.064 1.563-0.032-0.064-1.257z"></path>
<path fill="#fe3fa0" style="fill: var(--color3, #fe3fa0)" d="M14.121 27.297v2.464h-7.511c0-0.653 0.259-1.28 0.72-1.742s1.087-0.722 1.739-0.722c0.704-0.22 1.519-0.29 2.402-0.267 0.834 0.021 1.728 0.126 2.65 0.267z"></path>
<path fill="#3f3d56" style="fill: var(--color4, #3f3d56)" d="M13.048 29.223h3.532c0.059 0 0.116 0.024 0.158 0.066s0.065 0.099 0.065 0.158c0 0.059-0.023 0.116-0.065 0.158s-0.099 0.066-0.158 0.066h-3.532v-0.448z"></path>
<path fill="#fe3fa0" style="fill: var(--color3, #fe3fa0)" d="M13.66 25.188l0.947-1.15c0.022-0.046 0.057-0.083 0.101-0.108s0.094-0.036 0.145-0.032 0.098 0.024 0.137 0.056c0.039 0.032 0.067 0.076 0.081 0.124l0.373 1.321-1.783-0.211z"></path>
<path fill="#fe3fa0" style="fill: var(--color3, #fe3fa0)" d="M12.511 25.774l0.358-1.447c0-0.051 0.015-0.1 0.044-0.142s0.069-0.073 0.117-0.091c0.047-0.018 0.099-0.021 0.148-0.009s0.093 0.039 0.127 0.077l0.906 1.029-1.699 0.582z"></path>
<path fill="#fe3fa0" style="fill: var(--color3, #fe3fa0)" d="M6.609 29.76h0.715v1.523c0 0.094-0.019 0.187-0.054 0.274s-0.089 0.166-0.155 0.233c-0.066 0.067-0.145 0.119-0.232 0.155s-0.18 0.055-0.274 0.055v-2.24z"></path>
<path fill="#fe3fa0" style="fill: var(--color3, #fe3fa0)" d="M12.914 29.312h3.532c0.059 0 0.116 0.024 0.158 0.066s0.066 0.099 0.066 0.158c0 0.059-0.024 0.116-0.066 0.158s-0.099 0.066-0.158 0.066h-3.532v-0.448z"></path>
<path fill="#000" style="fill: var(--color6, #000)" opacity="0.2" d="M14.121 27.297v2.45c-0.363 0.039-0.73-0.006-1.073-0.129s-0.654-0.324-0.909-0.585c-0.255-0.262-0.448-0.577-0.563-0.924s-0.151-0.715-0.104-1.078c0.834 0.021 1.728 0.126 2.65 0.267z"></path>
<path fill="#fe3fa0" style="fill: var(--color3, #fe3fa0)" d="M14.121 29.76c1.333 0 2.414-1.083 2.414-2.419s-1.081-2.419-2.414-2.419c-1.333 0-2.414 1.083-2.414 2.419s1.081 2.419 2.414 2.419z"></path>
<path fill="#3f3d56" style="fill: var(--color4, #3f3d56)" d="M16.446 28.148c0.148 0 0.268-0.281 0.268-0.627s-0.12-0.627-0.268-0.627c-0.148 0-0.268 0.281-0.268 0.627s0.12 0.627 0.268 0.627z"></path>
<path fill="#3f3d56" style="fill: var(--color4, #3f3d56)" d="M15.798 27.028c0.037 0 0.067-0.070 0.067-0.157s-0.030-0.157-0.067-0.157-0.067 0.070-0.067 0.157c0 0.087 0.030 0.157 0.067 0.157z"></path>
<path fill="#3f3d56" style="fill: var(--color4, #3f3d56)" d="M16.29 26.715c0.037 0 0.067-0.070 0.067-0.157s-0.030-0.157-0.067-0.157-0.067 0.070-0.067 0.157c0 0.087 0.030 0.157 0.067 0.157z"></path>
<path fill="#3f3d56" style="fill: var(--color4, #3f3d56)" d="M13.918 24.896c0 0-0.134-0.234-0.134-0.376z"></path>
<path fill="#3f3d56" style="fill: var(--color4, #3f3d56)" d="M13.977 24.745c0 0 0.073-0.26 0.175-0.359z"></path>
</symbol>
<symbol id="icon-check-list-dog" viewBox="0 0 91 32">
<path fill="#fff" style="fill: var(--color1, #fff)" d="M0.076 29.103l90.846-2.379-0.007-0.247-90.846 2.379c-0.057 0.001-0.101 0.058-0.099 0.126s0.049 0.122 0.106 0.121z"></path>
<path fill="#fff" style="fill: var(--color1, #fff)" d="M29.607 29.017c0.331 1.588 2.219-0.364 2.219-0.364l2.252-0.265c0 0 1.424 0.033 2.351 0.761s1.556-0.232 1.556-0.232c1.044 0.348 2.324 0.346 3.433 0.235 1.597-0.16 2.877-1.392 3.097-2.981 1.238-8.962-5.569-13.366-5.569-13.366l-1.987-5.36c0 0 0.629-1.555 0.828-2.945s-1.258-2.713-3.047-4.036c-0.782-0.579-1.679-0.537-2.44-0.307-0.854 0.258-1.598 0.789-2.148 1.49-0.456 0.581-1.238 1.404-2.097 1.546-0.297 0.049-0.591 0.167-0.865 0.381-0.284 0.222-0.409 0.592-0.413 1.051-0.021 2.009 1.639 4.427 3.095 4.805 1.788 0.463 0.828 4.863 0.828 4.863-2.914 4.103-0.861 8.668-0.861 8.668l-0.53 3.705c0 0-0.033 0.761 0.298 2.349z"></path>
<path fill="#fff" style="fill: var(--color1, #fff)" d="M39.342 20.482l-0.728 9.065c0 0 0.993 2.514-2.384 2.382s-1.391-5.293-1.391-5.293l1.060-6.749z"></path>
<path fill="#3f3d56" style="fill: var(--color2, #3f3d56)" opacity="0.3" d="M36.481 32c-0.083 0-0.167-0.002-0.254-0.005-0.748-0.029-1.298-0.304-1.637-0.818-0.967-1.468 0.108-4.361 0.184-4.559l1.059-6.742c0.006-0.036 0.039-0.060 0.076-0.055s0.061 0.040 0.055 0.076l-1.060 6.749c-0.001 0.005-0.002 0.009-0.004 0.013-0.011 0.030-1.142 3.014-0.199 4.446 0.313 0.475 0.829 0.731 1.531 0.758 1.103 0.043 1.845-0.192 2.205-0.699 0.472-0.664 0.118-1.583 0.115-1.592s-0.005-0.020-0.004-0.030l0.729-9.065c0.003-0.036 0.034-0.063 0.071-0.061s0.064 0.035 0.061 0.071l-0.727 9.050c0.048 0.13 0.35 1.019-0.135 1.702-0.359 0.505-1.053 0.761-2.065 0.761z"></path>
<path fill="#fff" style="fill: var(--color1, #fff)" d="M33.316 22.334c0 0 0.199 8.403-3.974 8.205s-0.397-2.845-0.397-2.845l0.364-1.026z"></path>
<path fill="#3f3d56" style="fill: var(--color2, #3f3d56)" opacity="0.3" d="M29.485 30.609c-0.048 0-0.097-0.001-0.146-0.003-1.191-0.057-1.865-0.323-2.001-0.793-0.245-0.846 1.354-2.020 1.551-2.161l0.357-1.006c0.012-0.034 0.050-0.052 0.084-0.040s0.052 0.050 0.040 0.084l-0.364 1.026c-0.005 0.013-0.013 0.024-0.024 0.032-0.017 0.012-1.747 1.236-1.517 2.028 0.119 0.409 0.751 0.644 1.88 0.697 0.752 0.036 1.41-0.216 1.957-0.75 2.050-1.999 1.949-7.334 1.947-7.388-0.001-0.037 0.028-0.067 0.065-0.068 0.035 0 0.067 0.028 0.068 0.065 0.005 0.221 0.104 5.446-1.987 7.485-0.538 0.525-1.18 0.791-1.91 0.791z"></path>
<path fill="#6c30b4" style="fill: var(--color3, #6c30b4)" d="M26.777 4.627c0.475 0.057 1.22 0.054 1.836-0.357 0.66-0.44-0.025-0.85-0.559-1.076-0.297 0.049-0.591 0.167-0.865 0.381-0.283 0.222-0.409 0.592-0.413 1.051z"></path>
<path fill="#6c30b4" style="fill: var(--color3, #6c30b4)" d="M34.461 3.437c0 0-1.156-2.965 0.5-3.007s2.963 2.528 2.963 2.528 4.154 7.566-1.537 7.158c-5.692-0.408-2.972-3.428-2.972-3.428s1.298-1.595 1.047-3.251z"></path>
<path fill="#fff" style="fill: var(--color1, #fff)" d="M40.802 25.598c0.733 0.326 1.499 0.658 2.301 0.626s1.645-0.548 1.77-1.339c0.065-0.409-0.063-0.847 0.093-1.23 0.211-0.515 0.891-0.714 1.419-0.537s0.917 0.632 1.195 1.114c0.521 0.902 0.729 2.087 0.171 2.966-0.484 0.763-1.402 1.107-2.256 1.403-1.138 0.394-2.408 0.784-3.51 0.301-1.108-0.486-1.712-1.891-1.302-3.029z"></path>
<path fill="#6c30b4" style="fill: var(--color3, #6c30b4)" d="M38.357 11.31c0 0 1.457 0.728 0.728 1.522s-5.232 3.044-6.888 2.713c-1.656-0.331-2.053-1.323-2.053-1.588s0.125-3.466 0.655-3.334c0.53 0.132 3.849 3.136 7.558 0.687z"></path>
</symbol>
<symbol id="icon-check-list-help" viewBox="0 0 33 32">
<path fill="#472179" style="fill: var(--color1, #472179)" d="M27.644 31.946c-0.026-0.042-0.633-1.057-0.844-3.163-0.193-1.933-0.069-5.19 1.621-9.735 3.201-8.609-0.738-15.555-0.778-15.624l0.194-0.113c0.010 0.018 1.026 1.788 1.627 4.608 0.793 3.739 0.504 7.626-0.833 11.206-3.195 8.594-0.82 12.662-0.795 12.702l-0.192 0.117z"></path>
<path fill="#fff" style="fill: var(--color2, #fff)" d="M26.393 2.919c0.806 0 1.46-0.654 1.46-1.46s-0.654-1.46-1.46-1.46c-0.806 0-1.46 0.653-1.46 1.46s0.653 1.46 1.46 1.46z"></path>
<path fill="#3f3d56" style="fill: var(--color3, #3f3d56)" d="M30.996 8.309c0.806 0 1.46-0.654 1.46-1.46s-0.654-1.46-1.46-1.46c-0.806 0-1.46 0.654-1.46 1.46s0.653 1.46 1.46 1.46z"></path>
<path fill="#fff" style="fill: var(--color2, #fff)" d="M27.852 11.902c0.806 0 1.46-0.653 1.46-1.46s-0.654-1.46-1.46-1.46c-0.806 0-1.46 0.653-1.46 1.46s0.653 1.46 1.46 1.46z"></path>
<path fill="#fff" style="fill: var(--color2, #fff)" d="M31.67 14.933c0.806 0 1.46-0.653 1.46-1.46s-0.654-1.46-1.46-1.46c-0.806 0-1.46 0.653-1.46 1.46s0.653 1.46 1.46 1.46z"></path>
<path fill="#472179" style="fill: var(--color1, #472179)" d="M26.729 19.649c0.806 0 1.46-0.653 1.46-1.46s-0.654-1.46-1.46-1.46c-0.806 0-1.46 0.653-1.46 1.46s0.653 1.46 1.46 1.46z"></path>
<path fill="#472179" style="fill: var(--color1, #472179)" d="M28.526 32c0 0-1.46-3.593 2.919-6.288l-2.919 6.288z"></path>
<path fill="#472179" style="fill: var(--color1, #472179)" d="M26.731 31.935c0 0-0.664-3.821-5.806-3.788l5.806 3.788z"></path>
<path fill="#472179" style="fill: var(--color1, #472179)" d="M17.095 5.148c-0.053-0.013-0.108-0.006-0.156 0.019s-0.085 0.067-0.104 0.117-0.020 0.106-0.001 0.157c0.019 0.051 0.055 0.093 0.102 0.119 0.762 0.425 1.432 0.997 1.972 1.682 2.517 3.195 1.638 8.086-1.963 10.923-1.599 1.282-3.593 1.971-5.643 1.95 2.418 0.681 5.273 0.145 7.573-1.667 3.602-2.837 4.481-7.728 1.963-10.923-0.946-1.19-2.264-2.027-3.743-2.377z"></path>
<path fill="#fff" style="fill: var(--color2, #fff)" d="M18.908 7.292c2.517 3.195 1.638 8.086-1.963 10.923-1.32 1.051-2.908 1.711-4.585 1.903 2.002-0.012 3.941-0.699 5.504-1.951 3.602-2.837 4.481-7.728 1.963-10.923-0.714-0.904-1.65-1.608-2.717-2.042l-0.017-0.004c-0.052-0.012-0.108-0.005-0.155 0.020s-0.084 0.067-0.104 0.117-0.019 0.106-0.001 0.156c0.019 0.051 0.055 0.093 0.102 0.118 0.762 0.425 1.432 0.997 1.972 1.682z"></path>
<path fill="#fff" style="fill: var(--color2, #fff)" d="M7.743 2.358l2.972 5.147h-5.944l2.972-5.147z"></path>
<path fill="#fff" style="fill: var(--color2, #fff)" d="M13.163 2.358l2.972 5.147h-5.944l2.972-5.147z"></path>
<path fill="#472179" style="fill: var(--color1, #472179)" d="M7.572 3.7l1.834 3.176h-3.667l1.834-3.176z"></path>
<path fill="#472179" style="fill: var(--color1, #472179)" d="M13.142 3.7l1.834 3.176h-3.667l1.834-3.176z"></path>
<path fill="#fff" style="fill: var(--color2, #fff)" d="M20.906 20.667c0 2.379-0.811 4.687-2.3 6.542s-3.566 3.148-5.889 3.663c-2.323 0.515-4.751 0.223-6.885-0.829s-3.845-2.8-4.851-4.956c-1.006-2.156-1.246-4.59-0.682-6.901s1.901-4.36 3.788-5.809c1.887-1.449 4.212-2.211 6.59-2.16s4.668 0.912 6.492 2.44c1.17 0.981 2.112 2.207 2.757 3.591s0.98 2.892 0.98 4.42z"></path>
<path fill="#fff" style="fill: var(--color2, #fff)" opacity="0.1" d="M17.168 12.657c-0.874 2.284-3.55 3.945-6.715 3.945s-5.84-1.662-6.715-3.945c1.882-1.578 4.259-2.442 6.715-2.442s4.833 0.865 6.715 2.442z"></path>
<path fill="#472179" style="fill: var(--color1, #472179)" d="M10.453 15.78c3.875 0 7.017-2.492 7.017-5.565s-3.142-5.565-7.017-5.565-7.017 2.492-7.017 5.565c0 3.073 3.141 5.565 7.017 5.565z"></path>
<path fill="#fff" style="fill: var(--color2, #fff)" d="M7.163 10.747c0.722 0 1.307-0.585 1.307-1.307s-0.585-1.307-1.307-1.307c-0.722 0-1.307 0.585-1.307 1.307s0.585 1.307 1.307 1.307z"></path>
<path fill="#fff" style="fill: var(--color2, #fff)" d="M13.744 10.747c0.722 0 1.307-0.585 1.307-1.307s-0.585-1.307-1.307-1.307c-0.722 0-1.306 0.585-1.306 1.307s0.585 1.307 1.306 1.307z"></path>
<path fill="#472179" style="fill: var(--color1, #472179)" d="M7.163 10.264c0.454 0 0.823-0.368 0.823-0.823s-0.368-0.823-0.823-0.823c-0.454 0-0.823 0.368-0.823 0.823s0.368 0.823 0.823 0.823z"></path>
<path fill="#472179" style="fill: var(--color1, #472179)" d="M13.744 10.264c0.454 0 0.823-0.368 0.823-0.823s-0.368-0.823-0.823-0.823c-0.454 0-0.823 0.368-0.823 0.823s0.368 0.823 0.823 0.823z"></path>
<path fill="#fff" style="fill: var(--color2, #fff)" d="M8.986 11.522c0.134 0 0.242-0.108 0.242-0.242s-0.108-0.242-0.242-0.242-0.242 0.108-0.242 0.242c0 0.134 0.108 0.242 0.242 0.242z"></path>
<path fill="#fff" style="fill: var(--color2, #fff)" d="M8.893 11.218c-0.475 0.215-0.789 0.654-1.288 0.843-0.508 0.191-1.067 0.202-1.581 0.029-0.089-0.029-0.127 0.111-0.039 0.14 0.516 0.172 1.073 0.17 1.588-0.004 0.243-0.083 0.472-0.204 0.677-0.36 0.238-0.18 0.44-0.398 0.716-0.523 0.085-0.039 0.011-0.164-0.073-0.125z"></path>
<path fill="#fff" style="fill: var(--color2, #fff)" d="M9.082 11.156c-0.243 0.056-0.476 0.144-0.695 0.263-0.252 0.122-0.523 0.198-0.802 0.226-0.528 0.046-1.057-0.088-1.5-0.38-0.078-0.051-0.151 0.074-0.073 0.125 0.443 0.291 0.968 0.433 1.498 0.405 0.257-0.013 0.51-0.068 0.75-0.163 0.289-0.115 0.551-0.283 0.861-0.337 0.092-0.016 0.053-0.156-0.039-0.14z"></path>
<path fill="#fff" style="fill: var(--color2, #fff)" d="M8.952 11.062c-0.37 0.349-0.523 0.852-0.915 1.19-0.422 0.363-0.959 0.565-1.515 0.569-0.019 0.001-0.037 0.009-0.050 0.022s-0.020 0.032-0.020 0.050 0.007 0.037 0.020 0.051c0.013 0.013 0.031 0.021 0.050 0.022 0.539-0.004 1.062-0.182 1.491-0.509 0.194-0.147 0.364-0.323 0.505-0.521 0.183-0.259 0.304-0.552 0.537-0.773 0.068-0.064-0.035-0.167-0.103-0.103z"></path>
<path fill="#fff" style="fill: var(--color2, #fff)" d="M11.534 11.522c0.134 0 0.242-0.108 0.242-0.242s-0.108-0.242-0.242-0.242-0.242 0.108-0.242 0.242c0 0.134 0.108 0.242 0.242 0.242z"></path>
<path fill="#fff" style="fill: var(--color2, #fff)" d="M11.553 11.343c0.273 0.124 0.474 0.338 0.709 0.518 0.207 0.158 0.438 0.281 0.684 0.365 0.515 0.175 1.072 0.176 1.588 0.004 0.088-0.029 0.050-0.169-0.039-0.14-0.515 0.172-1.073 0.162-1.581-0.029-0.499-0.189-0.813-0.627-1.288-0.843-0.084-0.038-0.158 0.087-0.073 0.125z"></path>
<path fill="#fff" style="fill: var(--color2, #fff)" d="M11.399 11.296c0.298 0.051 0.55 0.209 0.826 0.323 0.25 0.102 0.515 0.162 0.785 0.177 0.53 0.028 1.055-0.114 1.498-0.405 0.078-0.051 0.005-0.177-0.073-0.125-0.443 0.292-0.971 0.426-1.499 0.38-0.278-0.028-0.55-0.105-0.802-0.226-0.219-0.118-0.453-0.207-0.695-0.263-0.091-0.016-0.131 0.124-0.039 0.14z"></path>
<path fill="#fff" style="fill: var(--color2, #fff)" d="M11.465 11.165c0.233 0.22 0.354 0.514 0.537 0.772 0.141 0.198 0.311 0.374 0.505 0.521 0.429 0.326 0.952 0.504 1.491 0.509 0.019-0.001 0.037-0.009 0.050-0.022s0.020-0.032 0.020-0.051-0.007-0.037-0.020-0.051c-0.013-0.013-0.031-0.021-0.050-0.022-0.557-0.004-1.094-0.206-1.515-0.569-0.39-0.339-0.546-0.841-0.915-1.19-0.068-0.064-0.171 0.038-0.103 0.103z"></path>
<path fill="#472179" style="fill: var(--color1, #472179)" d="M7.163 31.846c1.069 0 1.936-0.498 1.936-1.113s-0.867-1.113-1.936-1.113-1.936 0.498-1.936 1.113c0 0.615 0.867 1.113 1.936 1.113z"></path>
<path fill="#472179" style="fill: var(--color1, #472179)" d="M13.744 31.846c1.069 0 1.936-0.498 1.936-1.113s-0.867-1.113-1.936-1.113-1.936 0.498-1.936 1.113c0 0.615 0.867 1.113 1.936 1.113z"></path>
<path fill="#fff" style="fill: var(--color2, #fff)" d="M10.26 12.151c0.882 0 1.597-0.412 1.597-0.919s-0.715-0.919-1.597-0.919-1.597 0.412-1.597 0.919c0 0.508 0.715 0.919 1.597 0.919z"></path>
</symbol>
</defs>
</svg>
