<svg aria-hidden="true" style="position: absolute; width: 0; height: 0; overflow: hidden;" version="1.1" xmlns="http://www.w3.org/2000/svg" xmlns:xlink="http://www.w3.org/1999/xlink">
<defs>
<symbol id="icon-hero-image" viewBox="0 0 21 32">
<path fill="#fff" style="fill: var(--color1, #fff)" d="M1.902 0.189c-0.377 0.204-0.566 0.532-0.568 0.987-0.001 0.365 0.087 0.576 0.354 0.838s0.54 0.404 0.997 0.519l0.355 0.089 0.032 0.262c0.017 0.144 0.046 0.319 0.063 0.389s0.024 0.127 0.016 0.127-0.382-0.126-0.83-0.281c-0.997-0.344-1.328-0.389-1.654-0.227-0.347 0.172-0.492 0.429-0.513 0.91-0.016 0.365-0.009 0.397 0.148 0.636 0.117 0.177 0.246 0.295 0.437 0.397 0.265 0.142 0.289 0.145 0.901 0.129l0.629-0.017 0.109 0.203c0.338 0.631 0.928 1.149 1.505 1.321 0.286 0.085 0.908 0.082 1.198-0.006 0.111-0.034 0.111-0.030 0.111 0.503 0 1.282 0.209 2.165 1.186 5.002 0.168 0.488 0.386 1.195 0.485 1.572 0.176 0.671 0.179 0.704 0.182 1.648 0.002 0.902-0.006 0.996-0.135 1.466-0.24 0.882-0.487 1.308-1.745 3.021-0.728 0.991-1.025 1.304-1.532 1.611-0.815 0.495-1.573 0.491-2.818-0.014-0.545-0.221-0.683-0.214-0.765 0.041-0.183 0.569 0.446 1.634 1.209 2.047 0.505 0.273 0.796 0.334 1.476 0.31 0.776-0.028 1.070-0.136 1.466-0.541 0.153-0.156 0.313-0.341 0.355-0.409l0.076-0.125 0.105 0.288c0.455 1.246 0.435 3.076-0.047 4.359l-0.15 0.398 0.076 0.67c0.042 0.369 0.155 1.337 0.252 2.153s0.175 1.494 0.175 1.509c0 0.045 2.664 0.028 2.692-0.017 0.050-0.082-0.303-0.745-0.482-0.906-0.227-0.205-0.504-0.285-0.77-0.224-0.202 0.047-0.618 0.27-0.673 0.362-0.077 0.128-0.135 0.038-0.108-0.168 0.016-0.12 0.065-0.536 0.108-0.925 0.102-0.914 0.283-1.67 0.52-2.178 0.363-0.776 0.318-0.808 0.733 0.519 0.199 0.635 0.531 1.696 0.738 2.359l0.377 1.204h1.323c0.728 0 1.335-0.020 1.35-0.045 0.048-0.080-0.315-0.753-0.492-0.912-0.375-0.338-0.839-0.312-1.344 0.076l-0.158 0.121-0.028-0.216c-0.036-0.273-0.15-1.475-0.249-2.624-0.042-0.488-0.087-0.937-0.1-0.997-0.019-0.087 0.020-0.136 0.186-0.236 0.546-0.33 1.003-1.019 1.15-1.733 0.14-0.683 0.073-1.629-0.181-2.561-0.138-0.505-0.105-1.137 0.097-1.851 0.28-0.99 0.697-1.637 1.722-2.671 0.35-0.353 0.707-0.701 0.792-0.773 0.206-0.174 0.8-0.898 1.023-1.247 0.606-0.951 0.731-2.284 0.347-3.713-0.070-0.259-0.137-0.519-0.15-0.578-0.027-0.124 0.188-0.254 1.705-1.030 1.236-0.633 2.216-1.071 3.077-1.377l0.418-0.149 0.218 0.105c0.514 0.248 0.982 0.167 1.339-0.23 0.187-0.208 0.3-0.451 0.238-0.514-0.041-0.043-1.261-0.315-1.568-0.35-0.215-0.025-0.471 0.013-1.212 0.176-0.517 0.114-1.207 0.265-1.534 0.336s-1.087 0.237-1.689 0.37c-0.602 0.132-1.087 0.217-1.077 0.187s0.309-1.009 0.664-2.177c0.355-1.168 0.667-2.163 0.692-2.211s0.179-0.137 0.343-0.198c0.642-0.24 0.835-0.84 0.549-1.704-0.046-0.139-0.112-0.254-0.146-0.254s-0.356 0.262-0.716 0.583c-0.632 0.563-0.665 0.603-0.96 1.147-0.744 1.375-1.909 3.168-2.415 3.718l-0.303 0.33-0.364-0.35c-0.384-0.369-0.933-0.99-0.933-1.056-0-0.021-0.052-0.124-0.115-0.228-0.521-0.86-0.416-1.414 0.341-1.812 0.53-0.278 1.502-0.936 1.95-1.319 0.672-0.575 1.039-1.129 1.039-1.571 0-0.392-0.341-1.273-0.635-1.639l-0.135-0.168-0.32 0.185c-0.176 0.102-0.342 0.204-0.37 0.226-0.087 0.072-1.616 0.922-1.628 0.905-0.006-0.009-0.077-0.125-0.156-0.257-0.139-0.231-0.154-0.241-0.374-0.241-0.288-0-1.029 0.129-1.355 0.236-0.423 0.139-0.941 0.42-1.26 0.683l-0.306 0.252-0.388-0.101c-0.867-0.225-1.411-0.586-2.353-1.563-0.685-0.711-0.953-0.877-1.408-0.875-0.15 0.001-0.339 0.038-0.421 0.082zM9.937 6.099c-0.177 0.066-0.29 0.244-0.291 0.461-0.002 0.424 0.495 0.61 0.761 0.285 0.162-0.197 0.164-0.401 0.005-0.595-0.137-0.167-0.296-0.218-0.475-0.151z"></path>
<path fill="#472179" style="fill: var(--color2, #472179)" d="M17.748 8.607c-1.122 0.301-4.066 0.879-4.282 0.927-0.1 0.022-0.11 0.060-0.143 0.083s-0.339 0.786-0.56 1.634c-0.254 0.98-0.478 1.718-0.612 2.026-0.417 0.952-0.967 1.623-2.314 2.826-1.030 0.919-1.389 1.341-1.647 1.934-0.169 0.39-0.193 0.496-0.199 0.912-0.008 0.538 0.073 0.985 0.287 1.567 0.19 0.518 0.646 1.391 1.087 2.080l0.345 0.539 0.044-0.582c0.056-0.738 0.166-1.228 0.406-1.804 0.315-0.758 0.621-1.166 2.003-2.674 1.122-1.224 1.452-1.768 1.641-2.705 0.085-0.421 0.090-0.568 0.040-1.215-0.046-0.6 0.007-0.851-0.147-1.361-0.104-0.344-0.201-0.672-0.217-0.729-0.019-0.071 0.009-0.125 0.088-0.17 0.064-0.036 0.567-0.294 1.292-0.71 1.452-0.624 2.354-1.093 3.211-1.439l0.608-0.245 0.288 0.138c0.47 0.257 0.91 0.081 1.216-0.239 0.189-0.198 0.375-0.514 0.328-0.558-0.050-0.047-1.646-0.465-1.819-0.455-0.085 0.005-0.509 0.104-0.943 0.22z"></path>
<path fill="#472179" style="fill: var(--color2, #472179)" d="M5.75 7.985c1.114-0.1 2.597-0.644 3.361-1.232 0.283-0.218 0.322-0.231 0.325-0.112 0.001 0.047 0.088 0.236 0.192 0.42l0.19 0.333-0.134 0.115c-0.229 0.197-0.876 0.595-1.251 0.77-0.804 0.374-2.201 0.722-2.786 0.694l-0.213-0.010-0.069-0.334c-0.131-0.631-0.151-0.597 0.385-0.645z"></path>
<path fill="#472179" style="fill: var(--color2, #472179)" d="M9.724 6.886c-0.154-0.158-0.142-0.513 0.024-0.694 0.287-0.313 0.807-0.085 0.807 0.353 0 0.284-0.288 0.54-0.547 0.487-0.098-0.020-0.226-0.086-0.285-0.147z"></path>
<path fill="#472179" style="fill: var(--color2, #472179)" d="M1.218 1.51c-0.184-0.494 0.059-1.143 0.517-1.381 0.155-0.080 0.336-0.124 0.513-0.124 0.433 0 0.755 0.201 1.387 0.865 0.302 0.317 0.726 0.724 0.943 0.905 0.455 0.378 1.179 0.681 1.673 0.798 0.188 0.045 0.204 0.042 0.217 0.055 0.021 0.021 0.064 0.37-0.274 0.819-0.103 0.137-0.255 0.391-1.159 0.391-0.976 0-1.757-0.265-1.881-0.435-0.035-0.049-0.044-0.12-0.079-0.344-0.059-0.373-0.076-0.411-0.205-0.438-0.874-0.188-1.456-0.578-1.654-1.111z"></path>
<path fill="#472179" style="fill: var(--color2, #472179)" d="M11.593 1c0.009-0.008 0.164-0.099 0.344-0.201s0.332-0.186 0.336-0.187c0.005-0 0.101 0.144 0.214 0.321 0.239 0.375 0.215 0.448-0.162 0.491-0.174 0.020-0.273-0-0.424-0.087-0.174-0.1-0.353-0.296-0.308-0.337z"></path>
</symbol>
<symbol id="icon-paw" viewBox="0 0 28 32">
<path d="M12.52 1.132c-0.967 0.991-0.974 1.257-0.137 4.836 0.765 3.271 1.552 4.735 3.060 5.69 1.52 0.963 2.369 0.858 3.646-0.451 0.959-0.983 1.108-1.355 1.102-2.757-0.013-2.933-2.020-6.13-4.675-7.447-1.771-0.879-2.022-0.868-2.995 0.129zM7.069 2.346c-0.316 0.188-0.971 1.124-1.456 2.079-1.804 3.552-0.843 8.303 1.963 9.709 1.067 0.534 1.375 0.561 2.242 0.193 1.121-0.476 2.208-2.498 2.22-4.132 0.010-1.402-1.23-5.916-1.967-7.158-0.662-1.116-1.837-1.386-3.003-0.69zM21.327 6.233c-0.937 2.023-1.018 5.351-0.179 7.296 0.896 2.077 1.465 2.709 2.858 3.181 3.355 1.135 4.835-2.543 3.022-7.509-0.941-2.577-2.483-4.209-3.979-4.209-1.003 0-1.219 0.156-1.722 1.242zM0.606 11.759c-0.585 0.949-0.644 1.425-0.47 3.76 0.263 3.537 1.312 5.955 2.926 6.744 1.493 0.729 2.657 0.35 3.675-1.199 1.506-2.291 0.555-6.114-2.26-9.088-1.622-1.713-2.904-1.785-3.87-0.217zM13.839 15.113c-2.564 0.876-5.898 4.261-6.936 7.041-1.225 3.282-0.791 5.789 1.409 8.143 1.147 1.227 1.529 1.432 2.664 1.432 1.065 0 1.634-0.262 2.901-1.335 2.303-1.951 4.088-2.461 7.608-2.176 3.464 0.281 4.065 0.029 4.978-2.088 1.195-2.77 0.207-6.362-2.313-8.407-2.916-2.368-7.574-3.547-10.311-2.611z"></path>
</symbol>
<symbol id="icon-home-hero-btn-text" viewBox="0 0 32 32">
<path fill="#ffdfe5" style="fill: var(--color1, #ffdfe5)" d="M25.502 17.154c0.025-0.292 0.099-0.512 0.223-0.658s0.307-0.209 0.549-0.188l0.001 0.428-0.001 0.178-0.082-0.007c-0.070-0.006-0.133 0.014-0.188 0.059s-0.087 0.115-0.095 0.21c-0.005 0.064-0.001 0.117 0.012 0.161 0.015 0.022 0.043 0.034 0.081 0.037 0.084 0.007 0.156-0.010 0.216-0.052 0.060-0.040 0.096-0.112 0.11-0.214l0.052-0.332 0.182 0.016-0.007 0.335c-0.004 0.101 0.021 0.177 0.075 0.227s0.12 0.078 0.2 0.085c0.025 0.002 0.048-0.003 0.069-0.015 0.023-0.051 0.037-0.103 0.041-0.156 0.009-0.103-0.011-0.179-0.061-0.228-0.049-0.048-0.106-0.075-0.169-0.080l-0.082-0.007 0.029-0.176 0.073-0.421c0.239 0.020 0.408 0.111 0.505 0.273 0.097 0.163 0.134 0.39 0.109 0.681-0.009 0.107-0.035 0.217-0.077 0.329s-0.104 0.205-0.183 0.278c-0.080 0.073-0.176 0.105-0.288 0.095-0.107-0.009-0.188-0.036-0.242-0.082s-0.089-0.102-0.105-0.171c-0.015-0.069-0.019-0.151-0.014-0.248l-0.051-0.004c-0.011 0.098-0.031 0.179-0.058 0.244-0.028 0.067-0.073 0.117-0.135 0.153-0.061 0.037-0.145 0.051-0.253 0.042-0.115-0.010-0.207-0.058-0.277-0.146-0.068-0.087-0.114-0.191-0.138-0.31-0.023-0.118-0.030-0.23-0.021-0.338z"></path>
<path fill="#ffdfe5" style="fill: var(--color1, #ffdfe5)" d="M26.758 19.856c-0.125-0.039-0.412-0.119-0.861-0.241s-0.736-0.197-0.863-0.227l0.151-0.558c0.205 0.062 0.446 0.131 0.725 0.206l0.131-0.483c-0.223-0.060-0.466-0.125-0.729-0.193l0.151-0.558c0.317 0.094 0.603 0.176 0.858 0.245s0.543 0.143 0.866 0.223l-0.151 0.558c-0.264-0.075-0.494-0.139-0.688-0.191l-0.131 0.484c0.25 0.068 0.481 0.127 0.692 0.178l-0.151 0.558z"></path>
<path fill="#ffdfe5" style="fill: var(--color1, #ffdfe5)" d="M24.571 20.36c0.103 0.023 0.172 0.039 0.208 0.047 0.018 0.005 0.039 0.009 0.061 0.013 0.023 0.006 0.049 0.012 0.077 0.018l0.1-0.217 0.099-0.215-0.281-0.218 0.248-0.535 0.405 0.317c0.524 0.411 0.871 0.68 1.042 0.808l-0.417 0.901c-0.33-0.074-0.929-0.198-1.796-0.372l0.253-0.546zM25.207 20.502c0.416 0.093 0.729 0.179 0.939 0.257l0.013-0.028c-0.217-0.13-0.485-0.312-0.804-0.548l-0.148 0.319z"></path>
<path fill="#ffdfe5" style="fill: var(--color1, #ffdfe5)" d="M23.631 21.863c0.223 0.161 0.479 0.341 0.768 0.54 0.175 0.12 0.272 0.188 0.292 0.204l0.020-0.029c-0.12-0.12-0.23-0.245-0.331-0.373l-0.505-0.695 0.433-0.628c0.233 0.168 0.479 0.341 0.739 0.52 0.258 0.178 0.502 0.342 0.732 0.493l-0.301 0.438c-0.384-0.276-0.658-0.47-0.821-0.583-0.111-0.076-0.187-0.13-0.23-0.161l-0.017 0.025c0.056 0.059 0.132 0.147 0.228 0.263l0.597 0.809-0.432 0.627c-0.24-0.175-0.459-0.331-0.658-0.468-0.278-0.191-0.548-0.373-0.812-0.545l0.3-0.436zM25.531 23.302c-0.201-0.146-0.227-0.327-0.078-0.543 0.141-0.204 0.318-0.243 0.531-0.115l-0.078 0.146c-0.036-0.025-0.076-0.027-0.119-0.005-0.042 0.022-0.083 0.062-0.123 0.12-0.043 0.062-0.067 0.116-0.073 0.163-0.005 0.049 0.010 0.086 0.046 0.111l-0.107 0.122z"></path>
<path fill="#ffdfe5" style="fill: var(--color1, #ffdfe5)" d="M23.202 22.369c0.23 0.227 0.438 0.429 0.624 0.605 0.12 0.114 0.239 0.224 0.357 0.331 0.082-0.087 0.183-0.198 0.3-0.332l0.32 0.302-1.014 1.074-0.32-0.302c0.116-0.114 0.222-0.222 0.318-0.324-0.075-0.075-0.205-0.199-0.388-0.373-0.2-0.189-0.399-0.374-0.599-0.556l0.402-0.426z"></path>
<path fill="#ffdfe5" style="fill: var(--color1, #ffdfe5)" d="M21.475 23.913c0.163 0.221 0.352 0.471 0.567 0.748 0.13 0.168 0.202 0.262 0.216 0.283l0.028-0.021c-0.077-0.151-0.145-0.303-0.202-0.456l-0.269-0.816 0.604-0.467c0.171 0.231 0.352 0.471 0.545 0.721 0.192 0.248 0.374 0.479 0.547 0.692l-0.42 0.325c-0.282-0.38-0.483-0.648-0.605-0.805-0.082-0.106-0.139-0.181-0.17-0.224l-0.024 0.019c0.035 0.073 0.081 0.18 0.138 0.32l0.322 0.952-0.602 0.465c-0.175-0.239-0.337-0.455-0.485-0.646-0.206-0.267-0.409-0.522-0.608-0.767l0.418-0.324z"></path>
<path fill="#ffdfe5" style="fill: var(--color1, #ffdfe5)" d="M19.067 25.581c-0.071-0.173-0.159-0.378-0.265-0.612l0.397-0.179 0.114 0.254 0.995-0.447c-0.021-0.050-0.058-0.136-0.112-0.255l0.397-0.179c0.050 0.111 0.096 0.212 0.139 0.304 0.044 0.093 0.092 0.193 0.145 0.299l-0.184 0.083c-0.027 0.096-0.030 0.194-0.009 0.294s0.062 0.218 0.124 0.355c0.126 0.28 0.233 0.509 0.322 0.687l-1.311 0.589c-0.070-0.172-0.19-0.444-0.357-0.817-0.092-0.204-0.161-0.357-0.209-0.46l-0.186 0.084zM19.765 25.267c0.045 0.105 0.114 0.259 0.206 0.464 0.091 0.202 0.16 0.354 0.208 0.456l0.476-0.214c-0.034-0.079-0.080-0.184-0.139-0.315-0.063-0.14-0.104-0.266-0.125-0.38-0.020-0.113-0.011-0.214 0.027-0.305l-0.653 0.294z"></path>
<path fill="#ffdfe5" style="fill: var(--color1, #ffdfe5)" d="M18.833 25.193c0.084 0.359 0.153 0.649 0.206 0.87 0.053 0.22 0.125 0.508 0.215 0.866l-0.876 0.213c-0.241 0.059-0.434 0.050-0.58-0.026-0.147-0.075-0.247-0.225-0.302-0.449-0.039-0.162-0.052-0.298-0.039-0.407 0.014-0.108 0.057-0.195 0.129-0.263s0.176-0.117 0.313-0.151c0.074-0.018 0.134-0.030 0.179-0.036 0.044-0.006 0.080-0.006 0.108 0 0.055 0.003 0.101 0.020 0.138 0.053 0.036 0.035 0.072 0.084 0.11 0.147l0.030-0.015c-0.037-0.073-0.064-0.144-0.081-0.214-0.054-0.221-0.093-0.372-0.117-0.451l0.564-0.137zM18.245 26.126c-0.083 0.020-0.142 0.059-0.176 0.117-0.034 0.060-0.037 0.145-0.010 0.258 0.027 0.109 0.068 0.181 0.125 0.215s0.129 0.041 0.217 0.020l0.207-0.050-0.148-0.612-0.214 0.052z"></path>
<path fill="#ffdfe5" style="fill: var(--color1, #ffdfe5)" d="M15.931 27.42l0.226-1.386c0.017-0.15 0.053-0.261 0.108-0.332 0.054-0.070 0.141-0.11 0.261-0.119l0.819-0.063 0.031 0.397-0.602 0.047-0.076 0.386 0.054-0.004c0.014-0.078 0.044-0.134 0.088-0.169s0.112-0.056 0.204-0.063c0.065-0.005 0.125 0.011 0.177 0.047s0.088 0.086 0.105 0.149l0.324 0.978-0.602 0.047-0.303-0.913-0.051 0.004-0.157 0.949-0.607 0.047z"></path>
<path fill="#ffdfe5" style="fill: var(--color1, #ffdfe5)" d="M15.954 25.604c-0.018 0.197-0.040 0.493-0.064 0.887-0.025 0.397-0.040 0.696-0.046 0.895l-1.206-0.075 0.026-0.428c0.14 0.015 0.349 0.031 0.628 0.048 0.013-0.141 0.029-0.363 0.048-0.663 0.019-0.312 0.031-0.545 0.036-0.701l0.577 0.036z"></path>
<path fill="#ffdfe5" style="fill: var(--color1, #ffdfe5)" d="M13.727 25.314c0 0.105 0 0.176 0.001 0.213-0.001 0.019-0 0.040 0.001 0.062-0 0.024-0 0.050 0 0.079l0.465 0.098 0.149-0.323 0.577 0.122-0.218 0.466c-0.283 0.602-0.468 1.001-0.553 1.197l-0.971-0.205c-0.002-0.339-0.015-0.95-0.040-1.834l0.589 0.124zM13.731 25.966c0.003 0.426-0.011 0.751-0.040 0.972l0.030 0.006c0.078-0.24 0.196-0.543 0.354-0.906l-0.344-0.072z"></path>
<path fill="#ffdfe5" style="fill: var(--color1, #ffdfe5)" d="M12.658 25.634c0.006 0.050-0 0.097-0.019 0.142-0.025 0.061-0.066 0.105-0.122 0.134-0.058 0.030-0.115 0.033-0.171 0.009-0.040-0.017-0.082-0.045-0.124-0.085-0.043-0.038-0.098-0.098-0.164-0.178-0.034-0.036-0.065-0.060-0.094-0.072-0.024-0.010-0.050-0.006-0.076 0.011-0.027 0.019-0.046 0.041-0.059 0.067l-0.337-0.068c-0.006-0.051 0.002-0.101 0.021-0.148 0.025-0.059 0.064-0.102 0.117-0.129 0.052-0.027 0.106-0.029 0.162-0.006 0.076 0.032 0.177 0.119 0.302 0.261 0.019 0.020 0.038 0.036 0.058 0.050 0.019 0.015 0.035 0.024 0.047 0.027 0.025 0.009 0.050 0.002 0.074-0.020s0.043-0.046 0.055-0.071l0.329 0.074z"></path>
<path fill="#ffdfe5" style="fill: var(--color1, #ffdfe5)" d="M10.447 23.746c0.243 0.165 0.398 0.337 0.465 0.516s0.032 0.37-0.105 0.571l-0.374-0.208-0.155-0.088 0.046-0.068c0.039-0.058 0.053-0.123 0.040-0.193s-0.058-0.133-0.137-0.186c-0.053-0.036-0.102-0.059-0.146-0.068-0.026 0.003-0.051 0.020-0.072 0.053-0.047 0.070-0.067 0.141-0.060 0.214 0.006 0.072 0.050 0.139 0.133 0.2l0.264 0.207-0.102 0.151-0.289-0.171c-0.087-0.053-0.165-0.068-0.235-0.046s-0.127 0.067-0.172 0.132c-0.014 0.021-0.021 0.043-0.021 0.068 0.033 0.045 0.072 0.083 0.116 0.113 0.085 0.058 0.162 0.077 0.229 0.059 0.066-0.019 0.117-0.055 0.153-0.108l0.046-0.068 0.139 0.111 0.332 0.27c-0.135 0.199-0.297 0.301-0.486 0.307-0.19 0.005-0.406-0.075-0.647-0.238-0.089-0.060-0.172-0.137-0.249-0.229s-0.128-0.191-0.153-0.296c-0.025-0.105-0.005-0.205 0.058-0.298 0.060-0.089 0.124-0.146 0.19-0.171s0.133-0.028 0.201-0.008c0.067 0.021 0.141 0.057 0.223 0.109l0.029-0.043c-0.080-0.058-0.141-0.115-0.184-0.17-0.045-0.057-0.067-0.121-0.067-0.193-0.002-0.072 0.027-0.152 0.087-0.241 0.065-0.096 0.152-0.152 0.262-0.17 0.109-0.016 0.222-0.006 0.338 0.031 0.114 0.038 0.216 0.087 0.305 0.147z"></path>
<path fill="#ffdfe5" style="fill: var(--color1, #ffdfe5)" d="M7.49 23.532c0.095-0.090 0.305-0.302 0.63-0.634s0.531-0.547 0.619-0.642l0.413 0.404c-0.154 0.148-0.332 0.326-0.534 0.532l0.358 0.35c0.162-0.165 0.336-0.346 0.524-0.542l0.413 0.404c-0.237 0.231-0.448 0.441-0.632 0.629s-0.39 0.404-0.617 0.647l-0.413-0.404c0.194-0.194 0.362-0.363 0.503-0.507l-0.358-0.35c-0.181 0.185-0.345 0.357-0.493 0.517l-0.413-0.404z"></path>
<path fill="#ffdfe5" style="fill: var(--color1, #ffdfe5)" d="M8.113 21.375c-0.070 0.078-0.118 0.131-0.142 0.159-0.013 0.014-0.027 0.029-0.041 0.047-0.016 0.018-0.034 0.037-0.053 0.059l0.28 0.384 0.327-0.139 0.347 0.477-0.474 0.2c-0.614 0.257-1.018 0.43-1.213 0.517l-0.584-0.803c0.225-0.253 0.625-0.715 1.199-1.388l0.354 0.486zM7.679 21.861c-0.284 0.318-0.511 0.55-0.681 0.695l0.018 0.025c0.219-0.126 0.509-0.272 0.87-0.436l-0.207-0.284z"></path>
<path fill="#ffdfe5" style="fill: var(--color1, #ffdfe5)" d="M7.258 19.827c-0.249 0.116-0.531 0.252-0.845 0.408-0.19 0.094-0.297 0.146-0.32 0.156l0.016 0.032c0.163-0.046 0.326-0.082 0.487-0.108l0.853-0.103 0.339 0.684c-0.26 0.122-0.531 0.253-0.814 0.392-0.281 0.139-0.543 0.272-0.787 0.4l-0.236-0.476c0.428-0.201 0.731-0.346 0.908-0.434 0.12-0.060 0.205-0.1 0.253-0.123l-0.013-0.027c-0.079 0.020-0.192 0.044-0.341 0.072l-0.997 0.128-0.338-0.682c0.269-0.125 0.512-0.241 0.729-0.348 0.302-0.149 0.593-0.298 0.872-0.445l0.235 0.474zM5.077 20.787c0.225-0.105 0.396-0.039 0.512 0.196 0.11 0.222 0.057 0.396-0.158 0.52l-0.090-0.139c0.039-0.019 0.060-0.053 0.062-0.101 0.001-0.047-0.014-0.103-0.045-0.166-0.033-0.067-0.069-0.115-0.107-0.143-0.040-0.029-0.080-0.033-0.119-0.014l-0.055-0.153z"></path>
<path fill="#ffdfe5" style="fill: var(--color1, #ffdfe5)" d="M7.022 19.203c-0.311 0.089-0.588 0.171-0.833 0.248-0.158 0.049-0.312 0.099-0.463 0.149 0.036 0.115 0.083 0.256 0.142 0.424l-0.42 0.131-0.44-1.41 0.42-0.131c0.042 0.157 0.085 0.302 0.126 0.436 0.102-0.029 0.274-0.081 0.515-0.156 0.262-0.082 0.521-0.165 0.778-0.25l0.174 0.559z"></path>
<path fill="#ffdfe5" style="fill: var(--color1, #ffdfe5)" d="M6.522 16.955c-0.273 0.034-0.583 0.076-0.93 0.128-0.21 0.031-0.327 0.047-0.352 0.050l0.005 0.035c0.17 0.006 0.335 0.022 0.497 0.047l0.843 0.164 0.111 0.755c-0.285 0.036-0.583 0.077-0.895 0.123-0.31 0.046-0.601 0.092-0.872 0.138l-0.077-0.526c0.469-0.060 0.802-0.104 0.998-0.133 0.133-0.020 0.226-0.032 0.278-0.039l-0.004-0.030c-0.081-0.005-0.197-0.017-0.346-0.036l-0.988-0.186-0.111-0.753c0.295-0.036 0.561-0.071 0.801-0.106 0.333-0.049 0.656-0.101 0.966-0.154l0.077 0.523z"></path>
<path fill="#ffdfe5" style="fill: var(--color1, #ffdfe5)" d="M6.242 14.033c0.186 0.023 0.407 0.046 0.664 0.068l-0.039 0.434-0.277-0.025-0.097 1.087c0.054 0.006 0.147 0.015 0.277 0.027l-0.039 0.434c-0.121-0.011-0.232-0.020-0.334-0.027-0.103-0.008-0.213-0.014-0.332-0.020l0.018-0.2c-0.071-0.071-0.155-0.121-0.252-0.152s-0.221-0.053-0.37-0.066c-0.306-0.027-0.558-0.046-0.757-0.056l0.127-1.432c0.184 0.023 0.48 0.052 0.888 0.088 0.222 0.020 0.39 0.034 0.504 0.043l0.018-0.203zM6.174 14.795c-0.113-0.012-0.282-0.027-0.506-0.047-0.221-0.020-0.387-0.034-0.499-0.042l-0.046 0.52c0.085 0.009 0.2 0.020 0.343 0.033 0.152 0.014 0.283 0.039 0.393 0.077 0.108 0.038 0.192 0.095 0.253 0.173l0.063-0.713z"></path>
<path fill="#ffdfe5" style="fill: var(--color1, #ffdfe5)" d="M6.691 14.007c-0.354-0.102-0.641-0.184-0.86-0.245-0.218-0.061-0.505-0.139-0.86-0.235l0.242-0.868c0.067-0.239 0.168-0.403 0.305-0.493 0.137-0.091 0.317-0.106 0.54-0.044 0.161 0.045 0.286 0.1 0.374 0.165 0.087 0.065 0.143 0.145 0.166 0.241s0.016 0.211-0.021 0.346c-0.021 0.074-0.039 0.132-0.056 0.174-0.016 0.041-0.034 0.072-0.053 0.095-0.029 0.047-0.067 0.078-0.114 0.095-0.048 0.014-0.108 0.022-0.182 0.024l-0.002 0.033c0.082 0.003 0.157 0.015 0.226 0.034 0.219 0.061 0.37 0.101 0.451 0.118l-0.156 0.559zM6.164 13.038c0.023-0.083 0.018-0.153-0.016-0.211-0.035-0.059-0.109-0.103-0.22-0.134-0.108-0.030-0.191-0.029-0.249 0.003s-0.099 0.092-0.123 0.18l-0.057 0.205 0.607 0.169 0.059-0.212z"></path>
<path fill="#ffdfe5" style="fill: var(--color1, #ffdfe5)" d="M6.162 10.39l1.099 0.875c0.123 0.088 0.202 0.173 0.237 0.257 0.035 0.081 0.027 0.176-0.024 0.286l-0.345 0.746-0.361-0.167 0.254-0.548-0.3-0.255-0.023 0.049c0.061 0.051 0.096 0.104 0.104 0.159s-0.006 0.125-0.045 0.209c-0.028 0.059-0.070 0.103-0.128 0.132s-0.118 0.035-0.182 0.019l-1.011-0.195 0.254-0.548 0.945 0.182 0.022-0.047-0.751-0.601 0.256-0.552z"></path>
<path fill="#ffdfe5" style="fill: var(--color1, #ffdfe5)" d="M7.716 11.325c-0.163-0.113-0.41-0.276-0.742-0.491-0.334-0.216-0.587-0.376-0.758-0.479l0.656-1.014 0.36 0.233c-0.082 0.115-0.198 0.289-0.35 0.524 0.117 0.081 0.302 0.203 0.554 0.367 0.262 0.169 0.46 0.295 0.594 0.375l-0.314 0.486z"></path>
<path fill="#ffdfe5" style="fill: var(--color1, #ffdfe5)" d="M9.048 9.527c-0.092-0.051-0.154-0.086-0.186-0.103-0.016-0.010-0.035-0.020-0.055-0.029-0.021-0.012-0.044-0.025-0.069-0.038l-0.312 0.358 0.209 0.288-0.387 0.445-0.301-0.417c-0.388-0.541-0.647-0.896-0.776-1.066l0.652-0.749c0.297 0.163 0.837 0.449 1.621 0.859l-0.395 0.454zM8.478 9.213c-0.374-0.205-0.65-0.375-0.83-0.508l-0.020 0.023c0.172 0.185 0.379 0.435 0.619 0.75l0.231-0.265z"></path>
<path fill="#ffdfe5" style="fill: var(--color1, #ffdfe5)" d="M9.289 8.43c-0.047-0.019-0.085-0.047-0.115-0.086-0.040-0.052-0.060-0.109-0.058-0.172 0.002-0.065 0.027-0.117 0.075-0.154 0.034-0.027 0.079-0.049 0.135-0.067 0.055-0.019 0.133-0.038 0.235-0.057 0.048-0.012 0.084-0.028 0.109-0.047 0.021-0.016 0.030-0.040 0.027-0.072-0.004-0.033-0.014-0.061-0.030-0.084l0.223-0.262c0.048 0.020 0.087 0.051 0.119 0.091 0.040 0.050 0.058 0.105 0.055 0.165-0.002 0.059-0.026 0.107-0.074 0.144-0.065 0.051-0.19 0.097-0.375 0.136-0.026 0.007-0.050 0.016-0.072 0.026-0.022 0.010-0.038 0.019-0.047 0.028-0.020 0.018-0.026 0.042-0.019 0.074s0.019 0.060 0.035 0.083l-0.225 0.251z"></path>
<path fill="#ffdfe5" style="fill: var(--color1, #ffdfe5)" d="M12.013 7.409c-0.262 0.132-0.488 0.184-0.677 0.155s-0.339-0.152-0.448-0.369l0.364-0.225 0.152-0.093 0.037 0.073c0.032 0.063 0.081 0.106 0.149 0.129s0.144 0.014 0.229-0.029c0.057-0.029 0.101-0.060 0.131-0.095 0.010-0.024 0.007-0.054-0.011-0.089-0.038-0.075-0.091-0.127-0.158-0.157-0.066-0.030-0.146-0.024-0.24 0.019l-0.309 0.13-0.082-0.163 0.289-0.17c0.088-0.050 0.14-0.111 0.154-0.183s0.004-0.143-0.032-0.215c-0.011-0.022-0.028-0.039-0.049-0.051-0.056 0.007-0.107 0.023-0.155 0.047-0.092 0.046-0.146 0.103-0.163 0.171-0.015 0.067-0.008 0.129 0.021 0.186l0.037 0.073-0.165 0.068-0.397 0.158c-0.108-0.215-0.119-0.406-0.032-0.574 0.088-0.168 0.262-0.318 0.523-0.45 0.096-0.048 0.203-0.084 0.321-0.107s0.229-0.019 0.333 0.010c0.104 0.030 0.181 0.095 0.232 0.195 0.048 0.096 0.068 0.179 0.057 0.249s-0.040 0.13-0.090 0.179c-0.051 0.048-0.119 0.096-0.204 0.142l0.023 0.046c0.089-0.042 0.169-0.068 0.238-0.078 0.071-0.011 0.138 0 0.201 0.035 0.064 0.033 0.12 0.097 0.168 0.193 0.052 0.103 0.059 0.207 0.021 0.312-0.039 0.103-0.103 0.197-0.192 0.28-0.088 0.081-0.181 0.146-0.277 0.195z"></path>
<path fill="#ffdfe5" style="fill: var(--color1, #ffdfe5)" d="M13.658 4.919c0.033 0.127 0.115 0.414 0.247 0.86s0.218 0.73 0.259 0.853l-0.555 0.164c-0.055-0.207-0.123-0.449-0.205-0.726l-0.48 0.142c0.065 0.221 0.138 0.462 0.218 0.722l-0.555 0.164c-0.086-0.319-0.167-0.606-0.242-0.859s-0.163-0.538-0.265-0.854l0.555-0.164c0.075 0.264 0.141 0.493 0.198 0.686l0.48-0.142c-0.073-0.248-0.144-0.476-0.211-0.682l0.554-0.164z"></path>
<path fill="#ffdfe5" style="fill: var(--color1, #ffdfe5)" d="M15.205 6.519c-0.034-0.1-0.057-0.167-0.069-0.202-0.005-0.018-0.012-0.038-0.021-0.059-0.007-0.023-0.016-0.048-0.025-0.075l-0.472 0.057-0.038 0.353-0.586 0.070 0.056-0.511c0.075-0.661 0.121-1.098 0.14-1.311l0.986-0.118c0.111 0.32 0.32 0.895 0.627 1.724l-0.597 0.072zM14.993 5.903c-0.14-0.403-0.231-0.714-0.275-0.934l-0.030 0.004c0.004 0.253-0.011 0.577-0.044 0.972l0.349-0.042z"></path>
<path fill="#ffdfe5" style="fill: var(--color1, #ffdfe5)" d="M16.992 6.523c0.020-0.274 0.039-0.586 0.056-0.937 0.011-0.212 0.017-0.33 0.020-0.355l-0.035-0.002c-0.040 0.165-0.087 0.325-0.144 0.478l-0.326 0.795-0.762-0.038c0.021-0.286 0.039-0.587 0.055-0.902 0.016-0.313 0.027-0.607 0.035-0.882l0.531 0.027c-0.033 0.472-0.055 0.807-0.064 1.005-0.007 0.134-0.012 0.228-0.016 0.28l0.030 0.002c0.021-0.079 0.056-0.189 0.103-0.332l0.375-0.933 0.76 0.038c-0.023 0.296-0.040 0.564-0.052 0.806-0.017 0.337-0.029 0.663-0.037 0.978l-0.528-0.027zM17.219 4.151c-0.019 0.247-0.159 0.365-0.421 0.352-0.248-0.012-0.373-0.143-0.377-0.392l0.165-0.010c-0.002 0.044 0.017 0.078 0.058 0.104 0.041 0.024 0.097 0.038 0.167 0.041 0.075 0.004 0.134-0.004 0.177-0.024 0.045-0.021 0.068-0.054 0.070-0.097l0.16 0.027z"></path>
<path fill="#ffdfe5" style="fill: var(--color1, #ffdfe5)" d="M17.683 6.622c0.074-0.314 0.138-0.597 0.19-0.847 0.034-0.162 0.066-0.321 0.096-0.477-0.118-0.025-0.264-0.052-0.439-0.083l0.091-0.431 1.445 0.304-0.091 0.431c-0.158-0.040-0.305-0.074-0.442-0.103-0.025 0.103-0.063 0.279-0.116 0.526-0.057 0.269-0.11 0.536-0.161 0.801l-0.573-0.121z"></path>
<path fill="#ffdfe5" style="fill: var(--color1, #ffdfe5)" d="M19.86 7.269c0.103-0.255 0.217-0.546 0.342-0.874 0.075-0.198 0.118-0.309 0.128-0.332l-0.033-0.012c-0.088 0.145-0.183 0.282-0.284 0.411l-0.554 0.656-0.713-0.271c0.108-0.266 0.218-0.547 0.329-0.841 0.111-0.293 0.213-0.569 0.304-0.828l0.497 0.189c-0.177 0.439-0.3 0.751-0.37 0.936-0.048 0.125-0.082 0.213-0.102 0.262l0.029 0.011c0.044-0.068 0.111-0.163 0.201-0.284l0.644-0.772 0.711 0.27c-0.112 0.274-0.212 0.525-0.297 0.751-0.12 0.315-0.232 0.622-0.336 0.919l-0.495-0.188z"></path>
<path fill="#ffdfe5" style="fill: var(--color1, #ffdfe5)" d="M22.599 8.484c-0.111 0.151-0.24 0.332-0.386 0.544l-0.359-0.247 0.158-0.229-0.898-0.619c-0.032 0.044-0.086 0.12-0.16 0.228l-0.359-0.247c0.069-0.1 0.132-0.193 0.188-0.277 0.057-0.086 0.117-0.179 0.181-0.279l0.166 0.114c0.096-0.027 0.181-0.075 0.256-0.145s0.154-0.166 0.239-0.29c0.174-0.253 0.315-0.464 0.421-0.631l1.184 0.816c-0.11 0.149-0.282 0.392-0.514 0.729-0.127 0.184-0.222 0.323-0.285 0.418l0.168 0.116zM21.969 8.050c0.066-0.093 0.163-0.232 0.29-0.417 0.126-0.183 0.22-0.32 0.282-0.414l-0.43-0.296c-0.050 0.070-0.116 0.164-0.197 0.282-0.087 0.126-0.174 0.227-0.26 0.304-0.086 0.075-0.178 0.12-0.275 0.135l0.59 0.406z"></path>
<path fill="#ffdfe5" style="fill: var(--color1, #ffdfe5)" d="M22.366 8.858c0.262-0.259 0.473-0.47 0.633-0.631 0.159-0.161 0.368-0.373 0.625-0.636l0.64 0.635c0.176 0.175 0.27 0.344 0.282 0.507 0.013 0.164-0.062 0.329-0.225 0.492-0.118 0.118-0.227 0.201-0.327 0.246-0.099 0.044-0.196 0.054-0.291 0.028s-0.192-0.089-0.292-0.188c-0.054-0.054-0.096-0.098-0.125-0.134-0.028-0.034-0.047-0.065-0.057-0.092-0.027-0.048-0.036-0.097-0.027-0.146 0.011-0.049 0.033-0.105 0.067-0.171l-0.028-0.018c-0.043 0.070-0.090 0.13-0.14 0.181-0.161 0.162-0.268 0.274-0.323 0.336l-0.412-0.409zM23.469 8.87c0.061 0.060 0.125 0.090 0.192 0.089 0.068-0.002 0.143-0.045 0.225-0.127 0.079-0.080 0.119-0.153 0.118-0.219s-0.032-0.131-0.097-0.195l-0.151-0.15-0.444 0.447 0.156 0.155z"></path>
<path fill="#ffdfe5" style="fill: var(--color1, #ffdfe5)" d="M25.795 10.171l-1.299 0.534c-0.136 0.065-0.25 0.092-0.34 0.082-0.088-0.009-0.167-0.063-0.238-0.16l-0.483-0.664 0.322-0.234 0.355 0.488 0.369-0.138-0.032-0.044c-0.074 0.029-0.137 0.033-0.19 0.014s-0.106-0.066-0.16-0.141c-0.039-0.053-0.056-0.112-0.053-0.176s0.027-0.12 0.072-0.168l0.662-0.789 0.355 0.488-0.619 0.737 0.030 0.042 0.89-0.364 0.358 0.492z"></path>
<path fill="#ffdfe5" style="fill: var(--color1, #ffdfe5)" d="M24.222 11.072c0.178-0.088 0.441-0.224 0.79-0.41 0.351-0.187 0.614-0.33 0.787-0.43l0.568 1.066-0.378 0.201c-0.061-0.127-0.156-0.314-0.288-0.56-0.128 0.063-0.324 0.165-0.59 0.306-0.275 0.147-0.481 0.259-0.617 0.336l-0.272-0.51z"></path>
<path fill="#ffdfe5" style="fill: var(--color1, #ffdfe5)" d="M25.136 13.089c0.089-0.056 0.15-0.093 0.181-0.113 0.017-0.009 0.034-0.021 0.052-0.034 0.020-0.012 0.043-0.026 0.067-0.042l-0.162-0.447-0.353 0.043-0.201-0.555 0.511-0.061c0.661-0.077 1.097-0.13 1.309-0.161l0.338 0.933c-0.287 0.18-0.799 0.514-1.537 1l-0.205-0.566zM25.688 12.743c0.361-0.227 0.643-0.387 0.847-0.479l-0.010-0.029c-0.245 0.061-0.564 0.12-0.957 0.177l0.12 0.33z"></path>
<path fill="#ffdfe5" style="fill: var(--color1, #ffdfe5)" d="M25.984 13.866c0.039-0.031 0.083-0.051 0.131-0.058 0.065-0.010 0.124 0.001 0.178 0.034 0.056 0.034 0.088 0.081 0.098 0.141 0.007 0.043 0.004 0.093-0.008 0.15-0.010 0.057-0.032 0.134-0.066 0.233-0.013 0.048-0.017 0.087-0.012 0.118 0.004 0.026 0.020 0.046 0.049 0.059 0.030 0.013 0.060 0.018 0.088 0.015l0.119 0.323c-0.041 0.032-0.087 0.051-0.138 0.059-0.063 0.010-0.12-0.001-0.171-0.033-0.050-0.030-0.080-0.075-0.090-0.135-0.013-0.082 0.009-0.213 0.064-0.394 0.007-0.026 0.011-0.051 0.012-0.075 0.003-0.024 0.002-0.042-0.001-0.054-0.006-0.026-0.024-0.044-0.056-0.053s-0.061-0.013-0.089-0.010l-0.109-0.32z"></path>
</symbol>
<symbol id="icon-cat" viewBox="0 0 29 32">
<path fill="#472179" style="fill: var(--color1, #472179)" d="M1.48 0.358c0.208-0.264 0.233-0.269 0.536-0.113 0.57 0.294 2.207 1.735 3.181 2.8l0.953 1.041 0.408-0.095c0.836-0.194 2.67-0.23 3.561-0.070 0.848 0.152 0.87 0.15 1.089-0.084 1.429-1.525 2.728-2.754 3.403-3.221l0.825-0.57 0.202 0.262c0.454 0.587 1.003 2.505 1.243 4.343 0.618 4.729 0.019 8.294-1.71 10.186-0.289 0.316-0.526 0.646-0.526 0.732 0 0.225 1.193 2.003 1.814 2.703 0.291 0.328 1.092 1.209 1.781 1.959 2.356 2.563 3.37 3.958 4.309 5.923 0.941 1.969 1.311 3.358 1.425 5.357 0.082 1.424-0.083 2.94-0.459 4.221-0.144 0.489-0.262 0.926-0.263 0.971s0.289 0.082 0.646 0.082c1.009 0 3.043 0.299 4.081 0.599 2.060 0.597 3.677 1.739 4.43 3.128 0.352 0.648 0.371 0.741 0.371 1.773 0 0.977-0.032 1.154-0.311 1.722-0.597 1.215-1.896 1.938-3.611 2.008-0.858 0.035-1.040 0.009-1.465-0.211-0.977-0.507-0.836-1.318 0.336-1.932 0.972-0.509 1.51-1.043 1.51-1.5 0-0.212-0.088-0.447-0.214-0.573-0.3-0.3-1.126-0.701-1.998-0.97-1.673-0.516-5.258-0.579-7.041-0.124-1.216 0.31-2.684 0.43-3.939 0.321-1.008-0.087-2.27-0.42-2.591-0.684-0.117-0.096-0.164-0.095-0.198 0.004-0.092 0.272-0.497 0.697-0.828 0.868-0.454 0.235-2.142 0.323-2.796 0.146-0.311-0.084-0.63-0.28-0.873-0.535l-0.383-0.402-0.265 0.32c-0.435 0.526-1.115 0.76-2.192 0.755-1.032-0.005-1.837-0.266-2.051-0.667-0.204-0.381-0.133-1.101 0.176-1.79l0.294-0.656-0.18-1.373c-0.099-0.755-0.329-2.365-0.512-3.577-0.687-4.558-0.812-6.216-0.815-10.811-0.002-2.548 0.049-4.679 0.129-5.431l0.132-1.237-0.686-0.669c-1.683-1.641-2.361-3.743-2.357-7.313 0.002-2.427 0.322-4.654 0.932-6.502 0.152-0.461 0.375-0.963 0.495-1.116zM3.409 8.888c-1.101 0.698-1.405 2.291-0.602 3.154 0.913 0.981 3.091 0.92 3.619-0.101 0.211-0.408 0.15-1.393-0.127-2.056-0.504-1.207-1.835-1.666-2.89-0.997zM11.758 8.728c-0.751 0.335-1.22 1.147-1.327 2.3-0.052 0.553-0.027 0.754 0.123 0.982 0.281 0.428 1.077 0.741 1.875 0.735 1.956-0.014 2.862-1.925 1.607-3.39-0.625-0.73-1.504-0.972-2.278-0.627zM4.238 9.713c-0.221 0.221-0.267 0.375-0.267 0.882 0 0.554 0.037 0.651 0.37 0.985 0.543 0.543 1.039 0.456 1.327-0.234 0.199-0.477 0.195-0.856-0.014-1.297-0.295-0.621-0.971-0.781-1.416-0.336zM11.645 9.694c-0.537 0.462-0.468 1.836 0.108 2.145 0.546 0.292 1.201-0.212 1.332-1.025 0.175-1.079-0.698-1.758-1.441-1.12zM7.723 12.571c-0.173 0.173-0.164 0.203 0.157 0.49 0.451 0.403 0.883 0.4 1.341-0.009 0.304-0.272 0.332-0.339 0.206-0.49-0.21-0.253-1.449-0.246-1.704 0.009z"></path>
</symbol>
</defs>
</svg>
